<?xml version="1.0" encoding="utf-8"?>
<!-- Generator: Adobe Illustrator 24.0.3, SVG Export Plug-In . SVG Version: 6.00 Build 0)  -->
<svg version="1.1" id="Layer_1" xmlns="http://www.w3.org/2000/svg" xmlns:xlink="http://www.w3.org/1999/xlink" x="0px" y="0px"
	 viewBox="0 0 191.3 94.4" style="enable-background:new 0 0 191.3 94.4;" xml:space="preserve">
<g id="u9trit.tif">
	<g>
		<path d="M90,21.9c1.4-0.7,2.1-1,2.9-1.4c7.7-3.6,15.6-4.6,23.8-2.4c5.2,1.4,8.4,4.7,8.6,10c0.3,8.8,0.4,17.6,0,26.4
			c-0.4,7-5.5,10.9-13.8,11.7c-7.1,0.7-13.9-0.2-20-4.2c-0.2-0.1-0.4-0.2-0.6-0.3c-0.1,0-0.3,0-0.8,0c0,3.4,0,6.8,0,10.1
			c0,2.2,0.6,5.2-0.6,6.3c-0.9,0.8-4,0.5-6.1,0.5c-5.6,0.1-10.8,0.1-16.9,0c-1.8,0-2.6-0.4-2.5-2.4c0.1-18.6,0.1-37.1,0-55.7
			c0-2,0.7-2.4,2.5-2.4c6.7,0.1,13.4,0.1,20.2,0C88.9,18.1,90.9,18.1,90,21.9z M99.5,41.3C99.4,41.3,99.4,41.3,99.5,41.3
			c0-3.8,0-7.6,0-11.4c0-2.8-1.2-3.7-4.5-3.7s-4.8,1-4.8,3.8c0,7.4-0.1,14.9,0,22.3c0,3,1.6,4.4,4.6,4.4c3.3,0,4.7-1.3,4.7-4.5
			C99.5,48.6,99.5,44.9,99.5,41.3z"/>
		<path d="M60.2,65.1c-8.2,0-16.3,0-24.6,0c-0.2-0.6-0.4-1.3-0.6-2.1c-0.5,0.2-1.1,0.3-1.6,0.6c-7,3-14.3,3.7-21.7,2.1
			c-2.5-0.5-4.9-2-7.1-3.4C2.7,61,1.9,58.9,2,56.5c0-2.4,0.1-4.9,0-7.3c-0.1-3.2,1.4-5.4,4.3-6.3c4.3-1.3,8.7-2.4,13-3.5
			c3.9-1,7.9-1.8,11.8-2.9c3.1-0.9,3.4-1.6,3.4-4.8c0-1.2,0-2.4,0-3.6c-0.1-2.7-1.4-3.8-4.5-3.8c-2.9,0-4,1.1-4,3.7
			c0,2.2,0,4.4,0,6.6c0,1.2-0.4,1.6-1.6,1.6c-7,0-14,0-21.1-0.1c-0.5,0-1.4-0.9-1.5-1.4c-1.1-8.4,2.3-13.5,10.6-15.8
			c7.4-2.1,15.1-2.3,22.7-1.8c5.1,0.3,10.2,0.9,15.1,2.1c2.7,0.7,5.4,2.4,7.6,4.3c1.4,1.3,2.5,3.7,2.5,5.6
			c0.2,11.6,0.1,23.3,0.2,34.9C60.4,64.3,60.3,64.6,60.2,65.1z M34.2,43c-7.1,1.9-9.2,5.1-8.2,11.7c0.3,1.7,1.8,2.9,4.1,2.7
			c1.8-0.1,4-0.1,4.1-2.6C34.4,50.9,34.2,47.1,34.2,43z"/>
		<path d="M188.9,45.8c1.4,6.6-1.6,13.2-7.2,16.4c-4.5,2.6-9.4,3.6-14.5,3.9c-9.7,0.6-19.4,0.6-28.7-3c-6-2.3-10.8-6.1-10.3-14.8
			c0.3-4.9,0.2-9.7,0-14.6c-0.1-5.8,2.6-9.7,7.5-12.3c5.1-2.7,10.7-3.6,16.3-4.1c8.5-0.7,17-0.7,25.2,2c2.9,1,5.7,2.5,8.2,4.4
			c3.6,2.8,4.1,6.9,3.7,11.2c0,0.4-0.7,1.1-1.1,1.1c-8.1,0.1-16.1,0-24.5,0c0-2.5-0.1-4.8,0-7c0.1-2-0.8-2.9-2.7-3.3
			c-4.3-0.8-5.9,0.5-5.9,4.9c0,7.5,0,15.1,0,22.6c0,3.4,1.1,4.4,4.6,4.4c3.6,0,4.9-1.1,4.9-4.4c0-2-0.1-4,0.1-5.9
			c0-0.6,0.9-1.5,1.3-1.5C173.5,45.7,181.2,45.8,188.9,45.8z"/>
	</g>
</g>
</svg>
