<?xml version="1.0" encoding="utf-8"?>
<!-- Generator: Adobe Illustrator 24.0.3, SVG Export Plug-In . SVG Version: 6.00 Build 0)  -->
<svg version="1.1" id="Layer_1" xmlns="http://www.w3.org/2000/svg" xmlns:xlink="http://www.w3.org/1999/xlink" x="0px" y="0px"
	 viewBox="0 0 195.3 63.4" style="enable-background:new 0 0 195.3 63.4;" xml:space="preserve">
<g id="Zc47WI.tif">
	<g>
		<path d="M31.2,62.6c-0.8-0.1-1.5-0.2-2.3-0.3C15.6,61.1,4.3,51.1,1.5,37.6C-1.7,21.9,7.8,6.3,23.3,1.7c4.3-1.3,8.6-1.5,13-0.9
			c12.5,1.6,23.3,11,26.1,24c2.5,11.8-1,22-10,30.1c-4.4,4-9.8,6.3-15.7,7.3c-1,0.2-2,0.2-3,0.3c-0.3,0-0.6,0.1-0.9,0.1
			C32.3,62.6,31.8,62.6,31.2,62.6z M10,25.7c0.4-0.1,0.7-0.2,0.9-0.3c1.9-0.8,3.9-1.3,6-1.3c2.2,0,3.2,1.1,3.3,3.2
			c0,0.6-0.2,0.8-0.8,0.8c-2.3,0.2-4.5,0.6-6.7,1.4c-2.5,1-4.4,2.6-4.6,5.5C8.1,37.6,9.2,40,12,40.7c2.8,0.7,5.3,0,7.5-1.7
			c0.3-0.3,0.7-0.6,1-0.9c0.1,0.7,0.2,1.3,0.3,1.9c0.1,0.4,0.2,0.6,0.7,0.6c0.6,0,1.2,0,1.7,0c0.5,0,0.7-0.2,0.7-0.7
			c0-4.5,0-9.1-0.1-13.6c0-2.5-1.5-4.4-4-4.9c-3.4-0.8-6.8-0.1-10,1.2c-0.1,0.1-0.3,0.3-0.3,0.5C9.7,23.8,9.9,24.7,10,25.7z
			 M54.1,25.6c0.1-0.9,0.3-1.8,0.5-2.7c0.1-0.6-0.1-0.7-0.5-0.9c-1.7-0.7-3.5-1-5.4-1c-1.6,0-3.2,0.2-4.6,1c-1.7,1-2.5,2.5-2.5,4.4
			c0,2,0.8,3.6,2.6,4.5c0.7,0.4,1.5,0.6,2.2,0.9c1.4,0.5,2.9,0.8,4.3,1.3c0.7,0.2,1.2,0.7,1.5,1.4c0.5,1.4-0.2,2.7-1.8,3.1
			c-2.3,0.6-4.4,0.1-6.5-0.8c-0.7-0.3-1.4-0.7-2.1-1.1c-0.2,1.1-0.4,2.1-0.5,3.1c0,0.2,0.2,0.4,0.4,0.5c0.8,0.3,1.6,0.7,2.5,1
			c2.6,0.8,5.3,1,8,0.1c2.4-0.8,3.7-2.6,3.7-5.1c0-2.2-0.5-3.9-3.3-5.1c-1.1-0.5-2.2-0.8-3.3-1.1c-1.1-0.4-2.2-0.8-3.2-1.2
			c-0.6-0.2-0.9-0.8-0.9-1.4c0-1.1,0.6-1.9,1.8-2.1c1.3-0.3,2.6-0.2,3.9,0.2C51.9,24.8,53,25.2,54.1,25.6z M39.4,24.4
			c-0.2-1.1-0.4-2.1-0.5-3.1C38.8,21,38.7,21,38.3,21c-2.5,0.2-4.3,1.6-5.8,3.5c-0.1,0.2-0.3,0.3-0.4,0.6c-0.2-1.1-0.3-2.1-0.5-3.2
			c0-0.4-0.2-0.5-0.6-0.5c-0.7,0-1.3,0-2,0c-0.4,0-0.5,0.1-0.5,0.5c0,6,0,12.1,0,18.1c0,0.4,0.2,0.6,0.6,0.6c0.8,0,1.6,0,2.5,0
			c0.5,0,0.7-0.2,0.7-0.7c0-3,0.1-6,0-9.1c0-1.4,0.4-2.4,1.3-3.4c0.3-0.3,0.6-0.6,0.9-0.9C35.8,25.3,37.4,24.6,39.4,24.4z"/>
		<path d="M193.1,40.4c-0.6,0-1.2,0-1.9,0c-0.1-0.8-0.3-1.5-0.4-2.3c-0.4,0.3-0.8,0.7-1.2,0.9c-1.9,1.4-4,2.1-6.4,1.7
			c-2-0.3-3.5-1.3-4-3.3c-0.5-2.2-0.2-4.2,1.7-5.7c1.3-1.1,2.8-1.6,4.4-2c1.8-0.4,3.5-0.7,5.4-1c0-0.9,0.1-1.8-0.3-2.8
			c-0.5-1.3-1.6-1.7-2.9-1.8c-2.1-0.1-4.1,0.4-6,1.2c-0.2,0.1-0.5,0.2-0.8,0.3c-0.1-0.6-0.2-1.2-0.3-1.9c0-0.2,0.1-0.4,0.3-0.5
			c2.6-1.1,5.4-1.8,8.2-1.3c2.4,0.4,3.6,1.6,4.1,4c0,0.1,0.1,0.2,0.1,0.3C193.1,31.1,193.1,35.8,193.1,40.4z M190.7,30.8
			c-2.3,0.2-4.4,0.5-6.4,1.4c-0.6,0.3-1.2,0.6-1.7,1.1c-1,0.9-1.2,2.1-0.9,3.3c0.2,1.1,1,1.7,2.1,1.9c0.5,0.1,1.1,0.1,1.7,0.1
			c2-0.2,3.6-1.2,5.1-2.5c0.1-0.1,0.2-0.3,0.2-0.4C190.7,34.2,190.7,32.5,190.7,30.8z"/>
		<path d="M129.9,40.4c-0.8,0-1.6,0-2.4,0c0-0.3,0-0.5,0-0.7c0-3.8,0-7.6,0-11.4c0-0.4,0-0.8,0-1.1c-0.3-2.3-2.1-3.4-4.5-2.8
			c-1.8,0.5-3.3,1.6-4.6,2.9c-0.1,0.1-0.1,0.4-0.1,0.7c0,3.9,0,7.8,0,11.7c0,0.2,0,0.5,0,0.8c-0.8,0-1.6,0-2.5,0c0-8.9,0-17.9,0-27
			c0.8-0.1,1.6-0.3,2.4-0.5c0,4,0,7.9,0,12c0.4-0.3,0.6-0.5,0.9-0.7c1.5-1.2,3.2-2.2,5.1-2.2c0.8,0,1.6,0,2.3,0.2
			c2.1,0.5,3.4,2.2,3.4,4.5c0.1,4.5,0,9,0,13.5C130,40.3,129.9,40.3,129.9,40.4z"/>
		<path d="M92,26.2c-0.4-0.3-0.6-0.5-0.9-0.7c-1.6-1.1-3.4-1.6-5.3-1.4c-1.8,0.2-3.1,1.2-4,2.8c-0.5,1-0.8,2.1-0.9,3.3
			c3.7,0,7.4,0,11.1,0c-0.1,0.8-0.2,1.4-0.4,2.1c0,0.1-0.4,0.2-0.5,0.2c-1.8,0-3.6,0-5.5,0c-1.3,0-2.7,0-4,0c-0.2,0-0.4,0-0.7,0
			c0,2.6,1.6,5.3,4.1,5.9c2.7,0.6,5-0.1,7.1-1.9c0.1,0.7,0.2,1.3,0.3,1.9c0,0.2-0.1,0.4-0.2,0.5c-2.9,2.3-8.2,2.8-11.3-0.2
			c-1.6-1.5-2.4-3.5-2.6-5.6c-0.3-2.3-0.1-4.6,1-6.8c1.5-3.1,4.8-4.8,8.2-4.4c1.6,0.2,3.1,0.7,4.5,1.5c0.3,0.2,0.4,0.4,0.3,0.7
			C92.2,24.8,92.2,25.5,92,26.2z"/>
		<path d="M137.3,40.4c-0.9,0-1.7,0-2.5,0c0-6,0-12,0-18c0.5,0,1.1,0,1.6,0c0.2,0,0.4,0.3,0.4,0.5c0.1,0.7,0.2,1.4,0.4,2.2
			c0.3-0.2,0.4-0.3,0.6-0.5c1.3-1.1,2.8-2,4.5-2.4c1.1-0.2,2.2-0.2,3.3,0.1c2,0.5,3,1.9,3.3,3.9c0.1,0.5,0.1,1,0.1,1.4
			c0,4.1,0,8.3,0,12.4c0,0.1,0,0.3,0,0.5c-0.8,0-1.6,0-2.5,0c0-0.2,0-0.5,0-0.7c0-3.7,0-7.5,0-11.2c0-0.2,0-0.4,0-0.6
			c-0.1-2.8-1.8-4.2-4.6-3.5c-1.8,0.5-3.3,1.6-4.6,2.9c-0.1,0.1-0.1,0.4-0.1,0.7c0,3.9,0,7.8,0,11.8
			C137.3,39.9,137.3,40.1,137.3,40.4z"/>
		<path d="M66,22.3c0.9,0,1.8,0,2.7,0c0-2.1,0-4.2,0-6.3c0.8-0.1,1.6-0.3,2.5-0.4c0,2.2,0,4.4,0,6.7c1.4,0,2.8,0,4.2,0
			c0.1,0.7,0.2,1.4,0.3,2.1c-1.5,0-3,0-4.5,0c0,0.3,0,0.5,0,0.7c0,3.6,0,7.1,0,10.7c0,0.1,0,0.2,0,0.2c0,1.8,0.8,2.6,2.7,2.6
			c0.5,0,1.1-0.1,1.7-0.2c0.1,0.3,0.1,0.7,0.2,1c0.1,0.3,0.1,0.7,0.2,1.1c-1.9,0.4-3.8,0.6-5.6-0.5c-1.3-0.8-1.6-2.1-1.6-3.6
			c0-3.8,0-7.5,0-11.3c0-0.2,0-0.5,0-0.8c-1,0-1.8,0-2.8,0C66,23.7,66,23,66,22.3z"/>
		<path d="M174.9,26.2c-0.6-0.4-1.2-0.8-1.8-1.1c-1.3-0.7-2.6-1-4.1-1c-2.1,0.1-3.6,1.1-4.5,3c-1.3,2.8-1.3,5.6,0,8.4
			c1,2.3,3.4,3.4,6,3c1.7-0.2,3.1-0.9,4.5-2.1c0.1,0.8,0.2,1.4,0.3,2.1c0,0.1-0.1,0.3-0.2,0.4c-3.1,2.4-9.2,3.1-12.3-1.2
			c-1.5-2.1-1.9-4.4-1.8-6.9c0.1-1.2,0.3-2.4,0.7-3.6c1.1-3.3,3.9-5.2,7.4-5.3c2,0,3.9,0.4,5.7,1.5c0.3,0.2,0.4,0.4,0.3,0.8
			C175.1,24.9,175.1,25.6,174.9,26.2z"/>
		<path d="M110.5,26.1c-1.1-0.5-2.1-1.2-3.2-1.6c-1.9-0.7-3.9-0.7-5.6,0.6c-0.9,0.7-1.5,1.6-1.9,2.7c-0.7,2.2-0.8,4.5-0.1,6.7
			c0.9,2.9,3.4,4.4,6.4,4c1.5-0.2,2.9-0.8,4.1-1.7c0.1-0.1,0.3-0.2,0.5-0.3c0.1,0.7,0.2,1.3,0.3,2c0,0.1-0.1,0.3-0.2,0.4
			c-2.9,2.3-8.1,2.7-11.1,0c-1.4-1.3-2.3-2.9-2.7-4.8c-0.5-2.4-0.4-4.9,0.5-7.2c1.3-3.2,4.3-5.1,7.8-5c1.8,0.1,3.5,0.6,5.1,1.5
			c0.3,0.2,0.4,0.4,0.4,0.8C110.7,24.9,110.6,25.5,110.5,26.1z"/>
		<path d="M156.3,40.4c-0.8,0-1.6,0-2.4,0c0-6,0-12,0-18c0.8,0,1.5,0,2.4,0C156.3,28.4,156.3,34.4,156.3,40.4z"/>
		<path d="M155.1,18c-1,0-1.8-0.8-1.8-1.8c0-1,0.9-1.8,1.9-1.8c1,0,1.8,0.8,1.8,1.8C156.9,17.2,156.1,18,155.1,18z"/>
		<path d="M20.2,30.9c0,1.4,0,2.7,0,4c0,0.2-0.1,0.4-0.3,0.6c-1.4,1.3-3,2.2-4.9,2.4c-1.9,0.2-3.3-0.9-3.2-2.6
			c0.1-1,0.5-1.8,1.3-2.4c1.4-1,3-1.3,4.6-1.6C18.6,31.1,19.4,31,20.2,30.9z"/>
	</g>
</g>
</svg>
