<?xml version="1.0" encoding="utf-8"?>
<!-- Generator: Adobe Illustrator 24.0.3, SVG Export Plug-In . SVG Version: 6.00 Build 0)  -->
<svg version="1.1" id="Layer_1" xmlns="http://www.w3.org/2000/svg" xmlns:xlink="http://www.w3.org/1999/xlink" x="0px" y="0px"
	 viewBox="0 0 1147.3 368.6" style="enable-background:new 0 0 1147.3 368.6;" xml:space="preserve">
<g>
	<path d="M1014.6,169.7h40.9c1.6,5.2,7,10.3,17.1,10.3c13.7,0,18.4-8.5,18.4-21.1v-9h-0.9c-6.7,7.9-15.7,13.7-29,13.7
		c-26.1,0-48.8-19.3-48.8-57.1c0-34.6,18.7-61.6,46.8-61.6c16.2,0,26.1,6.5,32.6,16.9h0.7V48.6h40.5v104.8
		c0,19.3-6.7,34.4-16.9,43.4c-10.6,9.4-25.6,13.3-42.7,13.3C1041.1,210,1018.7,196.7,1014.6,169.7 M1092.9,104.5
		c0-15.1-7.2-27.2-19.6-27.2c-11.9,0-19.6,10.8-19.6,27.2c0,16.2,7.6,27.9,19.6,27.9C1085.7,132.4,1092.9,120.5,1092.9,104.5
		 M967.2,69.2h0.7c8.8-16.9,20.2-23.2,34.8-23.2c3.4,0,5.6,0.5,7,1.1v37.1h-0.9c-25-4.5-39.6,7.4-39.6,34.6v50.6h-42.5v-121h40.5
		C967.2,48.6,967.2,69.2,967.2,69.2z M0.3,0h83.2c15.7,0,27.9,3.8,36.4,10.8c9.7,7.9,14.8,19.6,14.8,33.5c0,16.2-6.5,26.3-20,32.6
		v0.7c17.5,5.8,27.6,21.6,27.6,40.7c0,18.2-7,32.4-18.4,40.9c-9.7,7-22.2,10.3-38.9,10.3H0.3V0z M79.5,132
		c10.1,0,17.5-6.1,17.5-17.3c0-11.7-8.1-17.3-17.8-17.3H46.4V132H79.5z M75.2,66.3c9,0,15.5-4.9,15.5-14.8c0-9.7-6.7-14.4-15.7-14.4
		H46.4v29.2L75.2,66.3L75.2,66.3z"/>
</g>
<path d="M150.1,0h43.6v169.5h-43.6V0z M202,109.3c0-38.2,24.7-64.1,62.9-64.1c38.2,0,62.5,25.9,62.5,64.1
	c0,38.4-24.3,64.1-62.5,64.1C226.8,173.3,202,147.7,202,109.3 M284.3,109.3c0-21.1-6.7-34.4-19.8-34.4c-13,0-19.3,13.3-19.3,34.4
	c0,21.4,6.3,34.6,19.3,34.6C277.6,143.9,284.3,130.6,284.3,109.3 M332.4,109.3c0-38.2,24.7-64.1,62.9-64.1
	c38.2,0,62.5,25.9,62.5,64.1c0,38.4-24.3,64.1-62.5,64.1C357.2,173.3,332.4,147.7,332.4,109.3 M414.7,109.3
	c0-21.1-6.7-34.4-19.8-34.4c-13,0-19.3,13.3-19.3,34.4c0,21.4,6.3,34.6,19.3,34.6C408,143.9,414.7,130.6,414.7,109.3 M466.2,48.6
	h40.5v18.2h0.7c8.1-14.2,19.1-21.8,36.4-21.8c15.3,0,26.8,7.6,32.6,20.9h0.7c9.9-16,22.7-20.9,37.5-20.9c28.1,0,40.2,20.7,40.2,48.6
	v76h-42.5v-68.3c0-12.4-3.8-20.5-14.6-20.5c-10.6,0-16,9.9-16,22.9v65.9h-42.5v-68.3c0-12.4-3.8-20.5-14.6-20.5
	c-10.6,0-16,9.9-16,22.9v65.9h-42.5V48.6z M706.8,153.8h-0.4v15.7h-40.5V0h42.5v61.2h0.7c8.1-10.6,18.9-16.2,34.4-16.2
	c30.4,0,47.9,27.4,47.9,63.9c0,41.1-19.1,64.7-50.6,64.7C727.7,173.6,714.2,167.3,706.8,153.8 M748.2,108.4c0-19.6-7.2-32.2-20-32.2
	c-13,0-21.4,12.6-21.4,32.2c0,19.3,8.3,32.1,21.4,32.1C741.2,140.5,748.2,127.9,748.2,108.4 M796.7,108.8c0-37.8,25-64.1,61.2-64.1
	c18,0,31.9,5.6,42.5,15.7c13.9,13.5,20.2,34.6,19.8,59.6H839c1.8,15.1,9,22.7,21.8,22.7c7.4,0,13.9-3.4,16.6-11.5h40.9
	c-7.2,27.6-28.5,41.6-58.9,41.6C821.9,172.9,796.7,147.5,796.7,108.8 M839,96.2h38.7C877,81.6,868.9,74,858.8,74
	C847.1,74,840.6,82.3,839,96.2"/>
<path d="M0.3,181.6h83.2c15.7,0,27.9,3.8,36.4,10.8c9.7,7.9,14.8,19.6,14.8,33.5c0,16.2-6.5,26.3-20,32.6v0.7
	c17.5,5.8,27.6,21.6,27.6,40.7c0,18.2-7,32.4-18.4,40.9c-9.7,7-22.2,10.3-38.9,10.3H0.3V181.6z M79.5,313.6
	c10.1,0,17.5-6.1,17.5-17.3c0-11.7-8.1-17.3-17.8-17.3H46.4v34.6H79.5z M75.2,248c9,0,15.5-5,15.5-14.8c0-9.7-6.7-14.4-15.7-14.4
	H46.4V248H75.2L75.2,248z M226.5,351.2v-15.7h-0.7c-8.8,12.6-20,19.6-35.7,19.6c-27.4,0-40.9-18.9-40.9-46.8v-78h42.5v68.6
	c0,13.7,5.2,19.1,15.3,19.1c11,0,17.5-7.4,17.5-21.4v-66.3H267v121L226.5,351.2L226.5,351.2z M273.7,312.9h39.4
	c0.7,9.9,6.5,15.7,17.3,15.7c8.3,0,14.6-2.5,14.6-10.8c0-9.9-13.3-10.6-28.1-13c-19.3-2.9-41.6-9.2-41.6-39.6
	c0-24.7,24.1-38.7,52.2-38.7c34.8,0,53.1,13.7,54.6,37.3h-40c-1.1-9-7.4-11.5-14.4-11.5c-6.3,0-12.1,2.5-12.1,9.4
	c0,6.8,10.6,8.6,23.6,10.3c20.9,3.2,47.4,8.1,47.4,41.6c0,29-25,41.4-56.4,41.4C296.2,355.2,274,340.6,273.7,312.9 M393.6,230.2
	h42.5v121h-42.5V230.2L393.6,230.2z M393.6,186.6h42.5v33.9h-42.5V186.6z"/>
<g>
	<path d="M488.5,246.8h0.7c9.2-13.3,20.9-20.2,36.9-20.2c26.5,0,40.2,18.7,40.2,46.3v78.2h-42.5v-68.3c0-13.5-4.9-20.9-16-20.9
		c-10.8,0-17.3,9-17.3,22.9v66.3H448v-121h40.5L488.5,246.8L488.5,246.8z M573.7,290.5c0-37.8,25-64.1,61.2-64.1
		c18,0,31.9,5.6,42.5,15.7c13.9,13.5,20.2,34.6,19.8,59.6H616c1.8,15.1,9,22.7,21.8,22.7c7.4,0,13.9-3.4,16.6-11.5h40.9
		c-7.2,27.7-28.6,41.6-58.9,41.6C598.9,354.5,573.7,329.1,573.7,290.5 M616,277.9h38.7c-0.7-14.6-8.8-22.3-18.9-22.3
		C624.1,255.6,617.5,263.9,616,277.9 M701.4,312.9h39.3c0.7,9.9,6.5,15.7,17.3,15.7c8.3,0,14.6-2.5,14.6-10.8
		c0-9.9-13.3-10.6-28.1-13c-19.3-2.9-41.6-9.2-41.6-39.6c0-24.7,24.1-38.7,52.2-38.7c34.8,0,53.1,13.7,54.6,37.3h-40
		c-1.1-9-7.4-11.5-14.4-11.5c-6.3,0-12.1,2.5-12.1,9.4c0,6.8,10.6,8.6,23.6,10.3c20.9,3.2,47.4,8.1,47.4,41.6
		c0,29-25,41.4-56.4,41.4C723.9,355.2,701.6,340.6,701.4,312.9 M818.8,312.9h39.3c0.7,9.9,6.5,15.7,17.3,15.7
		c8.3,0,14.6-2.5,14.6-10.8c0-9.9-13.3-10.6-28.1-13c-19.3-2.9-41.6-9.2-41.6-39.6c0-24.7,24.1-38.7,52.2-38.7
		c34.8,0,53.1,13.7,54.6,37.3h-40c-1.1-9-7.4-11.5-14.4-11.5c-6.3,0-12.1,2.5-12.1,9.4c0,6.8,10.6,8.6,23.6,10.3
		c20.9,3.2,47.4,8.1,47.4,41.6c0,29-25,41.4-56.4,41.4C841.2,355.2,819,340.6,818.8,312.9"/>
</g>
</svg>
