<?xml version="1.0" encoding="utf-8"?>
<!-- Generator: Adobe Illustrator 26.0.1, SVG Export Plug-In . SVG Version: 6.00 Build 0)  -->
<!DOCTYPE svg PUBLIC "-//W3C//DTD SVG 1.1//EN" "http://www.w3.org/Graphics/SVG/1.1/DTD/svg11.dtd" [
	<!ENTITY ns_extend "http://ns.adobe.com/Extensibility/1.0/">
	<!ENTITY ns_ai "http://ns.adobe.com/AdobeIllustrator/10.0/">
	<!ENTITY ns_graphs "http://ns.adobe.com/Graphs/1.0/">
	<!ENTITY ns_vars "http://ns.adobe.com/Variables/1.0/">
	<!ENTITY ns_imrep "http://ns.adobe.com/ImageReplacement/1.0/">
	<!ENTITY ns_sfw "http://ns.adobe.com/SaveForWeb/1.0/">
	<!ENTITY ns_custom "http://ns.adobe.com/GenericCustomNamespace/1.0/">
	<!ENTITY ns_adobe_xpath "http://ns.adobe.com/XPath/1.0/">
]>
<svg version="1.1" id="Layer_1" xmlns:x="&ns_extend;" xmlns:i="&ns_ai;" xmlns:graph="&ns_graphs;"
	 xmlns="http://www.w3.org/2000/svg" xmlns:xlink="http://www.w3.org/1999/xlink" x="0px" y="0px" viewBox="0 0 166 165"
	 style="enable-background:new 0 0 166 165;" xml:space="preserve">
<style type="text/css">
	.st0{fill:#FFFFFF;}
</style>
<metadata>
	<sfw  xmlns="&ns_sfw;">
		<slices></slices>
		<sliceSourceBounds  bottomLeftOrigin="true" height="164" width="164" x="1" y="0"></sliceSourceBounds>
	</sfw>
</metadata>
<g id="GDeGmg.tif_1_">
	<g>
		<path class="st0" d="M1,87c0-2.7,0-5.3,0-7.7c0-0.5,0.2-1.2,0.2-1.7c0.5-2.9,0.5-6,1.2-8.9c3.9-20.7,14-37.6,30.8-50.6
			C44.6,9.2,57.6,3.9,71.8,2c2.4-0.2,6.5-1,8.9-1c6,0,7.2,0.2,7.7,0.2c2.9,0.5,6,0.5,8.9,1.2c20.7,3.9,37.8,14.2,50.6,31.1
			c14.5,19,19.8,40.5,15.7,63.8c-3.6,20-13.3,36.4-29.2,49.2C115.2,161.9,93,168,68.7,163.6C48,160,31.1,149.7,18.1,133
			C9.7,122.2,4.4,109.9,2.2,96.4C1.7,93.3,1.2,90.1,1,87z M91.6,103.9c0-1,0-1.4,0-2.2c0-9.2,0-18.3,0-27.5c0-1.4,0-2.9-0.2-4.3
			c-1-7.5-7.7-10.8-14.2-7c-1.4,0.7-2.7,1.9-4.1,2.9c0-1.2,0-2.4,0-3.6c-3.9,0-7.5,0-11.3,0c0,2.2,0,3.9,0,6c1.4,0,2.7,0.2,4.1,0.2
			c0,11.8,0,23.4,0,35.2c-1.2,0-2.2,0-3.4,0.2c0,2.2,0,3.9,0,6c3.4,0,6.5,0,9.9,0c1.7,0,1.9-0.5,1.9-2.2c0-11.6,0-23.4,0-34.9
			c0-3.4,1.4-5.1,4.6-5.1s4.3,1.4,4.3,5.1c0,11.3,0,22.4,0,33.7c0,3.4,0,3.4,3.4,3.4c3.1,0,6.5,0,9.9,0c0-2.2,0-4.1,0-6.3
			C94.7,103.9,93.3,103.9,91.6,103.9z M116.9,93.8c0,1.2,0,2.2,0,2.9c0,1,0,1.9,0,2.9c-0.2,2.9-2.2,4.6-5.3,4.3
			c-2.9-0.2-4.6-1.7-4.8-4.8c0-3.4,0-6.5,0-9.9c0-1.4,0.2-1.9,1.9-1.9c4.6,0,9.4,0,14,0c1.9,0,2.4-0.5,2.4-2.2c0-4.3,0-8.9,0-13.3
			c0-3.1-1.2-6-3.9-8c-3.9-2.9-8.2-3.6-12.8-2.7c-6.3,1.4-9.6,5.5-9.6,11.8c0,8.7,0,17.3,0,26c0,2.2,0.5,4.3,1.9,6.3
			c3.1,4.1,7.5,5.3,12.3,5.3c4.6-0.2,8.7-1.7,11.1-6c2.2-3.6,1-7.5,1.2-11.6C122.2,93.8,119.5,93.8,116.9,93.8z M38.6,93.8
			c0,1.9,0,3.9,0,5.5c0,2.9-1.9,4.8-5.1,4.8c-2.9,0-4.8-1.9-4.8-4.8c0-8.7,0-17.3,0-26c0-2.9,1.9-4.8,5.1-4.8c2.9,0,4.8,1.7,4.8,4.8
			c0,1.4,0,2.9,0,4.6c2.9,0,5.3,0,8.2,0c0-2.2,0-4.1,0-6.3c0-3.1-1.4-5.8-3.9-7.5c-3.9-2.9-8.2-3.4-12.5-2.7
			c-6.3,1.2-9.9,5.5-9.9,11.8c0,8.4,0,17.1,0,25.5c0,2.4,0.5,4.8,1.9,7c2.7,3.6,6.3,4.8,10.6,5.3c10.1,0.7,16.9-7.7,13.7-17.3
			C44.1,93.8,41.5,93.8,38.6,93.8z M148.2,103.6c-1.4,0-2.9,0-4.3,0c-3.6,0-4.6-1.2-4.6-4.8c0-9.6,0-19.3,0-28.9c0-0.5,0-1,0-1.7
			c2.2,0,4.3,0,6.3,0c0.5,0,1.2-0.5,1.2-0.7c0-1.7,0-3.4,0-5.1c-2.7,0-5.1,0-7.5,0c0-0.7,0-1.2,0-1.7c0-2.9,0-5.8,0-8.9
			c0-1.4-0.2-2.2-1.9-1.9c-1.4,0.2-2.9,0-4.6,0c-2.2,0-2.2,0-2.2,2.2c0,14.9,0,30.1,0,45.1c0,1.4,0,2.9,0.2,4.1
			c0.5,3.1,1.7,6.3,4.8,7.7c3.9,1.7,8,1,12,1C148.2,107.7,148.2,105.8,148.2,103.6z M57.6,132.1c0-31.1,0-62.2,0-93.2
			c-1.9,0-3.9,0-5.8,0c0,31.1,0,62.2,0,93.2C53.8,132.1,55.7,132.1,57.6,132.1z"/>
		<path class="st0" d="M107,81c3.1,0,6.5,0,9.6,0c0-3.1,0.2-6,0-8.9c-0.2-2.4-2.4-3.9-5.1-3.6c-2.4,0-4.6,1.4-4.6,3.6
			C106.8,75,107,77.9,107,81z"/>
		<path class="st0" d="M107,81c0-3.1,0-6,0-9.2c0-1.9,2.2-3.6,4.6-3.6c2.7,0,4.8,1.4,5.1,3.6c0.2,2.9,0,6,0,8.9
			C113.3,81,110.1,81,107,81z"/>
	</g>
</g>
</svg>
