<?xml version="1.0" encoding="utf-8"?>
<!-- Generator: Adobe Illustrator 24.0.3, SVG Export Plug-In . SVG Version: 6.00 Build 0)  -->
<svg version="1.1" id="Layer_1" xmlns="http://www.w3.org/2000/svg" xmlns:xlink="http://www.w3.org/1999/xlink" x="0px" y="0px"
	 viewBox="0 0 64 30.1" style="enable-background:new 0 0 64 30.1;" xml:space="preserve">
<g id="_x35_2Qx5C.tif_1_">
	<g>
		<path d="M60.1,0.3c1.2,0,2.3,0,3.5,0c0,8.1,0,16.2,0,24.3c0,0.1-0.1,0.1-0.1,0.2c-0.4,2.2-1.6,3.7-3.6,4.5c-0.5,0.2-1,0.3-1.5,0.4
			c-0.3,0-0.7,0-1,0c0,0-0.1-0.1-0.1-0.1c-2-0.3-3.5-1.4-4.5-3.1c-1.9-3.3-3.8-6.6-5.7-9.9c-0.1-0.1-0.1-0.2-0.2-0.3
			c0,0-0.1,0-0.1,0c0,0.1,0,0.3,0,0.4c0,2.4,0,4.7,0,7.1c0,2.8-1.7,5-4.3,5.7c-0.3,0.1-0.6,0.1-0.9,0.2c-0.3,0-0.7,0-1,0
			c0,0-0.1-0.1-0.1-0.1c-2.1-0.3-3.5-1.4-4.5-3.2c-1.9-3.3-3.8-6.6-5.7-9.9c-0.1-0.1-0.1-0.2-0.2-0.3c-0.1,0.2-0.1,0.3-0.1,0.5
			c0,2.5,0,4.9,0,7.4c0,2.6-1.7,4.8-4.2,5.5c-0.3,0.1-0.6,0.1-0.9,0.2c-3.5,0-7,0-10.5,0c-0.5-0.1-1.1-0.1-1.6-0.2
			C6.8,28.5,2,23.9,0.8,18c-0.1-0.7-0.3-1.3-0.3-2c0-0.6,0-1.2,0-1.8c0-0.5,0.1-1.1,0.2-1.6c1-5.9,5.7-10.7,11.5-11.8
			c0.7-0.1,1.4-0.3,2.1-0.3c1.9-0.1,3.9,0,5.8,0c0,1.2,0,2.3,0,3.5c-1.6,0-3.1,0-4.6,0c-0.8,0-1.6,0.1-2.4,0.2
			C7,5.1,2.9,11.4,4.3,17.4c1.2,5.3,5.6,8.8,11.1,8.8c2.9,0,5.7,0,8.6,0c1.6,0,2.5-0.9,2.5-2.5c0-5.8,0-11.6,0-17.3
			c0-0.1,0-0.3,0-0.4c0-0.3,0.2-0.6,0.6-0.7c0.3-0.1,0.6,0,0.8,0.3C28,5.7,28,5.8,28.1,5.9c3.6,6.2,7.1,12.4,10.7,18.6
			c0.2,0.3,0.3,0.6,0.5,0.8c0.7,1,2.2,1.2,3.2,0.4c0.6-0.5,0.9-1.2,0.9-2c0-5.8,0-11.6,0-17.3c0-0.1,0-0.3,0-0.4
			c0-0.4,0.2-0.6,0.6-0.7c0.4-0.1,0.7,0.1,0.9,0.4C44.8,5.8,44.9,5.9,45,6c3.3,5.8,6.6,11.6,9.9,17.4c0.4,0.7,0.7,1.3,1.2,2
			c0.8,1.2,2.5,1.2,3.4,0.2c0.5-0.5,0.6-1.1,0.6-1.8c0-7.6,0-15.2,0-22.8C60.1,0.7,60.1,0.5,60.1,0.3z"/>
		<path d="M43.6,0.3c0.3,0,0.7,0,1,0c0,0,0.1,0.1,0.1,0.1c2.1,0.3,3.5,1.4,4.5,3.2c1.9,3.3,3.7,6.6,5.6,9.8c0.1,0.1,0.2,0.3,0.3,0.5
			c0-0.2,0-0.4,0-0.5c0-4.2,0-8.5,0-12.7c0-0.1,0-0.2,0-0.4c1.2,0,2.4,0,3.5,0c0,0.2,0,0.3,0,0.5c0,7.6,0,15.2,0,22.8
			c0,0.7-0.2,1-0.6,1.2c-0.4,0.1-0.7-0.1-1.1-0.7c-2.9-5.1-5.9-10.3-8.8-15.4c-0.7-1.2-1.4-2.4-2.1-3.6c-0.7-1.2-2.1-1.6-3.2-0.8
			c-0.8,0.5-1,1.3-1,2.1c0,5.8,0,11.5,0,17.3c0,0.2,0,0.4,0,0.5c-0.1,0.2-0.3,0.5-0.5,0.6c-0.2,0.1-0.6,0-0.8-0.1
			c-0.2-0.1-0.3-0.3-0.3-0.5c-3.4-5.9-6.7-11.8-10.1-17.7c-0.3-0.6-0.6-1.2-1-1.7c-0.5-0.7-1.2-1-2.1-0.9c-1.2,0.1-2,1.1-2,2.4
			c0,5.8,0,11.7,0,17.5c0,0.8-0.3,1.1-1.1,1.1c-2.9,0-5.8,0-8.6,0c-0.5,0-0.9,0-1.4-0.1C8.2,23.9,4.5,18.7,5.7,13
			c0.8-4.2,4.5-7.4,8.7-7.7c1.9-0.1,3.8,0,5.6-0.1c0,0,0.1,0,0.1,0c0,1.1,0,2.3,0,3.4c-0.2,0-0.3,0-0.5,0c-1.4,0-2.9,0-4.3,0
			c-0.4,0-0.7,0-1.1,0.1c-3.3,0.6-5.5,3.3-5.3,6.7c0.2,2.9,2.7,5.6,5.6,5.8c2.1,0.1,4.1,0,6.2,0c0.5,0,0.8-0.3,0.8-0.8
			c0-0.2,0-0.3,0-0.5c0-4.8,0-9.5,0-14.3c0-2.6,1.9-4.8,4.4-5.3c0.2,0,0.5-0.1,0.7-0.2c0.4,0,0.7,0,1.1,0c0,0,0.1,0.1,0.1,0.1
			c2.1,0.3,3.6,1.4,4.6,3.3c1.8,3.3,3.7,6.5,5.6,9.8c0.1,0.1,0.1,0.2,0.2,0.3c0,0,0,0,0.1,0c0-0.1,0-0.3,0-0.4c0-2.4,0-4.9,0-7.3
			c0-2.4,1.2-4.2,3.3-5.2C42.3,0.6,42.9,0.5,43.6,0.3z"/>
	</g>
</g>
</svg>
