<?xml version="1.0" encoding="utf-8"?>
<!-- Generator: Adobe Illustrator 24.0.3, SVG Export Plug-In . SVG Version: 6.00 Build 0)  -->
<svg version="1.1" id="Layer_1" xmlns="http://www.w3.org/2000/svg" xmlns:xlink="http://www.w3.org/1999/xlink" x="0px" y="0px"
	 viewBox="0 0 94.6 21.7" style="enable-background:new 0 0 94.6 21.7;" xml:space="preserve">
<g>
	<path d="M8.5,6h0.2V4H0.6v0.2c1.1,0.6,1.1,0.9,1.1,1.7v10c0,0.8-0.2,1.1-1.1,1.8v0.2h4.1v-0.2c-0.8-0.8-0.9-1.1-0.9-1.8V11h0.9
		c1.1,0,1.4,0,2.3,1.4h0.2V9H7c-0.9,1.4-1.2,1.4-2.3,1.4H3.8V4.4h1.4C5.6,4.4,6.1,4.6,8.5,6L8.5,6z M11.7,11.9H9l1.2-4.1
		c0,0.2,0.2,0.3,0.2,0.5L11.7,11.9z M13.9,13.1l-2.4-6.7H9.3v0.2C9.6,6.9,9.7,7,9.9,7.3l-1.7,5.5c-0.5,0.9-0.6,1.2-1.4,2v0.2h2.6
		v-0.2c-0.8-0.3-1.1-0.6-1.1-1.1c0-0.2,0-0.5,0.2-0.9l0.3-0.5h3l0.3,0.8c0.2,0.5,0.2,0.8,0.2,0.9c0,0.3-0.2,0.5-0.8,0.8v0.2h3.5
		v-0.2C14.3,14.2,14.2,13.9,13.9,13.1L13.9,13.1z M19.2,6h0.2V4c-0.8-0.2-1.7-0.3-2.4-0.3c-2.3,0-3.5,1.5-3.5,3.2c0,2,1.2,3,2.7,4.4
		c1.7,1.4,2.7,2.3,2.7,4c0,1.4-0.9,2.1-2.1,2.1c-1.1,0-1.8-0.5-4.1-2.1h0l0.8,2.3c0.9,0.3,2,0.5,3,0.5c2.6,0,4.1-1.7,4.1-3.8
		c0-2-1.2-3-2.9-4.6c-1.5-1.2-2.6-2.3-2.6-3.8c0-0.9,0.6-1.7,1.7-1.7C17.4,4.3,17.8,4.6,19.2,6L19.2,6z M29.4,6h0.2V4h-9.4v2.1h0.2
		c2.3-1.4,2.7-1.7,3.2-1.7h0.3v11.4c0,0.8-0.2,1.1-1.1,1.8v0.2h4.3v-0.2c-0.9-0.8-1.1-1.1-1.1-1.8V4.4h0.3C26.6,4.4,27.1,4.6,29.4,6
		L29.4,6z M41.4,5.7h0.2V3.8c-0.9-0.2-2.1-0.3-3.2-0.3c-4.9,0-7.8,2.7-7.8,7.3c0,4.4,2.7,7.1,7.6,7.1c1.2,0,2.4-0.2,3.3-0.5l0.3-2
		h-0.2c-1.8,1.5-2.6,1.8-4,1.8c-3.6,0-4.9-2.7-4.9-6.8s1.2-6.7,4.7-6.7C38.6,4.1,39.4,4.4,41.4,5.7L41.4,5.7z M40.9,10.8
		c0,2.3-0.2,3.8-1.8,3.8c-1.7,0-1.8-1.5-1.8-3.8S37.4,7,39.1,7C40.8,7,40.9,8.6,40.9,10.8z M42.9,10.8c0-2.4-1.4-4.3-3.8-4.3
		s-3.8,1.8-3.8,4.3s1.4,4.3,3.8,4.3C41.5,14.9,42.9,13.1,42.9,10.8z M51.4,17.8h4.1v-0.2c-0.9-0.8-1.1-0.9-1.1-1.8v-10
		c0-0.8,0.2-1.1,1.1-1.8l0,0h-2.9l-3.2,10.2L46.1,4h-2.9v0.2c0.6,0.5,0.9,0.8,1.2,1.1v9.7c0,1.1-0.2,1.5-1.2,2.7v0.2h3.3v-0.2
		C45.2,16.5,45,16,45,14.9V6.3v0.2l3.6,11.4l0,0l3.6-11.7v9.7C52.5,16.6,52.3,16.9,51.4,17.8C51.4,17.7,51.4,17.8,51.4,17.8z
		 M63.3,8.2c0,2.6-0.6,3.6-2.6,3.6h-1.1V4.4h0.8C62.5,4.4,63.3,5.4,63.3,8.2z M65.4,8.1c0-3.2-2.1-4.1-5.2-4.1h-3.8v0.2
		c0.9,0.8,1.1,0.9,1.1,1.8v10c0,0.8-0.2,1.1-1.1,1.8V18h4.1v-0.3c-0.9-0.8-1.1-0.9-1.1-1.8v-3.5h1.1C63.3,12.4,65.4,11.3,65.4,8.1z
		 M70.4,12.7h-4l2-6.8c0,0.2,0.2,0.3,0.2,0.5L70.4,12.7L70.4,12.7z M93.8,4.1L93.8,4.1L90.7,4v0.2c0.9,0.8,1.1,1.1,1.1,1.7
		c0,0.3,0,0.5-0.3,1.1L89.7,11l-2.3-5.2c-0.2-0.5-0.3-0.6-0.3-0.8c0-0.3,0.2-0.6,0.8-0.9V4h-7v0.2c1.5,1.2,1.8,1.7,1.8,2.9v7.9L77,4
		h-2.9v0.2c0.6,0.5,0.9,0.9,1.2,1.2v9.6c0,1.1-0.2,1.5-0.9,2.7c-0.6-0.8-0.8-1.2-1.1-2.3L70.1,4h-2.7v0.2c0.5,0.5,0.8,0.6,0.9,0.9
		l-2.9,9.7c-0.5,1.4-0.8,1.8-1.7,2.9v0.2h3.3v-0.2c-0.9-0.8-1.2-1.1-1.2-1.7c0-0.3,0-0.6,0.2-1.1l0.5-1.5h4.3l0.6,2.1
		c0.2,0.5,0.2,0.8,0.2,0.9c0,0.3-0.2,0.6-0.9,1.2v0.2h7v-0.2c-1.5-1.2-1.8-1.7-1.8-2.7V6.1l0,0l6.1,11.6h1.2V6.9
		c0-1.2,0.2-1.7,0.9-2.9c0.8,0.8,1.1,1.2,1.5,2.3l2.4,5.5V16c0,0.8-0.2,1.1-1.1,1.8V18h4.3v-0.3c-0.9-0.8-1.1-0.9-1.1-1.8v-4.3
		l2.1-4.9C92.5,5.8,92.8,5.4,93.8,4.1L93.8,4.1z"/>
</g>
</svg>
