<?xml version="1.0" encoding="utf-8"?>
<!-- Generator: Adobe Illustrator 25.3.1, SVG Export Plug-In . SVG Version: 6.00 Build 0)  -->
<svg version="1.1" id="Layer_1" xmlns="http://www.w3.org/2000/svg" xmlns:xlink="http://www.w3.org/1999/xlink" x="0px" y="0px"
	 viewBox="0 0 250 65" style="enable-background:new 0 0 250 65;" xml:space="preserve">
<style type="text/css">
	.st0{fill:#FFFFFF;}
</style>
<g>
	<path class="st0" d="M142.3,0.5c0,6.4,0,13.4,0,20.3c0,0,0.6,0,0.6-0.6c5.1-2.4,9.7-3,14.8-0.6c4.5,1.8,7.5,5.7,9.1,10.3
		c2.4,7.5,1.8,15.1-1.8,23c-3,5.1-7.5,8.1-14.2,9.7c-4.5,0.6-9.1,0.6-13.4,0c-2.4-0.6-5.1-0.6-8.1-1.3c0-1.8,0-3,0-5.1
		c0-4,0-7.5,0-12.1c0-6.4,0-12.7,0-19.1c0-4.5,0-9.1-0.6-13.4c0-1.3-0.6-2.4-0.6-3c-0.6-1.8-1.8-1.8-4-2.4c-1.3,0-1.3,0-1.3-1.3
		l0.6-0.6C130.5,2.9,136.2,1.8,142.3,0.5L142.3,0.5z M142.3,39.6L142.3,39.6c0,4,0,7.5,0,11.5c0,2.4,0,5.1,0,7.5
		c0,0.6,0.6,1.3,0.6,1.3c1.8,0.6,4,0.6,5.7-0.6c2.4-1.3,4-4,4.5-5.7c2.4-7,3-14.2,1.3-21.2c-0.6-1.3-1.3-3-1.8-4.5
		c-2.4-4-5.7-5.1-10.3-4l-0.6,0.6C142.3,29.2,142.3,34.5,142.3,39.6z"/>
	<path class="st0" d="M43.9,42L43.9,42c-2.4,0.6-2.4,0.6-3-1.3c0-1.8-0.6-4-1.8-5.1c-1.3-0.6-1.8-1.3-4-1.8c-1.8,0-4.5,0-6.4-0.6
		h-0.9c0,1.8,0,3,0,5.1c0,4.5,0,8.1,0.6,12.7c0,1.8,0.6,3,0.6,4.5c0.6,1.8,2.4,3,4.5,4c1.3,0,1.8,0.6,3,0.6l0,0
		c0,2.4,0.6,1.8-1.8,1.8c-9.7,0-18.5,0-28.2,0c-1.3,0-1.8-0.6-1.3-1.8l0.6-0.9c0.6,0,1.8-0.6,2.4-0.6c1.8,0,3-1.3,4-3
		c0.6-1.3,1.3-3,1.3-4.5c0.6-9.7,0.6-19.6,0.6-29.3c0-3,0-6.4-0.6-9.1c0-1.3-0.6-3-1.3-4.5c0-1.8-1.8-3-4-4c-0.6,0-1.3,0-1.8,0
		s-0.6,0-0.6-0.6s0-1.3,0-1.8c15.8,0,32.4,0,48.4,0c0,1.3,0,3,0,4.5c0,4,0,7.5,0,11.5c0,0.6,0,1.3-0.6,1.3c-1.8,0.6-1.8,0.6-2.4-1.3
		c-1.3-2.4-2.4-5.1-4.5-7.5c-1.8-2.4-4.5-4-8.1-4c-3,0-7,0-10.3,0c-0.6,7.8-0.6,16.1-0.6,24.2c1.3,0,1.8,0,2.4,0c1.3,0,3,0,4.5,0
		c1.8,0,4-1.3,4.5-3c0.6-1.3,1.3-3,1.8-4.5c0-0.6,0.6-0.6,0.6-0.6c0.6,0,1.3,0,1.8,0C43.9,28.7,43.9,35.6,43.9,42z"/>
	<path class="st0" d="M49,40.8c0-5.7,1.3-10.9,5.1-15.1c3-4,7.5-6.4,12.7-7c4-0.6,7.5-0.6,11.5,0.6c5.7,1.8,9.7,5.7,11.5,11.5
		c2.4,7.5,2.4,14.8-0.6,21.8c-3,6.4-8.1,10.4-15.7,10.9c-4,0.6-7.5,0-11.5-1.3c-5.7-1.8-9.7-6.4-11.5-12.1c-0.6-1.3-0.6-2.4-1.3-4
		C49,44.4,49,42.6,49,40.8z M61.8,40.2c0,1.8,0,3,0,5.1c0,1.8,0.6,3,0.6,5.1c0.6,2.4,1.3,5.1,3,7.5c1.7,2.4,5.7,3,8.1,1.3
		c0.6-0.6,1.8-1.8,1.8-3c1.3-3,1.8-6.4,1.8-9.7c0.6-4.5,0.6-9.7-0.6-14.2c-0.6-3-1.3-6.4-3-9.1c-2.4-4-7.5-4-9.7,0.6
		c-0.6,0.6-1.3,1.8-1.3,4C61.8,31.7,61.8,35.6,61.8,40.2z"/>
	<path class="st0" d="M210.4,39c-0.6,0-0.6,0-1.3,0c-7.5,0-15.1,0-23.6,0c-1.3,0-1.3,0-1.3,1.3c0,4,0.6,7.5,2.4,10.9
		c2.4,4,5.7,5.7,10.9,6.4c4,0,7-0.6,10.3-2.4c0,0,0.6-0.6,0.6,0s1.3,0.6,0.6,1.3c-1.3,1.8-3,3-5.1,4.5c-7.5,4.5-17.8,4-24.2-1.3
		c-4-3-6.4-7.5-7.5-12.7c-0.6-5.1-0.6-10.3,1.3-15.1c4-7.5,9.1-12.1,16.6-12.7c3-0.6,6.4-0.6,9.7,0.6c5.1,1.8,7.5,5.7,9.7,10.3
		c0.6,2.4,1.3,5.1,1.3,8.1C210.4,37.5,210.4,37.5,210.4,39C210.4,38.1,210.4,38.1,210.4,39z M198.3,35.1c0-2.4,0-4.5-0.6-6.4
		c0-1.8-0.6-4.5-1.8-6.4c-1.3-1.8-4-2.4-5.7-1.3c-1.3,1.3-1.8,2.4-2.4,4c-1.8,3-2.4,6.4-2.4,10.3c0,0.6,0,0.6,0.6,0.6
		c1.3,0,2.4,0,4,0C192.6,35.1,195,35.1,198.3,35.1z"/>
	<path class="st0" d="M241.5,31.7c0-0.6-0.6-1.3-0.6-1.8c-0.6-2.4-1.8-4.5-4-6.4c-1.8-1.8-4-2.4-6.4-2.4c-3,0-5.7,3-5.1,6.4
		c0,1.8,1.3,3,2.4,4.5c2.4,1.8,5.1,3,8.1,4c2.4,1.3,5.1,2.4,7.5,4.5c1.8,1.8,2.4,4.5,2.4,7c0,1.8,0,4-0.6,5.7
		c-1.3,4.5-4.5,7-9.1,8.1c-4.5,1.8-8.1,1.8-12.7,1.8c-3,0-6.4-0.6-9.7-1.8c-1.8-0.6-1.8-0.6-1.8-2.4c0-3,0-7,0-10.3
		c0-1.3,0.6-0.6,1.3-1.3c0.6-0.6,0.6,0.6,0.6,0.6c1.3,2.4,2.4,5.1,4.5,7.5c2.4,2.4,5.7,4,9.7,3c3-0.6,4.5-1.8,5.1-4.5
		c0.6-2.4,0-5.1-2.4-6.4c-1.8-1.3-4-1.8-6.4-3c-2.4-1.3-5.1-1.8-7.5-4c-3-2.4-4.5-6.4-4-10.3c0.6-6.4,5.7-11.5,12.1-12.1
		c5.7-1.3,10.9-0.6,15.8,1.3c0.6,0,1.3,0.6,1.3,1.3c0,2.4,0,5.7,0,8.1C243.7,31.7,243.7,31.7,241.5,31.7z"/>
	<path class="st0" d="M109.6,17.8c0,3,0,6.4,0,9.7c0-0.6,0.6-0.6,0.6-0.6c1.3-2.4,3-5.1,5.1-6.4c3-2.4,6.4-3,10.3-1.3
		c0.6,0,1.3,0.6,0.6,1.3c-1.3,3-2.4,6.4-4,10.3c0,0,0,0.6-0.6,0.6s-1.3-0.6-1.3-0.6c-3-1.3-6.4-1.8-9.7-0.6
		c-1.3,0.6-1.8,1.3-1.8,2.4c0,5.1,0,9.7,0,14.8c0,3,0,5.7,0.6,9.1c0.6,2.4,1.3,4,4.5,4c0.6,0,1.3,0,2.4,0c0,0.6,0,1.3,0,1.8
		c-8.1,0-17.2,0-25.5,0l0,0c0-1.8,0-1.8,1.8-2.4c2.4-0.6,3-1.3,4-4c0-1.8,0.6-3,0.6-5.1c0-5.1,0-10.3,0-15.1c0-2.4,0-5.1-0.6-7.5
		c-0.6-3-1.3-4-4.5-4.5c-0.6,0-1.3,0-1.3-0.6c0-0.6,0-1.3,1.3-1.3c5.7-1.3,10.9-2.4,16.6-3C109,17.8,109.6,17.8,109.6,17.8z"/>
</g>
</svg>
