<?xml version="1.0" encoding="utf-8"?>
<!-- Generator: Adobe Illustrator 24.0.3, SVG Export Plug-In . SVG Version: 6.00 Build 0)  -->
<svg version="1.1" id="Layer_1" xmlns="http://www.w3.org/2000/svg" xmlns:xlink="http://www.w3.org/1999/xlink" x="0px" y="0px"
	 viewBox="0 0 104.1 22.8" style="enable-background:new 0 0 104.1 22.8;" xml:space="preserve">
<g id="FbY2kH.tif">
	<g>
		<path d="M79.2,4.2c0.2,0,0.5,0,0.7,0c1,0.2,2,0.5,2.8,1c2,1.2,3.1,3,3.6,5.1c0.3,2.3-0.2,4.3-1.6,6.1c-1.2,1.3-2.8,2.1-4.6,2.5
			c-0.3,0-0.5,0-0.8,0c-1.3,0-2.8,0-4.1,0c-0.3,0-0.8-0.2-1-0.3c-0.3-0.3-0.5-0.7-0.5-1c0-0.2,0-0.3,0-0.5c0-3.6,0-7.2,0-10.9
			c0-0.3,0-0.8,0.2-1.2c0.2-0.5,0.5-0.7,1-0.7c0.2,0,0.3,0,0.5,0C76.5,4.2,77.8,4.2,79.2,4.2z M76.4,15.9L76.4,15.9
			c0.8,0,1.5,0,2.3,0c0.7,0,1.3,0,1.8-0.3c1.8-0.7,3-2.5,2.8-4.4c-0.2-1.2-0.7-2.1-1.5-3c-0.8-0.7-1.6-1-2.6-1s-1.8,0-2.8,0l0,0
			C76.4,10.1,76.4,13.1,76.4,15.9z"/>
		<path d="M8.3,4.2c0.2,0,0.3,0,0.5,0c1.6,0.2,3,0.7,4.3,1.5c0.7,0.5,0.8,1.5,0.2,2.1C13,8.3,12.1,8.3,11.7,8C10.8,7.5,10,7.1,9,7
			C8.2,7,7.2,7,6.2,7.5S4.4,8.8,4,9.9c-0.1,0.9-0.3,1.9,0,2.7c0.3,1.3,1,2.3,2.1,3c0.3,0.3,1,0.5,1.6,0.5c1,0,2,0,2.8-0.5
			c0.2,0,0.3-0.2,0.5-0.3c0,0,0,0,0-0.2c0-0.7,0-1.3,0-2l0,0c0,0,0,0-0.2,0c-0.7,0-1.3,0-2,0c-0.5,0.2-1-0.3-1.2-1
			c0.1-0.7,0.4-1.3,0.9-1.7c0.3,0,0.5,0,0.7,0c1.2,0,2.3,0,3.5,0c0.8,0,1.3,0.5,1.5,1.3c0,0.7,0,1.2,0,1.8c0,0.8,0,1.5,0,2.3
			c0,0.5-0.2,1-0.7,1.3c-0.7,0.5-1.5,1-2.3,1.3c-0.9,0.3-1.7,0.4-2.5,0.4c-1.2,0-2.3,0-3.3-0.5c-1.5-0.5-2.6-1.5-3.5-2.6
			c-0.5-1-1-2-1.2-3c0-0.2,0-0.5,0-0.7c0-0.3,0-0.5,0-0.8V11c0-0.5,0.2-1,0.2-1.5c0.3-1.2,0.8-2.1,1.6-3.1c1.3-1.2,2.8-2,4.6-2.1
			c0.2,0,0.3,0,0.7,0C8,4.2,8.2,4.2,8.3,4.2z"/>
		<path d="M19.2,4.2L19.2,4.2c0.7,0.2,1.2,0.7,1.2,1.3c0,0.2,0,0.3,0,0.5c0,3.6,0,7.4,0,11c0,0.3,0,0.8-0.2,1.2
			c-0.2,0.5-0.7,0.6-1.2,0.6c-0.3,0-0.7,0-1-0.3s-0.5-0.7-0.5-1c0-0.2,0-0.3,0-0.5c0-3.6,0-7.4,0-11c0-0.3,0-0.7,0.2-1
			c0.2-0.5,0.5-0.7,1-0.8l0,0C18.9,4.2,19,4.2,19.2,4.2z"/>
		<path d="M45.6,11.6C45.6,11.4,45.6,11.4,45.6,11.6c1.5-2.3,3-4.4,4.3-6.6c0.2-0.3,0.5-0.5,0.8-0.7c0.8-0.2,1.6,0.3,1.6,1.2v0.2
			c0,4,0,7.9,0,11.9c0,0.5-0.2,0.8-0.7,1.2c-0.6,0.4-1.6,0-1.8-0.8c0-0.2,0-0.3,0-0.5c0-2.5,0-4.9,0-7.4c0,0,0,0,0-0.2l0,0
			c0,0,0,0,0,0.2c-1,1.5-2,3.1-3,4.6c-0.5,0.8-1.6,0.8-2.1,0c-1-1.5-1.8-2.8-2.8-4.3c-0.2-0.2-0.2-0.3-0.3-0.5l0,0v0.2
			c0,2.5,0,4.9,0,7.4c0,0.5-0.2,0.8-0.5,1.2s-0.8,0.3-1.3,0.2c-0.5-0.2-0.7-0.7-0.8-1.2v-0.2c0-4,0-7.9,0-11.9
			c0-0.5,0.2-0.8,0.5-1.2c0.5-0.5,1.3-0.3,1.8,0.2c0.3,0.3,0.5,0.8,0.8,1.2C43.1,7.6,44.2,9.6,45.6,11.6
			C45.6,11.4,45.6,11.4,45.6,11.6z"/>
		<path d="M55.6,11.6c0-4,3.3-7.4,7.4-7.4s7.4,3.3,7.4,7.4s-3.3,7.1-6.9,7.4C59.1,19.2,55.6,15.7,55.6,11.6z M67.3,11.6
			c0-2.5-2-4.4-4.4-4.4s-4.4,2-4.4,4.4s2,4.4,4.3,4.4C65.3,15.9,67.3,14.1,67.3,11.6z"/>
		<path d="M96,18.8c-3.8,0-7.4-3.1-7.4-7.2s3.3-7.4,7.4-7.4s7.4,3.3,7.4,7.4C103.2,15.7,99.7,19,96,18.8z M100.2,11.6
			c0-2.5-2-4.4-4.4-4.4c-2.5,0-4.4,2-4.4,4.4s2,4.4,4.3,4.4C98.3,15.9,100.2,14.1,100.2,11.6z"/>
		<path d="M31.6,7.1h-0.2c-2.1,0-4.1,0-6.3,0c-1,0-1.6-1.2-1.2-2c0.3-0.5,0.7-0.7,1.2-0.7h0.2c2.8,0,5.6,0,8.4,0c0.3,0,0.7,0,1,0.2
			c0.7,0.3,1,0.8,1,1.5c0,0.3-0.2,0.7-0.5,1c-2.5,2.8-4.9,5.8-7.4,8.6c0,0,0,0-0.2,0.2h0.2c2.1,0,4.3,0,6.4,0c0.8,0,1.3,0.7,1.3,1.5
			c0,0.5-0.2,1-0.7,1.2c-0.2,0-0.3,0.2-0.5,0.2c-3.1,0-6.3,0-9.4,0c-0.5,0-1-0.2-1.3-0.8c-0.3-0.5-0.3-1.2,0.2-1.8
			C26.4,13.1,28.9,10.1,31.6,7.1L31.6,7.1z"/>
	</g>
</g>
</svg>
