<?xml version="1.0" encoding="utf-8"?>
<!-- Generator: Adobe Illustrator 25.3.1, SVG Export Plug-In . SVG Version: 6.00 Build 0)  -->
<svg version="1.1" id="Layer_1" xmlns="http://www.w3.org/2000/svg" xmlns:xlink="http://www.w3.org/1999/xlink" x="0px" y="0px"
	 viewBox="0 0 220 68" style="enable-background:new 0 0 220 68;" xml:space="preserve">
<style type="text/css">
	.st0{fill:#FFFFFF;}
</style>
<g>
	<path class="st0" d="M117.9,39.8V28h31.6c3.2,0,5.8,2.6,5.8,5.8v14c0,7.2-5.8,13.1-13.1,13.2H122c-15,0-27.1-12.1-27.1-27
		S107,7,122,7h31.3v12.4H122c-8.1,0-14.7,6.5-14.7,14.6s6.5,14.6,14.7,14.6h20.9v-8.8H117.9L117.9,39.8z M90.8,6.9v4V61h-6.2h-0.3
		c-3.2,0-5.8-2.6-5.8-5.8V16.1V6.9C78.5,6.9,90.8,6.9,90.8,6.9z M213.3,6.9c3.2,0,5.8,2.6,5.8,5.8v35.9c0,7.2-5.9,13-13.1,13h-0.2
		c-4.7,0-8.9-2.4-11.1-6.2L173.8,19c-0.2-0.3-0.5-0.4-0.7-0.4c-0.3,0-0.6,0.2-0.7,0.4c-0.1,0.1-0.1,0.3-0.1,0.4V61h-6.5
		c-3.2,0-5.8-2.6-5.8-5.8V19.4c0-7.2,5.9-13,13.1-13h0.2c4.7,0,8.9,2.5,11.3,6.4L205.3,49c0.3,0.3,0.5,0.5,0.8,0.5s0.6-0.2,0.7-0.4
		c0.1-0.1,0.1-0.2,0.1-0.3V7L213.3,6.9L213.3,6.9z"/>
	<path class="st0" d="M16.6,22.1c-3.2,0.4-6.2,0.8-8.8,1.4c2.9-7.5,8.9-13.4,16.4-16.4c-0.6,2.6-1.1,5.5-1.4,8.8
		C20.3,17.6,18.2,19.7,16.6,22.1z M46.5,15.9c-0.4-3.2-0.9-6.1-1.5-8.7c7.5,2.9,13.5,8.9,16.4,16.4c-2.6-0.6-5.5-1.1-8.8-1.4
		C51.1,19.7,49,17.6,46.5,15.9L46.5,15.9z M22.8,52c0.4,3.2,0.8,6.2,1.4,8.8c-7.5-2.9-13.5-8.9-16.4-16.4c2.6,0.6,5.5,1.1,8.7,1.4
		c0,0,0,0,0.1,0C18.2,48.3,20.3,50.4,22.8,52z M52.8,45.8c3.3-0.4,6.2-0.9,8.7-1.4c-2.9,7.5-8.9,13.5-16.5,16.4
		c0.6-2.6,1.1-5.5,1.5-8.7c0,0,0,0,0-0.1C49,50.4,51.1,48.3,52.8,45.8C52.8,45.9,52.8,45.9,52.8,45.8z M67.4,28.6v10.6
		c-5,2.3-12.5,3.3-15.1,3.5c-0.6,0.1-1.2,0.2-1.7,0.2l-8.1-9l8.1-9c0.5,0,0.9,0,1.5,0.1C54.7,25.4,62.4,26.3,67.4,28.6z M18.8,25
		l8.1,9l-8.1,9c-0.5,0-1.1-0.1-1.7-0.2C14.5,42.5,7,41.6,2,39.3V28.6c5.1-2.4,12.7-3.3,15.3-3.5C17.8,25,18.3,25,18.8,25z
		 M25.7,49.9l9-8l9,8c0,0.5-0.1,1.1-0.2,1.7c-0.3,2.5-1.2,10-3.5,15.1H29.4C27,61.6,26.1,54,25.8,51.4
		C25.7,50.8,25.7,50.4,25.7,49.9z M29.4,1.3H40c2.3,5,3.3,12.5,3.5,15.1c0.1,0.6,0.2,1.2,0.2,1.7l-9,8.1l-9-8.1c0-0.5,0-0.9,0.1-1.5
		C26.1,14,27,6.4,29.4,1.3z"/>
</g>
</svg>
