<?xml version="1.0" encoding="utf-8"?>
<!-- Generator: Adobe Illustrator 26.5.1, SVG Export Plug-In . SVG Version: 6.00 Build 0)  -->
<svg version="1.1" id="Layer_1" xmlns="http://www.w3.org/2000/svg" xmlns:xlink="http://www.w3.org/1999/xlink" x="0px" y="0px"
	 width="549px" height="548px" viewBox="0 0 549 548" style="enable-background:new 0 0 549 548;" xml:space="preserve">
<style type="text/css">
	.st0{fill:#EBFAE3;}
	.st1{fill:#FFFFFF;}
	.st2{fill:#30363D;}
	.st3{fill:#6FBB44;}
	.st4{fill:#202428;}
</style>
<g>
	<circle class="st0" cx="274.5" cy="273.5" r="272.5"/>
	<g>
		<g>
			<rect x="68.8" y="131.3" class="st1" width="412.8" height="283.7"/>
			<rect x="68.8" y="94.6" class="st2" width="412.8" height="36.7"/>
		</g>
		<g>
			<g>
				<path class="st3" d="M153,218.5c-2.9,3.8-2,9,1.7,11.9s9,2,11.9-1.7c25.3-34,64-53.5,105.9-53.5c24.1,0,46.9,6.4,67.2,18
					l14-11.4c-23.9-15.4-51.5-23.9-81.2-23.9C225.4,158.6,181.8,180.4,153,218.5z"/>
				<path class="st3" d="M378.7,228.7c1.5,2,4.1,3.5,6.7,3.5c1.7,0,3.5-0.6,5.2-1.7c3.8-2.9,4.4-8.4,1.7-11.9
					c-10.8-14.5-23.9-26.8-38.7-36.4l-14,11.4C354.9,202.3,368,214.2,378.7,228.7z"/>
				<path class="st3" d="M182.4,248.8c-2.6,3.8-1.5,9,2.6,11.9c3.8,2.6,9,1.5,11.9-2.6c16.9-25.9,45.4-41.3,76.3-41.3
					c10.8,0,21.5,2,31.7,5.9l14.9-12.2c-14.3-6.7-30-10.8-46.3-10.8C236.2,199.6,202.8,218.3,182.4,248.8z"/>
				<path class="st3" d="M348.8,258.1c1.5,2.6,4.4,3.8,7.3,3.8c1.5,0,3.2-0.6,4.6-1.5c3.8-2.6,5-7.9,2.6-11.9
					c-11-16.9-26.1-29.6-43.9-38.4l-14.9,12.2C322.3,229,338.3,241.5,348.8,258.1z"/>
				<path class="st3" d="M210.6,279c-2,4.1-0.3,9.3,4.1,11c1.1,0.6,2.4,0.9,3.5,0.9c0.9,0,1.1-0.3,2-0.3l5.9-4.6
					c6.7-14.5,19.8-24.7,34.6-28.2l21.8-17.8c-3.2-0.6-6.4-0.9-9.9-0.9C246.4,239.4,221.9,254.9,210.6,279z"/>
				<path class="st3" d="M272.8,256.3c20.1,0,38.1,11.6,46.5,29.6c2,4.1,7,6.1,11,4.1c4.1-2,6.1-7,4.1-11c-9.9-21-29.6-35.5-52-39
					l-21.8,17.8C264.7,256.7,268.8,256.3,272.8,256.3z"/>
			</g>
			<path class="st3" d="M307.2,325c0-2-1.7-3.8-3.8-3.8H240c-2,0-3.8,1.7-3.8,3.8v56.4c0,2,1.7,3.8,3.8,3.8h63.4
				c2,0,3.8-1.7,3.8-3.8V325z"/>
			<path class="st3" d="M296.7,321.2h-9.3v-9.3c0-4.1-1.7-8.1-4.6-11c-2.9-2.9-6.7-4.6-11-4.6c-4.1,0-8.1,1.7-11,4.6
				s-4.6,6.7-4.6,11v9.3h-9.3v-9.3c0-6.7,2.6-12.8,7.3-17.5c4.6-4.7,10.8-7.3,17.5-7.3s12.8,2.6,17.5,7.3c4.7,4.6,7.3,10.8,7.3,17.5
				L296.7,321.2L296.7,321.2z"/>
		</g>
	</g>
	<g>
		<rect x="20.6" y="445" class="st2" width="509.2" height="11.3"/>
		<rect y="415" class="st4" width="550.3" height="30"/>
	</g>
</g>
</svg>
