<?xml version="1.0" encoding="utf-8"?>
<!-- Generator: Adobe Illustrator 26.0.1, SVG Export Plug-In . SVG Version: 6.00 Build 0)  -->
<!DOCTYPE svg PUBLIC "-//W3C//DTD SVG 1.1//EN" "http://www.w3.org/Graphics/SVG/1.1/DTD/svg11.dtd" [
	<!ENTITY ns_extend "http://ns.adobe.com/Extensibility/1.0/">
	<!ENTITY ns_ai "http://ns.adobe.com/AdobeIllustrator/10.0/">
	<!ENTITY ns_graphs "http://ns.adobe.com/Graphs/1.0/">
	<!ENTITY ns_vars "http://ns.adobe.com/Variables/1.0/">
	<!ENTITY ns_imrep "http://ns.adobe.com/ImageReplacement/1.0/">
	<!ENTITY ns_sfw "http://ns.adobe.com/SaveForWeb/1.0/">
	<!ENTITY ns_custom "http://ns.adobe.com/GenericCustomNamespace/1.0/">
	<!ENTITY ns_adobe_xpath "http://ns.adobe.com/XPath/1.0/">
]>
<svg version="1.1" id="Layer_1" xmlns:x="&ns_extend;" xmlns:i="&ns_ai;" xmlns:graph="&ns_graphs;"
	 xmlns="http://www.w3.org/2000/svg" xmlns:xlink="http://www.w3.org/1999/xlink" x="0px" y="0px" viewBox="0 0 426 268"
	 style="enable-background:new 0 0 426 268;" xml:space="preserve">
<metadata>
	<sfw  xmlns="&ns_sfw;">
		<slices></slices>
		<sliceSourceBounds  bottomLeftOrigin="true" height="267.9" width="240.1" x="89.8" y="0.1"></sliceSourceBounds>
	</sfw>
</metadata>
<g>
	<path d="M209.9,267.9c-0.8,0-1.4-0.2-2.1-0.5c-72.8-31.4-118-91-118-155.3c0-16.6,0.1-33.4,0.2-49.7c0.1-16.3,0.2-33.1,0.2-49.7
		c0-2.2,1.4-4.2,3.5-5c2.1-0.8,4.5-0.2,5.9,1.5c9.5,11.2,29.4,18.5,50.7,18.5c25.4,0,48.4-10.4,54.7-24.6c0.9-1.9,2.8-3.2,4.9-3.2
		s4,1.2,4.9,3.2c6.3,14.3,29.3,24.6,54.7,24.6c21.3,0,41.2-7.3,50.7-18.5c1.4-1.7,3.8-2.3,5.9-1.5c2.1,0.8,3.5,2.8,3.5,5
		c0,16.6,0.1,33.4,0.2,49.7c0.1,16.3,0.2,33.1,0.2,49.7c0,64.3-45.3,123.9-118,155.4C211.4,267.8,210.6,267.9,209.9,267.9z
		 M98.9,22.7c0,12.7-0.1,27.3-0.2,39.8c-0.1,16.3-0.2,33.1-0.2,49.6c0,59.4,43.8,116.6,111.3,146.6c67.7-30,111.4-87.2,111.4-146.6
		c0-16.5-0.1-33.4-0.2-49.6c-0.1-12.5-0.2-27-0.2-39.8c-12.5,8.7-32.3,13.8-51.4,13.8c-25.8,0-48.3-9-59.5-23.1
		c-11.2,14.1-33.8,23.1-59.6,23.1C131.2,36.5,111.5,31.4,98.9,22.7z"/>
	<g>
		<path d="M197.5,167.7c0-7.4,6-13.4,13.4-13.4l0,0c7.4,0,13.4,6,13.4,13.4l0,0c0,7.4-6,13.4-13.4,13.4l0,0
			C203.5,181.1,197.5,175.1,197.5,167.7L197.5,167.7z"/>
		<path d="M143,120.5c-1.6-1.2-1.9-3.6-0.7-5.2l0,0c15.8-20.6,40.7-33.9,68.6-33.9l0,0c28,0,52.8,13.3,68.6,33.8l0,0
			c1.2,1.6,1,3.9-0.7,5.2l0,0c-1.6,1.2-3.9,1-5.2-0.7l0,0c-14.5-18.8-37.1-31-62.7-31l0,0c-25.6,0-48.2,12.2-62.7,31l0,0l0,0
			c-0.8,1-1.8,1.4-3,1.4l0,0C144.5,121.3,143.7,121,143,120.5L143,120.5z"/>
		<g>
			<path d="M160.7,138c-1.7-1.2-2.1-3.5-1-5.2l0,0c11.2-16.4,30-27.1,51.3-27.1l0,0c21.3,0,40.2,10.7,51.3,27.1l0,0
				c1.2,1.7,0.7,4-1,5.2l0,0c-1.7,1.2-4,0.7-5.2-1l0,0c-9.9-14.5-26.4-23.9-45.2-23.9l0,0c-18.8,0-35.3,9.5-45.2,23.9l0,0l0,0
				c-0.7,1.1-1.9,1.6-3.1,1.6l0,0C162,138.6,161.2,138.5,160.7,138L160.7,138z"/>
		</g>
		<g>
			<path d="M178.2,155.6c-1.7-1.2-2.1-3.5-1-5.2l0,0c7.4-10.7,19.8-17.8,33.7-17.8l0,0c14,0,26.4,7.1,33.8,17.8l0,0
				c1.2,1.7,0.7,4-1,5.2l0,0c-1.7,1.2-4,0.7-5.2-1l0,0c-6-8.8-16.1-14.6-27.5-14.6l0,0c-11.5,0-21.6,5.8-27.5,14.6l0,0
				c-0.7,1.1-1.9,1.6-3.1,1.6l0,0C179.5,156.3,178.9,156.1,178.2,155.6L178.2,155.6z"/>
		</g>
	</g>
</g>
</svg>
