<?xml version="1.0" encoding="utf-8"?>
<!-- Generator: Adobe Illustrator 25.3.1, SVG Export Plug-In . SVG Version: 6.00 Build 0)  -->
<svg version="1.1" id="Layer_1" xmlns="http://www.w3.org/2000/svg" xmlns:xlink="http://www.w3.org/1999/xlink" x="0px" y="0px"
	 viewBox="0 0 217.3 197.8" style="enable-background:new 0 0 217.3 197.8;" xml:space="preserve">
<style type="text/css">
	.st0{fill:#FFD55C;}
	.st1{fill:#EBFAE3;}
	.st2{opacity:0.24;}
	.st3{fill:#5FA344;}
	.st4{fill:none;}
	.st5{fill:#30363D;}
	.st6{fill:#6FBB44;}
	.st7{fill:#394047;}
	.st8{fill:#333C49;}
	.st9{fill:#3F4A5A;}
	.st10{fill:#FFFFFF;}
</style>
<g>
	<circle class="st0" cx="107.7" cy="98.4" r="98.6"/>
	<g>
		<g>
			<circle id="SVGID_1_" class="st1" cx="107.7" cy="98.4" r="98.6"/>
		</g>
	</g>
</g>
<g>
	<g class="st2">
		<g>
			<path class="st3" d="M202.1,124.6c-1.3,0-2.9,0.6-2.9,1.2s-1.8,1.2-2.5,1.5c-0.6,0.2-1.6,1.9-1.9,2.6c-0.3,0.6-1.6,0.3-2.3,0.6
				c-0.5,0.2-1.6,1.2-1.6,1.6s-0.3,0.5-0.6-0.2c0,0,0,0-0.9,0.9c-0.9,1-0.9,1-0.9,1c-0.5,1.5-1.9,3.4-2.6,3.6
				c-0.5,0.2-0.6,2.8-0.6,3.9c0,1.2,0.3,2.5,1,2.9c0,0,0,0,0.2,0.9c0.2,1.6,0.2,1.6,0.2,1.6c-0.3,1.3,0.6,2.5,1,2.8
				c0.3,0.2,2.8-0.3,3.6-0.6c0.3,0,0.9-0.3,1.3-0.5c4.4-7.3,7.8-15.1,10.2-23.6C202.4,124.6,202.3,124.6,202.1,124.6z"/>
			<path class="st3" d="M39.9,127c-0.2,0.3,1.6,1.9,2.3,2.6c0.6,0.6,2.1,3.6,2.5,4.4c0.3,1,0.2,2.5,0,2.9c0,0.3,0.3,1.2,0.3,1.5
				s-0.6,3.2-0.3,4.4s-1.3,4.7-1.3,6.6c0,1.8,0.9,4.1,1.2,3.9c0.3-0.2,0.3,1.6-0.2,1.8s-1.2,1.6-0.9,1.6s0,1.5,0,1.9
				s0.5,4.3,0.6,5.3c0.2,1,1.5,3.2,1.6,3.9c0.2,0.6,0.5,2.3,0.6,2.5c0,0.2,0.3,0.5,0.3,0.5s1.2,0.3,1.5,0.6s2.5,0,3.1,0
				c0.6-0.2,0-0.9-0.3-1.2s-0.5-1.9-1-2.1c-0.3-0.2-0.5-2.3-0.2-2.8s1.6-1.2,1.6-1.6s0.2-2.3-0.2-2.5c-0.3-0.3,0-2.5-0.2-3.6
				c-0.3-1.2,1.9-2.1,1.9-2.9c0.2-0.9,2.5-1.8,2.9-2.3c0.5-0.3,1-2.9,0.9-3.4c-0.3-0.5,0.9-1,1.3-1c0.5,0,1.2-0.3,1.2-0.3
				c0.2,0,0.9-1.2,1.2-1.3c0.3-0.3,1-2.9,1.6-3.2s1.2-1.9,1.2-2.5s0.9-1.8,1.2-2.3c0.3-0.3,2.5-1.5,2.8-1.6c0.3-0.2,1-3.6,1.2-4.9
				s0.9-2.9,0.9-3.4c0-0.3,0.9-0.9,0.9-0.9c0.2-0.2,0.6-1.8,1-2.1c0.3-0.3,1.6-1.9,1.6-2.3s0.2-1.2,0.3-1.9c0,0,0,0,0-0.9
				c0-1.3,0-1.3,0-1.3c-0.3-1.2-1.6-2.5-1.8-2.1c-0.3,0.3-1.6-1-2.5-1.2c-0.6-0.3-2.5-0.5-2.8-0.5s-1.9-1.2-2.6-1.5
				c-0.6-0.2-2.5-0.5-2.8-0.9c-0.3-0.2-0.9-2.8-2.1-3.6c-1.3-0.9-3.8-2.8-4.1-3.6c-0.3-0.9-2.9-2.3-3.8-2.6
				c-0.9-0.5-1.9-0.5-2.1-0.3c-0.2,0.2-1.2-1.3-1.6-1.8c-0.5-0.3-2.1-0.9-2.1-0.3c0,0.3-1.2,0.2-1.5-0.2c-0.2-0.3-1.2,0.2-1.5,0.3
				c-0.3,0.2-1.6,2.1-2.3,2.6s-1.3-0.5-1.8-0.6c-0.3-0.2-1.9,0.3-2.5,0.6c-0.3,0.3-1.5-2.1-1.2-3.2c0.2-1.2-1-3.4-1.9-3.4
				c-1,0-1.2-2.5-1.2-3.2c0.2-0.9-1.6-1.5-2.1-1.5s-1.6,1.2-1.9,1.6c-0.2,0.6-4.6-0.9-4.1-3.4c0.5-2.6,2.6-5.3,3.1-5.6
				c0.5-0.3,3.2-0.5,3.9-0.2c0.6,0.3,1.2,0,1.3-0.2c0-0.2,2.5,0,3.1,0.3c0.6,0.3,1.6,2.9,2.3,3.2c0.6,0.3,1-1.6,1.2-2.1
				s-0.3-1.8-0.5-2.1c-0.2-0.3,1.2-3.6,2.1-4.1c1-0.5,2.1-2.3,2.1-2.6s0.9-0.5,1.2-0.6s0-2.8,0.3-3.2c0.3-0.5,2.5-1.8,3.1-1.9
				c0.6-0.3,1.2-1.9,0.9-2.1c-0.2-0.3,1.6-1.8,2.6-2.1c1-0.3,1.8,0.5,1.6,0.6c0.2,0,1.6-0.9,2.1-1.2c0.6-0.3,0-1.6-0.3-1.9
				s-0.2-1.8,0.3-1.9c0.5-0.2,1-1.3,0.9-1.6s2.1,0.2,2.9-0.3c0.9-0.6,0.3,1.5-0.3,2.5c-0.6,0.9,0.5,1.6,0.9,1.6
				c0.3-0.2,0.9,0.5,0.9,0.6c0,0.3,1-0.3,1.5,0s0.9-0.9,1-1.2c0-0.5-1.3-1.5-1.6-1.9c-0.2,0-0.3-3.5-0.3-4.1s-1-1.8-1.2-1.6
				c-0.3,0.2-0.9-1.8-1.3-2.1c-0.5-0.3-0.6-1.3-0.5-1.7c0-0.3-1.6-1.9-1.9-2.8c-0.3-0.9-1-0.6-1-0.3S51.9,50,51.5,50
				c-0.5,0-0.9-1.8-0.9-2.5c0-0.6-2.1-0.9-2.5-1.3c-0.3-0.5-1.6-0.3-1.9-0.6c-0.3-0.3-1.5-0.9-1.6-0.6c-0.3,0.2-0.2,4.9-0.3,6.3
				c-0.3,1.3-1.3,2.5-1.8,2.5c-0.3,0-0.2,1,0.2,0.9c0.3,0-0.9,1.5-1,2.5c-0.2,1-1.2,0-1.3-1c-0.2-0.9-1.2-2.1-1.3-1.8
				c-0.2,0.3-0.9-0.3-1.2-0.2c-0.3,0.2-2.1-1.2-2.9-1.5c-0.9-0.3-1.2-2.8-1.6-2.9c-0.3-0.2,0-0.5,0-0.9s1.5-1.6,1.9-2.3
				c0.3-0.5,1.9-2.6,2.8-3.1c0.6-0.5,1.2-1.6,1-1.9c-0.2-0.2,2.8-1.2,3.6-1.3c0.9-0.3,1.5-2.5,1.6-3.1c0-0.6-0.5-1.8-0.9-1.9
				c-0.3-0.2,1.2-0.2,1.6,0c0.5,0.2,1.9-0.5,2.5-0.2s1.8,1,2.6,1.6c0,0,0,0-0.2,1.6c-0.3,2.6-0.3,2.6-0.3,2.6
				c-2.3,1-2.8,2.5-2.1,2.5c0.9,0,4.4,1.6,5.4,2.3c1,0.9,1.3-1,1.6-1.6s0.2-2.3,0-2.6c-0.3-0.3,1.2-0.2,1.6,0.2
				c0.3,0.3,0.9-0.3,1.2-0.5s0.5-1.6,0.6-1.9c0.2-0.3-0.6-0.6-0.6-1s-1.6-1.2-2.1-1.3c-0.5-0.3-0.6-1.3-0.3-1.6
				c0.3-0.2-0.2-1.6-0.3-2.1c-0.3-0.5-1.9-0.9-2.5-0.9c-0.5,0-1.8-1.6-1.9-1.9c-0.3-0.8-2.5-0.9-3.1-0.9s-1.5-1.6-2.5-1
				c-0.9,0.5-1.8-0.6-2.3-0.9c-0.3-0.2-2.5,1.9-2.5,3.6c0,1.6,0.9,3.1,1.2,3.2c0.3,0,0,1.5-0.5,1.9c-0.3,0.3-1.3-0.5-1-0.9
				c0.3-0.3-1-1.9-1.3-2.8c-0.3-0.5-1.5-1-2.1-1.2c-0.5,0.5-0.9,1-1.3,1.5c0.2,0.6,0.3,1.3,0.2,1.9c-0.3,1-1.2,1.2-1.2,0.6
				c0-0.2-0.3-0.3-1-0.3C20.6,49.2,12.6,67,10.4,86.3c0.5,0.5,1,1.2,1.2,1.6c0.3,0.9,1.8,1.5,1.9,1.6c0.3,0.2,0.3-1.6,0.2-2.1
				c-0.2-0.5,0.3-0.9,0.3-0.3c0,0.5,1.3,1.9,1.8,2.5c0.5,0.5,1,4.3,1.5,5c0.3,0.9,4.7,2.5,6,2.8s3.1,1.8,3.4,2.3s2.1,0.6,2.5,0.9
				c0.4,0.2,1.3,1.5,1.6,1.6c0.3,0.3,0.6,1,0.6,1.2s2.5,1.2,3.1,1.8c0.6,0.6,1.6,0.5,1.8,0.2s0.6,1.3,1,1.8c0.3,0.5,0.3,1.9,0.2,2.1
				c-0.2,0.2-0.5,2.6-1,3.1c-0.3,0.5-1.3,4.1-1.2,4.7s1.3,2.1,1.8,2.5c0.5,0.2,0.3,1-0.2,1c-0.3,0-0.2,3.4,0.6,3.9
				C39.1,125.3,39.9,126.9,39.9,127z"/>
			<path class="st3" d="M51.3,67.1L51.3,67.1C51.1,67.1,51.1,67.1,51.3,67.1z"/>
			<path class="st3" d="M44.6,25.7c1.2-0.2,3.1-0.5,3.2-0.9c0-0.3,0.2-1.2-0.2-1.3c0.2,0,0.3,0,0.5,0c0.3,0,1.2-2.5,1.6-2.9
				s3.1-1.5,3.8-1.8c0.6-0.3,1.9-1.6,2.6-1.9c0.5-0.2,1.3-1.5,1.2-1.6c-0.2-0.3,1.8-1.5,2.6-1.6c0.9-0.3,1.2-1.2,0.9-1.2
				c-0.2,0-4.3,2.1-8.1,4.3c-4.3,2.9-8.5,6-12.2,9.8C42,26,43.8,25.8,44.6,25.7z"/>
			<path class="st3" d="M115.7,148.2c1.2-0.9,3.4-3.9,4.1-4.6c0.6-0.6,1.2-3.1,1.3-3.6c0.1-0.5,1.2-1.3,1.6-1.5
				c0.3-0.2,1.6-5.4,2.8-6.6c1.2-1.2,2.5-6.7,2.3-8.8c-0.2-2,0.9-5.9,1-6.7c0.3-0.9,1.6-2.6,2.1-2.8c0.3-0.3,3.1-4.4,4.1-5.7
				c0.9-1.5,1.6-4.6,1.5-5.3c-0.2-0.9-1.9-1.2-2.5-0.9c-0.5,0.3-2.1,0.6-2.6,0.6s-1.8-2.9-2.6-3.6c-0.9-0.6-1.5-4.1-1.9-4.7
				s-1.8-2.3-2.1-2.8c-0.6-0.5-0.6-2.1-0.6-2.8c0-0.5,0.9,0.3,1,1c0.2,0.9,2.1,3.6,2.8,4.7c0.6,1,2.3,4.1,2.8,5c0.5,1,4.3,0.5,5.4,0
				c1.2-0.5,2.8-1.6,2.8-1.9s1.9-1.2,2.5-1.6c0.5-0.3,1-2.8,1.3-3.1c0.3-0.3-0.3-2.5-0.6-3.2c-0.3-0.6-2.5-1.2-2.8-0.9
				c-0.3,0.3-1.2-1.5-1.6-1.9c-0.3-0.6-1.8-1.3-1.9-1.8c0-0.3,0.6-1.2,0.9-1.2c0.3-0.2,2.9,1.8,3.8,2.8s1.6,2.8,1.8,3.1
				c0.2,0.3,2.3,0.5,2.8,0c0.5-0.3,1-0.3,1.2,0.2c0,0,0,0,0.6-0.2c2.5-0.3,2.5-0.3,2.5-0.3c1.2,1.2,1.5,2.3,1.5,2.5s0.6,1.2,1.2,1.3
				c0.5,0.2,0.9,1.6,1,1.9c0.2,0.3,1.5,2.8,1.8,3.6c0.3,1,1.5,2.9,1.6,3.4c0.3,0.5,0.5,1.9,0.5,2.5c0,0.3,0.9,1.2,1.5,1.2
				c0.5,0,1.6-3.4,1.9-4.7c0.3-1.3,1.2-2.3,1.3-2.3c0.3,0,0.5-0.6,0.5-1c0-0.3,1.3-0.3,1.5-0.6c0.2-0.3,0.5-2.6,1-2.9
				s2.3-1.5,2.8-1.6c0.5-0.2,2.1,1.2,2.5,1.8c0.3,0.6,0.6,2.3,0.5,2.5c-0.2,0.3,0.9,1.6,1.6,1.6c0.7,0,1.2,1.2,1.2,1.5
				s1.2,1.5,1.3,1.9s0.2,1.8,0,2.1s0,2.1,0.2,2.6s2.8,3.1,3.6,3.9c1,0.9,1.5-1.6,1-2.5s-2.1-2.5-2.6-2.9c-0.3-0.5-0.5-2.6-0.3-3.2
				s1.5,0.3,1.9,0.9c0.5,0.3,1.2,1.3,1.3,1.6c0,0.3,3.4-1.6,3.6-3.6c0.2-2.1,1.3-4.4,1.3-5c0.2-0.5-0.3-1.3-0.6-1.3s0.5-1.6,1.5-1.6
				s3.2-2.6,3.8-3.6c0.5-1,1.6-1.8,1.8-1.9s0.9-2.6,1-3.6c0.2-0.9-0.5-2.6-0.6-3.1c0-0.5-0.9-1.6-1.2-2.1c-0.2-0.3-0.3-1.8-0.3-1.9
				c0.2-0.3,1-0.5,1.2-0.9c0-0.3,1.2-1.3,1-1.8c0-0.5,0.6,0.6,1.2,1c0.5,0.3,1,2.8,1.5,3.1c0.5,0.3,2.8-2.6,2.6-4.6
				c-0.3-1.9,0.6-4.3,1.2-4.4c0.3-0.2,1.5-1.6,2.1-2.8c-5-14.6-13.3-27.7-24.3-38.2c-0.2,0-0.3,0-0.3,0c-0.9-0.2-0.9-0.2-0.9-0.2
				c-1.5-0.3-2.1-1.8-1.9-2.1c0-0.2,0-0.3,0-0.6c-0.9-0.6-1.6-1.5-2.5-2.1c-0.6,0-1.3,0-1.8,0c-0.9,0-2.6-0.6-2.9-1
				c-0.3-0.3-1.5,0.3-1.5,0.9s-1.9,0.9-2.1,1.3c-0.2,0.5-1.2,0.5-1.3,0.2c-0.2-0.3-1.9,0.6-2.8,0.9c-0.9,0.2-2.5,0.9-2.9,1
				c-0.3,0.2-1.3,1.2-1.5,1.5s-1.3,1-1.6,1.2s-0.3,1.8,0.2,1.9s-0.9-0.2-1.5-0.5s-1.2,0.6-1.5,1c-0.2,0.3-0.9-0.2-0.6-0.6
				c0-0.5-1.5-0.9-1.6-0.5c-0.2,0.3-1.2-0.2-1.6-0.3c-0.3-0.2-2.3,1.6-2.9,2.5c-0.6,0.6-3.9,1.2-4.6,1c-0.6-0.3-1.2,1.5-0.6,1.6
				c0.5,0.2-1.3,0-2.3,0s-3.9,1.3-4.6,1.8c-0.6,0.5-1.3-0.2-1.3-0.5s-1.2-0.9-1.5-0.9c-0.3-0.2-1,2.1-1.6,2.6s-1.3-1.8-2.6-2.1
				c-1.3-0.3-3.6-1.6-4.1-1.8s-1.8-1.5-2.1-1.8c-0.3-0.3-2.1-0.6-2.6-0.6s-2.5,1-2.8,1.5c-0.5,0.3-1.2,0.3-1.5,0.5s-2.3,2.1-3.1,2.8
				c-0.9,0.6-2.1,3.2-2.6,4.1c-0.5,0.6-1.2,0.9-1.3,0.9c-0.3,0-0.5,0.9-0.5,1c0,0.3-2.5,1.5-2.6,2.6c-0.3,1.2,0.2,3.6,0.2,4.4
				s0.9,2.6,1.5,2.6s0.3,1.5,0.2,1.9c-0.2,0.3,0.3,0.9,0.3,1.2s-1.6,0.9-2.1,1c-0.5,0.2-1.3,1.3-1.5,1.8s-1.6,0.6-2.1,1.2
				c0.2-0.3,0.3-0.9,0.5-1.2c0.3-0.5-0.2-1.6-0.3-1.8c-0.3-0.2-0.3-3.1-0.9-3.6C96.3,52,95.3,51,95,50.8c-0.3-0.2,0.2-1,0.3-1.3
				c0.2-0.3-1.3-0.5-1.6-0.3c-0.3,0.2-0.6,3.1-0.9,3.8c-0.2,0.9,0.9,1.9,1,1.9c0.3,0,0.2,1.5-0.3,1.5s-1,1.9-0.9,2.5
				c0.3,0.5-0.3,1.3-0.6,1.6c-0.3,0.2,1.9,0,3.1,0c1,0,1.8,0.5,1.8,0.5s-1.9,0.3-2.3,0.9c-0.3,0.5-1.6,1.3-1.8,1.6
				c-0.3,0.3,0.3,1.2,1,1.2s1.2,1.9,1.6,2.3c0.3,0.3,0.3,1.3,0,1.6c-0.2,0.3-2.8-0.2-3.6,0c-1,0.3-2.1,2.3-2.3,3.1
				c0,0.9,0.2,2.9,0.3,3.6s2.1,1,2.5,1.3c0.3,0.3,2.5,0,2.8,0.2s1.6-1.9,1.9-2.9s2.3-2.8,2.8-3.6c0.3-0.6,2.6-0.6,3.2-1
				c0.5-0.3,0.3,1.6,0.5,2.8c0.3,1.2,2.5,1,2.1,0c-0.3-1,0.2-1.5,0.3-1.2c0.2,0.3,2.1,1.2,2.5,1.8c0.3,0.6,0.3,1.8-0.2,1.8
				s-0.5,1.3,0,1.6c0.5,0.2,1.2-1.6,1.6-1.8c0.5-0.3,1-1.3,0.6-1.5c-0.2,0,0.3-1,0.9-0.9c0.3,0.3-1.2-2.1-1.9-2.9
				c-0.9-0.9-0.3-0.5,1.3,0.9c0,0,0,0,1.2,1.6c0.2,0.3,0.5,1.2,0.6,1.5c0.3,0.5,0.3,0.5,0.3,0.5c0.2,0.5,0.3,1.9,0.3,2.5
				c0,0.3,0.9,1.2,1.5,1.2s1,0.3,0.9,0.3s0.3,1.2,0.9,1.2c0.5,0,0.9-1.3,0.2-1.3c-0.7,0-0.5-1.9-0.5-2.8s0.3-1.6,0.5-1.6
				s0,1.8,0,2.1c0,0.3,0.2,1.2,0.5,1.8c0,0,0,0,0.5,0.3c1.2,1,1.2,1,1.2,1c1.8-0.5,4.1-0.2,4.1,0.3c0,0.3,1.3,0.5,1.3-0.2
				c0-0.6,0.2,0,0.2,0.3s-1.2,1.9-1.3,2.8c-0.2,0.9-4.3,0.3-6,0.2c-1.8-0.2-4.4,0.5-4.6,1s-2.9-1.2-4.3-1.8
				c-1.2-0.5-2.3-2.5-2.5-2.6c-0.3-0.3,0.2-0.9,0-1.2c-0.2-0.3-2.9-0.5-3.8-0.2s-5.3,0.9-6,1.2c-1,0.5-2.6,0-3.1-0.2
				c-0.5,0-1.6,1.3-2.1,1.6c-0.6,0.2-1.3,2.2-1.6,4.3c0,0,0,0-0.9,1.5c-0.5,1-0.5,1-0.5,1c-1.5,1.2-2.9,4.7-3.4,5.4
				c-0.5,0.9-0.9,5.9-0.9,7.8s1.5,5.4,1.9,6.3c0.3,1,3.1,3.2,3.9,3.8c0.9,0.5,3.8,0.6,4.7,0.6c1,0,1.9-0.9,2.5-1.9c0,0,0,0,1.3,0.2
				c0.6,0,0.6,0,0.6,0c0,0.9,1.9,1.3,2.6,1.6c0.5,0.3,1.8,0,2.3,0c0.3-0.2,0.9,3.4,0.5,4.4c-0.3,1,0.6,4.7,1,5.7
				c0.3,1.2,1.6,4.1,1.6,5.3c0.2,1.2-0.9,4.6-0.9,5.9c-0.2,1.3,1.6,4.7,1.9,6s0.9,3.8,0.9,4.4c0,0.6,1.8,4.3,2.3,5.7
				C109.8,148.5,114.4,148.8,115.7,148.2z"/>
			<path class="st3" d="M196.7,103.6c0.2,0.3,1.3-0.6,1.9-0.9c0.6-0.2,1.2-1.9,0.6-2.1c-0.5-0.2-1.2-1.6-1.6-1.8
				c-0.3-0.2-1.2,0.6-1.2,1.2s-1.3,0.9-1.6,1.3c-0.2,0.5-0.2,0.9,0,0.9C195.4,102.1,196.7,103.3,196.7,103.6z"/>
			<path class="st3" d="M195.4,114c0.3-0.2,0-1.9-0.9-2.1s-2.8,2.5-2.5,3.9c0.3,1.5,0.9,1.5,1,1.2c0.2-0.3,1.5,0.2,1.8,0.3
				c0.3,0.1,0.3-0.3,0-0.9C194.7,115.7,195,114,195.4,114z"/>
			<path class="st3" d="M191.3,111.9c0-0.6,0.2-2.8,0.3-3.1c0.2-0.3-1.2-1.6-1.6-1.8c-0.6-0.2-2.6,4.1-4.1,4.9
				c-1.5,0.9-1.9,3.2-1.6,3.9c0.3,0.7,3.2,0.9,3.8,1.3c0.5,0.5,1.2,0,1.5-0.2c0.3,0,0.2-0.3,0-0.3s1-1.3,1.2-1.9
				C191.1,114,191.3,112.5,191.3,111.9z"/>
			<path class="st3" d="M183.2,119.2c-1.2-0.3-2.5,0.2-2.5,0.6c-0.2,0.3,4.3,1.2,5.7,1.5c1.5,0.3,2.5,0.5,1.9,0.3
				C188.1,121.3,184.4,119.5,183.2,119.2z"/>
			<path class="st3" d="M192.2,90.6c0.3-0.5-0.5-2.8-0.9-2.3c-0.3,0.5-0.2,1.8,0,2.3C191.4,91,191.9,91,192.2,90.6z"/>
			<path class="st3" d="M194.8,95.4c0.3-0.6-0.3-1.2-1.3-1.5c-1-0.2-0.9,2.6-0.3,2.9C193.5,97.4,194.5,96.1,194.8,95.4z"/>
			<path class="st3" d="M199.8,113.2c1.2,0.9,3.6,0.3,3.8-1.2C202.4,111.4,199.6,111.4,199.8,113.2z"/>
			<path class="st3" d="M199.2,78.2c-0.5,0.3-0.9,1.2-0.5,1.5h-0.2c-0.3,0-0.3,1.5,0,1.8s1.3-1.2,1.8-1.5s1.5-0.5,1.6-0.3
				c0.2,0.2,1-0.2,1.9-0.6c0.2,0,0.3-0.3,0.5-0.6c-0.2-1.2-0.5-2.1-0.9-3.2c-0.5,0.3-1,0.9-1.2,1C202,76.4,199.8,77.7,199.2,78.2z"
				/>
			<path class="st3" d="M173.1,108.3L173.1,108.3C173,108.1,173,108.1,173.1,108.3z"/>
			<path class="st3" d="M180.2,115c-0.3-1-1.8-2.5-2.9-3.4c0,0,0,0-0.5-0.9s-0.5-0.9-0.5-0.9c-0.5-1-1.8-1.6-1.9-1.9s-0.5,0.9-1,0.5
				c0.3,0.2,0.9,0.5,1.5,1.2c1.3,1,3.9,7.3,4.4,7.8C179.7,117.8,180.6,115.9,180.2,115z"/>
			<path class="st3" d="M160,104.6c-0.3,0.6,1.8,2.3,1.9,1.9c0.1-0.4-0.3-2.1-0.6-2.5C161,103.6,160.3,103.9,160,104.6z"/>
			<path class="st3" d="M130.2,138.7c0,0.9,1.6,1.3,1.9,1.2c0.5-0.2,1.6-2.5,1.9-3.1c0.2-0.6,0.3-1.9,0.3-2.5c0-0.3,0.2-1.2,0.3-1.2
				c0.2,0,0.5-0.9,0.6-1.6c0.2-0.9-1-4.9-1-5.6c0-0.9-0.9,0.3-1,1.2c-0.2,0.9-2.1,2.1-2.6,2.8c-0.5,0.6-1,2.6-0.9,2.9
				c0.2,0.3-0.2,1.8-0.3,2.1C129.5,135.3,130.2,138.1,130.2,138.7z"/>
			<path class="st3" d="M57.7,166.7c0.3,0,0.9,0,1.3,0C59.2,165.2,57.6,165.6,57.7,166.7z"/>
			<path class="st3" d="M93.8,14.5c-0.5,0-1.9-0.2-2.3-0.5s-2.5-0.5-3.1-0.2s-0.2-1.6,0.6-1.6c0.9-0.2,0.2-1.5-0.9-1.5
				s-3.2-0.2-3.8,0c-0.5,0.2-1.6-0.3-1.9-0.3s-3.2,0.9-4.4,0.9c-1.3,0-4.4,0-5.3,0.3c-0.6,0.2-1.2,1.6-1.2,1.9
				c0,0.5-3.1,0.5-4.1,0.5s-6.3,1.2-7.9,1.9c-1.5,0.8-2.5,2.8-1.9,2.8c0.5,0-0.9,1.2-1.6,1.5c-0.9,0.3-2.6,0.3-2.9,0.9
				c-0.3,0.3,0.5,0.6,0.6,1c0.2,0.3,0.6-0.3,1.2,0c0.5,0.3,1.9,0.3,2.5,0.5c0.3,0.2-1.3,0.5-2.1,0.5c-0.9,0-0.6,1.6,0,1.9
				c0.6,0.2,2.5,0.5,2.6,0.2c0.2-0.3,1.9,0.3,2.9,0.3c0.9,0,1.5,2.1,1.8,2.6s0.3,2.1,0.3,2.5c0,0.5,1.5,1.3,1.8,1
				c0.3-0.3,0.2,0.9-0.3,0.6c-0.5-0.2-0.2,1.6,0.5,1.9c0.9,0.3,0.3,1.3-0.2,1.6c-0.3,0.3-0.2,1.5-0.6,1.8c-0.4,0.3,1.6,3.9,1.6,5.7
				s1.2,3.2,1.6,3.2c0.5,0,1.9,0.3,2.1,0.9c0.2,0.3,1-0.3,1.2-0.6c0.3-0.3,0.9-1.2,1.3-1.9c0.5-0.9,1.5-4.4,1.6-4.9
				c0.2-0.3,1.8-0.2,2.3-0.3c0.3-0.2,1.5-1.2,1.8-1.3c0.3-0.3,2.8-1.3,3.4-1.8s1.8-2.6,2.3-2.9c0.5-0.5-0.3-0.3-1-0.9
				c-0.6-0.3-0.3-1-0.2-1.2c0.2-0.2,2.1,0.3,2.8,0.6c0.6,0.3,1.9-0.6,1.5-1c-0.5-0.3-0.2-0.3,0-0.2c0.3,0.2,0.5-1.2,0.3-1.5
				c-0.3-0.3,1.9-1.9,1.6-3.4c-0.3-1.6,0.6-3.2,1.2-3.2s0.3-1.8-0.3-1.9c-0.9-0.2,0-0.3,0.3-0.5c0.3-0.3,0.6-1.8,0.5-2.1
				c-0.2-0.3,1.2-0.6,1.3-1c0.2-0.3,1.6-1.2,2.3-1.2C93.9,15.9,94.2,14.5,93.8,14.5z"/>
			<path class="st3" d="M106.6,15.9c-0.6-0.2-2.1,0.5-1.9,1s-1.2-0.5-1.9,0c-1,0.5-1.2,2.1-0.9,2.3c0.3,0.2,0.9,1.5,0.9,1.8
				s1.8,0,2.3-0.3s0.3,1.3,0,1.8c-0.5,0.5,0.2,1.3,0.6,1.5c0.5,0,1.2,1.2,1.6,1.2c0.5,0,1.5-1.9,1.6-2.8c0.2-0.9,1.9-0.2,2.8,0
				s1.2-2.8,0.2-3.2c-0.9-0.5-1.9-0.2-2.3-0.5c-0.3-0.3-1-0.6-1.3-0.6C107.6,17.8,107.3,16.2,106.6,15.9z"/>
			<path class="st3" d="M113.4,17.3c1.3,0.2,2.9-1,3.2-1.3c0.3-0.3-3.8-1.2-5.4-1.2s-2.8,0.2-2.8,0.5
				C108.3,15.6,112.1,17.2,113.4,17.3z"/>
			<path class="st3" d="M88,54.8c-0.3-0.2-0.5,1.2-0.5,1.6c0,0.4,1.3,0.5,1.9,0.3c0.5,0,1-0.5,1-1s-0.9-2.5-1.2-2.5
				C89,53.5,88.5,55,88,54.8z"/>
			<path class="st3" d="M92.1,38.9c-0.3-0.5-2.5-0.3-2.9-0.5c-0.5,0-2.1-0.5-2.5-0.9c-0.3-0.3-0.5,1.3-1,1.6
				c-0.5,0.2,0.3,0.5,0.5,0.3s0,0.9-0.2,1.2s1.5,0.6,1.6,1.2c0.2,0.5,0.9,0.9,1.5,0.9s1.9-0.9,2.5-0.9C92,41.6,92.5,39.3,92.1,38.9z
				"/>
			<path class="st3" d="M138,26.3c0.9-0.9,3.8-1.8,4.1-2.5c0.3-0.9-0.2-1.5-0.5-1.5s-0.6,0.3-0.9,0.5c0,0.2-3.6,1-4.6,1.5
				c-1.2,0.5-2.3,1.3-2.8,1.8s-1.2,3.9-1.5,4.4c-0.3,0.3,1.2,1.8,1.8,2.1s1.5,0.2,1.8,0.2s-0.3-2.5-0.6-3.2
				C134.5,28.7,137.1,27.2,138,26.3z"/>
			<path class="st3" d="M134.1,17.3c1.2,1.2,1.8-0.5,3.1-0.3C137.2,14.5,133.9,15.4,134.1,17.3z"/>
			<path class="st3" d="M156.7,17.8c0,0.3,3.2,0.9,4.1,0.6c1-0.2-0.2-1.6-1.6-1.6C158,16.9,156.9,17.3,156.7,17.8z"/>
			<path class="st3" d="M39.1,41.9c-0.3,0.3,0,1.9,0.6,1.9s1.6-2.5,2.5-1.9c0.9,0.5,1.3,0.6,1.2,0.3c-0.2-0.3-2.5-1.2-2.6-1.5
				C40.5,40.6,39.5,41.5,39.1,41.9z"/>
			<path class="st3" d="M47.4,95.8c0,0.3,1.5,0.2,1.6-0.2c0.2-0.3,0.2-0.9-0.3-0.9C48.4,94.8,47.4,95.4,47.4,95.8z"/>
			<path class="st3" d="M41.2,93.5c0.6-0.2,0.3,1,0.5,1.3s1.8,0.6,2.1,1c0.3,0.3,1.2-0.5,1.8-0.3c0.6,0-0.2-2.3-1.3-2.1
				c-1.2,0-1.9-1-2.1-1.2c-0.3-0.2-1.5-0.9-1.9-1.2c-0.3-0.3-3.1-0.5-4.1-0.5s-1.9,1-2.1,1.2C33.9,92,35.6,92.2,36,92
				c0.5-0.3,2.6,0.3,3.1,0.9C39.5,93.2,40.3,93.6,41.2,93.5z"/>
			<path class="st3" d="M38.2,95.8c0,0.3,1.5,0,1.8,0.2c0.3,0,0.3-0.2,0-0.5C39.5,95,38.2,95.4,38.2,95.8z"/>
			<path class="st3" d="M39.2,88.5c-0.3-0.2-0.6,0.3-0.6,0.6c0,0.3,0.2,0.5,0.5,0.5C39.2,89.5,39.5,88.6,39.2,88.5z"/>
			<path class="st3" d="M42.2,88.6c-0.2-0.3-0.9-0.5-1-0.5c-0.2,0-0.3,0.5-0.3,1C41,89.8,42.3,88.9,42.2,88.6z"/>
			<path class="st3" d="M44.3,92c0.6-0.3,0.6-1,0.3-1s-1-1-1.3-1.2s-0.6,0.6-0.6,1c0,0.3,0.2,0.5,0.5,0.5
				C43.3,91.2,43.8,92.2,44.3,92z"/>
			<path class="st3" d="M204,114.4c-0.3,0.2-1.6,0.3-1.9,0c-0.2-0.3-0.5,0.5-0.9,0.9c-0.3,0.2-0.2,0.9,0.3,0.6
				c0.3-0.2,1.6,0.6,2.8,1.3c0.2-1.2,0.3-2.1,0.6-3.2C204.7,114.1,204.3,114.3,204,114.4z"/>
		</g>
		<g>
			<circle class="st4" cx="109.3" cy="90.3" r="91.8"/>
		</g>
	</g>
	<g>
		<path class="st5" d="M168.2,117.3v-46c0-4.3-3.5-8-8-8H62.5c-4.3,0-8,3.5-8,8v46c0,4.3,3.5,8,8,8h97.7
			C164.6,125.1,168.2,121.5,168.2,117.3z"/>
		<rect x="71.7" y="67.8" class="st6" width="79.3" height="52.9"/>
		<path class="st7" d="M61.4,89.4c0-0.9,0.7-1.6,1.6-1.6h0.5c0.9,0,1.6,0.7,1.6,1.6V99c0,0.9-0.7,1.6-1.6,1.6H63
			c-0.9,0-1.6-0.7-1.6-1.6C61.4,98.9,61.4,89.4,61.4,89.4z"/>
		<g>
			<path class="st8" d="M159.5,96.4c-1.2,0-2.2-1-2.2-2.2s1-2.2,2.2-2.2s2.2,1,2.2,2.2C161.7,95.5,160.8,96.4,159.5,96.4z"/>
			<path class="st9" d="M159.5,95c-0.4,0-0.8-0.3-0.8-0.8s0.3-0.8,0.8-0.8s0.8,0.3,0.8,0.8S160,95,159.5,95z"/>
		</g>
	</g>
	<path class="st10" d="M128.4,93.6c0,9.6-7.8,17.3-17.3,17.3s-17.4-7.8-17.4-17.3c0-9.6,7.8-17.3,17.3-17.3S128.4,83.9,128.4,93.6z"
		/>
	<polygon class="st5" points="106.2,85.1 106.2,102.3 121.1,93.6 	"/>
</g>
</svg>
