<?xml version="1.0" encoding="utf-8"?>
<!-- Generator: Adobe Illustrator 25.3.1, SVG Export Plug-In . SVG Version: 6.00 Build 0)  -->
<svg version="1.1" id="Layer_1" xmlns="http://www.w3.org/2000/svg" xmlns:xlink="http://www.w3.org/1999/xlink" x="0px" y="0px"
	 viewBox="0 0 217.3 197.8" style="enable-background:new 0 0 217.3 197.8;" xml:space="preserve">
<style type="text/css">
	.st0{fill:#EBFAE3;}
	.st1{fill:#CDD3DA;}
	.st2{fill:#AAB5BD;}
	.st3{fill:#E6E5E5;}
	.st4{fill:#E6EAEE;}
	.st5{fill:#30363D;}
	.st6{fill:#F6F8FB;}
	.st7{fill:#CCD2D9;}
	.st8{fill:#E8E7E7;}
	.st9{fill:#89C658;}
	.st10{fill:#70BC44;}
	.st11{fill:#5FA344;}
</style>
<g>
	<circle class="st0" cx="108.6" cy="99" r="98.5"/>
	<g>
		<g>
			<g>
				<polygon class="st1" points="133.1,185.4 84.1,185.4 88.5,160.4 128.7,160.4 				"/>
				<polygon class="st2" points="133.1,185.4 128.7,160.4 88.5,160.4 120.6,185.4 				"/>
				<path class="st3" d="M146.3,189.2H70.9v-1.4c0-0.6,0.2-1.2,0.7-1.6c0.4-0.4,1-0.7,1.6-0.7h70.7c0.6,0,1.2,0.2,1.6,0.7
					c0.4,0.4,0.7,1,0.7,1.6L146.3,189.2L146.3,189.2z"/>
			</g>
			<path class="st4" d="M196.9,144.2v11.9c0,2.4-1.9,4.3-4.3,4.3h-168c-2.3,0-4.3-1.9-4.3-4.3v-11.9H196.9z"/>
			<path class="st5" d="M196.9,144.2V31.5c0-2.3-1.9-4.3-4.3-4.3h-168c-2.3,0-4.3,1.9-4.3,4.3v112.9H197L196.9,144.2L196.9,144.2z"
				/>
			<rect x="29.2" y="36.1" class="st6" width="158.9" height="99.3"/>
		</g>
		<g>
			<path class="st7" d="M107.9,48.9c-8.5,6.2-19.1,9.9-30.5,10v17.7c0,21.1,12.5,39.3,30.5,47.5c18-8.3,30.5-26.4,30.5-47.5V58.9
				C126.9,58.8,116.4,55.1,107.9,48.9z"/>
			<path class="st8" d="M107.9,48.9c-8.5,6.2-19.1,9.9-30.5,10v17.7c0,21.1,12.5,39.3,30.5,47.5V48.9z"/>
			<path class="st9" d="M107.9,54c-7.9,5.1-16.9,8.2-26.2,8.9v13.7c0,18.1,10.3,34.7,26.2,42.9c16-8.1,26.2-24.8,26.2-42.9V62.9
				C124.7,62.1,115.7,59.1,107.9,54z"/>
			<path class="st10" d="M82.7,86.8c3,14,12.3,26.1,25.2,32.8V86.8H82.7z"/>
			<path class="st10" d="M133,86.8c0.7-3.3,1.1-6.6,1.1-10.2V62.9c-9.4-0.7-18.4-3.8-26.2-8.9v32.8C107.9,86.8,133,86.8,133,86.8z"
				/>
			<path class="st11" d="M107.9,54c-7.9,5.1-16.9,8.2-26.2,8.9v13.7c0,18.1,10.3,34.7,26.2,42.9c16-8.1,26.2-24.8,26.2-42.9V62.9
				C124.7,62.1,115.7,59.1,107.9,54z M132.2,76.6c0,16.9-9.5,32.8-24.4,40.8c-14.8-8-24.3-23.9-24.3-40.8v-12c8.6-1,17-3.8,24.4-8.4
				c7.3,4.6,15.8,7.5,24.4,8.4v12C132.3,76.6,132.2,76.6,132.2,76.6z"/>
		</g>
	</g>
</g>
</svg>
