<?xml version="1.0" encoding="utf-8"?>
<!-- Generator: Adobe Illustrator 25.3.1, SVG Export Plug-In . SVG Version: 6.00 Build 0)  -->
<svg version="1.1" id="Layer_1" xmlns="http://www.w3.org/2000/svg" xmlns:xlink="http://www.w3.org/1999/xlink" x="0px" y="0px"
	 viewBox="0 0 426 268" style="enable-background:new 0 0 426 268;" xml:space="preserve">
<g>
	<g id="_x31_1_1_">
		<g>
			<g>
				<ellipse cx="225.3" cy="190.8" rx="8" ry="7.9"/>
			</g>
		</g>
		<g>
			<g>
				<path d="M332.8,222.9H143.1c-2.8,0-5.1-2.3-5.1-5.1c0-2.8,2.3-5.1,5.1-5.1h189.6c2.8,0,5.1,2.3,5.1,5.1
					C337.9,220.7,335.7,222.9,332.8,222.9z"/>
			</g>
		</g>
		<g>
			<g>
				<path d="M376.2,116.2c-2.8,0-5.1-2.3-5.1-5.1V23c0-7.2-5.8-12.8-13.1-12.8H92.5c-7.3,0-13.1,5.7-13.1,12.8v57.2
					c0,2.8-2.3,5.1-5.1,5.1c-2.8,0-5.1-2.3-5.1-5.1V23c0-12.7,10.6-23,23.4-23h265.4c13,0,23.4,10.3,23.4,23v88.2
					C381.4,113.9,379,116.2,376.2,116.2z"/>
			</g>
		</g>
		<g>
			<g>
				<path d="M263.9,267L263.9,267h-77.6c-1.4,0-2.8-0.6-3.7-1.7c-0.9-1.1-1.3-2.5-1-3.8l8.3-43.8c0.4-2.3,2.4-3.8,4.7-3.8h61.1
					c2.3,0,4.2,1.6,4.7,3.8l8.2,43.5c0.1,0.4,0.1,0.8,0.1,1.3C268.8,264.9,266.6,267,263.9,267z M192.2,257.4h65.9l-6.5-34.3h-52.9
					L192.2,257.4z"/>
			</g>
		</g>
		<g>
			<g>
				<path d="M277.2,267h-104c-2.7,0-4.8-2.1-4.8-4.7s2.1-4.7,4.8-4.7h104.1c2.7,0,4.8,2.1,4.8,4.7S279.9,267,277.2,267z"/>
			</g>
		</g>
		<g>
			<g>
				<path d="M332.8,170.4H143.1c-2.7,0-4.8-2.1-4.8-4.7c0-2.5,2.1-4.7,4.8-4.7h189.6c2.7,0,4.8,2.1,4.8,4.7
					C337.5,168.3,335.5,170.4,332.8,170.4z"/>
			</g>
		</g>
		<g>
			<g>
				<path d="M130.2,267h-112c-9.7,0-17.7-7.9-17.7-17.4V92.9c0-9.6,8-17.4,17.7-17.4h112c9.7,0,17.7,7.9,17.7,17.4v156.7
					C147.9,259.1,140.1,267,130.2,267z M18.1,85c-4.4,0-8,3.5-8,7.9v156.7c0,4.4,3.5,7.9,8,7.9h112c4.4,0,8-3.5,8-7.9V92.9
					c0-4.4-3.5-7.9-8-7.9C130.2,85,18.1,85,18.1,85z"/>
			</g>
		</g>
		<g>
			<g>
				<path d="M406.7,267h-61c-9.7,0-17.7-7.9-17.7-17.4V123.7c0-9.6,8-17.4,17.7-17.4h61c9.7,0,17.7,7.9,17.7,17.4v125.8
					C424.3,259.1,416.3,267,406.7,267z M345.7,115.9c-4.4,0-8,3.5-8,7.9v125.8c0,4.2,3.5,7.9,8,7.9h61c4.4,0,8-3.5,8-7.9V123.7
					c0-4.2-3.5-7.9-8-7.9H345.7z"/>
			</g>
		</g>
		<g>
			<g>
				<path d="M376.2,253.4c-2.7,0-4.8-2.1-4.8-4.8c0-2.5,2.1-4.8,4.8-4.8c2.7,0,4.8,2.1,4.8,4.8C381.1,251.3,378.8,253.4,376.2,253.4
					z"/>
			</g>
		</g>
		<g>
			<g>
				<ellipse cx="74.3" cy="245.7" rx="5.5" ry="5.4"/>
			</g>
		</g>
		<g>
			<g>
				<path d="M384.9,133.6h-18.8c-2.7,0-4.8-2.1-4.8-4.7c0-2.5,2.1-4.7,4.8-4.7h18.8c2.7,0,4.8,2.1,4.8,4.7
					C389.8,131.4,387.6,133.6,384.9,133.6z"/>
			</g>
		</g>
		<g>
			<g>
				<path d="M418.6,240.3h-84.9c-2.7,0-4.8-2.1-4.8-4.7s2.1-4.7,4.8-4.7h84.9c2.7,0,4.8,2.1,4.8,4.7S421.4,240.3,418.6,240.3z"/>
			</g>
		</g>
		<g>
			<g>
				<path d="M141.7,234.8H6.8c-2.7,0-4.8-2.1-4.8-4.7c0-2.5,2.1-4.7,4.8-4.7h135c2.7,0,4.8,2.1,4.8,4.7
					C146.5,232.7,144.3,234.8,141.7,234.8z"/>
			</g>
		</g>
	</g>
</g>
</svg>
