<?xml version="1.0" encoding="utf-8"?>
<!-- Generator: Adobe Illustrator 25.3.1, SVG Export Plug-In . SVG Version: 6.00 Build 0)  -->
<svg version="1.1" id="Layer_1" xmlns="http://www.w3.org/2000/svg" xmlns:xlink="http://www.w3.org/1999/xlink" x="0px" y="0px"
	 viewBox="0 0 426 268" style="enable-background:new 0 0 426 268;" xml:space="preserve">
<style type="text/css">
	.st0{fill:#010101;}
	.st1{fill:none;stroke:#010101;stroke-width:8;stroke-linecap:square;stroke-miterlimit:10;}
</style>
<g id="_x33_">
	<path class="st0" d="M287.4,268h-61.1c-6,0-10.8-4.9-10.8-10.9v-12c0-6.1,4.9-10.9,10.8-10.9h25.4c6,0,10.8,4.9,10.8,10.9v13.9
		h24.8c15.5,0,28.3-12.7,28.3-28.6V115.4C315.5,57.9,269.1,11,212.1,11S108.6,57.9,108.6,115.4v10.1h-8.8v-10.1
		C99.9,52.9,150.1,2,212.1,2c61.8,0,112.2,50.7,112.2,113.4v114.7C324.6,251,307.8,268,287.4,268z M226.3,243c-1.2,0-2,0.8-2,2v12
		c0,1.1,0.9,2,2,2h27.4v-13.8c0-1.1-0.9-2-2-2L226.3,243L226.3,243z"/>
	<path class="st0" d="M109,234.8H81c-16.6,0-30.1-13.9-30.1-31.1v-30.5c0-17.1,13.5-31.1,30.1-31.1h27.9L109,234.8L109,234.8z
		 M81,151.3c-11.7,0-21.4,10-21.4,22v30.5c0,12.1,9.6,22,21.4,22h19.1v-74.6H81L81,151.3z"/>
	<path class="st1" d="M336.7,230.3"/>
	<path class="st0" d="M347,234.8h-4.4v-9h4.4c10,0,18.1-8.1,18.1-18.2v-38.2c0-10-8-18.2-18.1-18.2h-31.3v-9H347
		c14.7,0,26.8,12.2,26.8,27.2v38.2C373.8,222.6,361.9,234.8,347,234.8z"/>
	<path class="st0" d="M109,234.8H77.7c-14.7,0-26.8-12.2-26.8-27.2v-38.2c0-15,12-27.2,26.8-27.2h9.6v9h-9.6
		c-10,0-18.1,8.1-18.1,18.2v38.2c0,10,8,18.2,18.1,18.2H109L109,234.8L109,234.8z"/>
</g>
</svg>
