<?xml version="1.0" encoding="utf-8"?>
<!-- Generator: Adobe Illustrator 25.3.1, SVG Export Plug-In . SVG Version: 6.00 Build 0)  -->
<svg version="1.1" id="Layer_1" xmlns="http://www.w3.org/2000/svg" xmlns:xlink="http://www.w3.org/1999/xlink" x="0px" y="0px"
	 viewBox="0 0 426 268" style="enable-background:new 0 0 426 268;" xml:space="preserve">
<g id="_x31_5">
	<g>
		<ellipse transform="matrix(0.2298 -0.9732 0.9732 0.2298 -20.332 358.2544)" cx="216.2" cy="192" rx="7.8" ry="7.8"/>
	</g>
	<g>
		<path d="M346.8,223.8H85.6c-12.5,0-22.7-10.2-22.7-22.7V23.7C62.9,11.2,73.1,1,85.6,1h261.2c12.5,0,22.7,10.2,22.7,22.7v177.4
			C369.4,213.6,359.3,223.8,346.8,223.8z M85.6,10.4c-7.3,0-13.3,5.9-13.3,13.3v177.4c0,7.3,5.9,13.3,13.3,13.3h261.2
			c7.3,0,13.3-5.9,13.3-13.3V23.7c0-7.3-5.9-13.3-13.3-13.3H85.6z"/>
	</g>
	<g>
		<path d="M254.3,268C254.3,268,254.3,268,254.3,268H178c-1.3,0-2.5-0.6-3.4-1.6c-0.8-1-1.2-2.3-0.9-3.6l8.1-43.9
			c0.4-2.1,2.2-3.6,4.3-3.6h60.1c2.1,0,3.9,1.5,4.3,3.6l8.1,43.6c0.1,0.4,0.1,0.7,0.1,1.1C258.8,266,256.8,268,254.3,268z
			 M183.3,259.2H249l-6.5-35.1h-52.7L183.3,259.2z"/>
	</g>
	<g>
		<path d="M267.4,268H165c-2.4,0-4.4-2-4.4-4.4c0-2.4,2-4.4,4.4-4.4h102.4c2.4,0,4.4,2,4.4,4.4C271.8,266,269.8,268,267.4,268z"/>
	</g>
	<g>
		<path d="M364.7,171.2H67.6c-2.4,0-4.4-2-4.4-4.4c0-2.4,2-4.4,4.4-4.4h297.1c2.4,0,4.4,2,4.4,4.4
			C369.1,169.2,367.2,171.2,364.7,171.2z"/>
	</g>
</g>
<g>
	<g>
		<path d="M200.5,110.9V65.1c0-1.6,0.8-3.1,2.3-3.9c1.4-0.8,3.1-0.8,4.5,0l39.9,22.9c1.4,0.8,2.3,2.3,2.3,3.9c0,1.7-0.9,3.1-2.3,3.9
			l-39.9,22.9c-1.4,0.8-3.1,0.8-4.5,0S200.5,112.6,200.5,110.9z"/>
	</g>
</g>
</svg>
