<?xml version="1.0" encoding="utf-8"?>
<!-- Generator: Adobe Illustrator 25.3.1, SVG Export Plug-In . SVG Version: 6.00 Build 0)  -->
<svg version="1.1" id="Layer_1" xmlns="http://www.w3.org/2000/svg" xmlns:xlink="http://www.w3.org/1999/xlink" x="0px" y="0px"
	 viewBox="0 0 426 268" style="enable-background:new 0 0 426 268;" xml:space="preserve">
<style type="text/css">
	.st0{fill:#020202;}
</style>
<g>
	<g>
		<path class="st0" d="M208.7,205.1c-13.3,0-24.1-10.8-24.1-24.1c0-13.3,10.8-24.1,24.1-24.1s24.1,10.8,24.1,24.1
			C232.8,194.2,222,205.1,208.7,205.1z M208.7,165.6c-8.5,0-15.3,6.9-15.3,15.3c0,8.5,6.9,15.3,15.3,15.3c8.5,0,15.3-6.9,15.3-15.3
			C224.2,172.4,217.2,165.6,208.7,165.6z"/>
		<path class="st0" d="M287.7,185.3c-2.4,0-4.4-2-4.4-4.4c0-13.1-3.5-26-10-37.3c-1.2-2.1-0.5-4.8,1.6-6c2.1-1.2,4.8-0.5,6,1.6
			c7.3,12.7,11.1,27.1,11.1,41.6C291.9,183.4,290.1,185.3,287.7,185.3z"/>
		<path class="st0" d="M129.7,185.3c-2.4,0-4.4-2-4.4-4.4c0-45.9,37.3-83.2,83.2-83.2c14.5,0,29.1,3.9,41.6,11.1
			c2.1,1.2,2.8,3.9,1.6,6s-3.9,2.8-6,1.6c-11.3-6.5-24.3-10-37.3-10c-41.1,0-74.6,33.5-74.6,74.6
			C134.1,183.3,132.3,185.3,129.7,185.3z"/>
		
			<rect x="179.7" y="196.4" transform="matrix(0.7071 -0.7072 0.7072 0.7071 -86.5672 192.4559)" class="st0" width="18.7" height="8.7"/>
		
			<rect x="211" y="137.2" transform="matrix(0.7071 -0.7071 0.7071 0.7071 -27.3534 216.9451)" class="st0" width="74.4" height="8.7"/>
	</g>
	<g id="_x31_4_1_">
		<g>
			<path class="st0" d="M338.3,268H85.6c-9.7,0-17.6-8-17.6-17.6V18.6C68,9,75.9,1,85.6,1h252.9c9.7,0,17.6,8,17.6,17.6v231.8
				C355.9,260.3,348.2,268,338.3,268z M85.6,10.1c-4.8,0-8.5,3.9-8.5,8.5v231.8c0,4.8,3.9,8.5,8.5,8.5h252.9c4.8,0,8.5-3.9,8.5-8.5
				V18.6c0-4.8-3.9-8.5-8.5-8.5L85.6,10.1z"/>
		</g>
		<g>
			<path class="st0" d="M351.4,52.7H72.5c-2.5,0-4.5-2-4.5-4.5c0-2.5,2-4.5,4.5-4.5h279c2.5,0,4.5,2,4.5,4.5
				C356.1,50.7,353.9,52.7,351.4,52.7z"/>
		</g>
		<g>
			<ellipse class="st0" cx="102" cy="27.1" rx="7.2" ry="7.2"/>
		</g>
		<g>
			<ellipse class="st0" cx="125.2" cy="27.1" rx="7.2" ry="7.2"/>
		</g>
		<g>
			<circle class="st0" cx="148.3" cy="27.1" r="7.2"/>
		</g>
	</g>
</g>
</svg>
