<?xml version="1.0" encoding="utf-8"?>
<!-- Generator: Adobe Illustrator 25.3.1, SVG Export Plug-In . SVG Version: 6.00 Build 0)  -->
<svg version="1.1" id="Layer_1" xmlns="http://www.w3.org/2000/svg" xmlns:xlink="http://www.w3.org/1999/xlink" x="0px" y="0px"
	 viewBox="0 0 426 268" style="enable-background:new 0 0 426 268;" xml:space="preserve">
<style type="text/css">
	.st0{fill:#020202;}
</style>
<g id="_x38__1_">
	<g>
		<polygon class="st0" points="326.1,267.4 98.7,267.4 98.7,91.8 326.1,91.8 326.1,98.9 105.8,98.9 105.8,260.2 318.9,260.2 
			318.9,113.4 326.1,113.4 		"/>
		<path d="M327.6,268.9H97.2V90.3h230.4v10.1H107.3v158.3h210.1V111.9h10.2V268.9z M100.2,265.9h224.4v-151h-4.2v146.8H104.3V97.4
			h220.3v-4.1H100.2V265.9z"/>
	</g>
	<g>
		<path class="st0" d="M280.4,99h-136V69.9c0-37.5,30.5-67.9,67.9-67.9c37.5,0,68,30.5,68,68V99z M151.6,91.9h121.8V70
			c0-33.6-27.3-60.9-60.9-60.9c-33.7,0-60.9,27.3-60.9,60.7V91.9z"/>
		<path d="M281.9,100.5h-139V69.9c0-38.3,31.1-69.4,69.4-69.4c38.3,0,69.5,31.2,69.5,69.5V100.5z M145.9,97.5h133V70
			c0-36.7-29.8-66.5-66.5-66.5c-36.6,0-66.4,29.8-66.4,66.4V97.5z M274.9,93.4H150.1V69.8c0-34.3,28-62.2,62.4-62.2
			c34.4,0,62.4,28,62.4,62.4V93.4z M153.1,90.4h118.8V70c0-32.8-26.6-59.4-59.4-59.4c-32.8,0-59.4,26.6-59.4,59.2V90.4z"/>
	</g>
	<g>
		<path class="st0" d="M248.7,98.9h-72.6v-29c0-20,16.3-36.3,36.3-36.3s36.3,16.3,36.3,36.3v10.2h-7.1V69.9
			c0-16-13.2-29.2-29.2-29.2s-29.2,13.2-29.2,29.2v21.9h65.5L248.7,98.9C248.8,98.9,248.7,98.9,248.7,98.9z"/>
		<path d="M250.3,100.4h-75.7V69.9c0-20.9,17-37.8,37.8-37.8s37.8,17,37.8,37.8v11.7h-10.1V69.9c0-15.3-12.4-27.7-27.7-27.7
			c-15.3,0-27.7,12.4-27.7,27.7v20.4h65.5V100.4z M177.6,97.4h69.7v-4.1h-65.5V69.9c0-16.9,13.8-30.7,30.7-30.7
			c16.9,0,30.7,13.8,30.7,30.7v8.7h4.1v-8.7c0-19.2-15.6-34.8-34.8-34.8c-19.2,0-34.8,15.6-34.8,34.8V97.4z"/>
	</g>
	<g>
		<path class="st0" d="M229.4,220h-33.9v-24.8c-8.5-5.5-13.7-15.1-13.7-25.4c0-16.8,13.7-30.5,30.6-30.5c16.8,0,30.5,13.7,30.5,30.5
			c0,10.2-5.1,19.8-13.7,25.4v6.1h-7.1v-10.3l1.9-1.1c7.3-4.3,12-12,12-20.3c0-12.9-10.5-23.4-23.4-23.4s-23.5,10.5-23.5,23.4
			c0,8.3,4.6,16.1,11.8,20.3l1.9,1.1v21.6h26.8v7.3H229.4z"/>
		<path d="M231.2,221.5H194v-25.5c-8.6-5.9-13.7-15.7-13.7-26.2c0-17.6,14.4-32,32.1-32c17.6,0,32,14.4,32,32
			c0,10.5-5.1,20.2-13.7,26.2v6.8h-10.1v-12.7l2.6-1.5c6.9-4,11.2-11.3,11.2-19c0-12.1-9.8-21.9-21.9-21.9c-12.1,0-22,9.8-22,21.9
			c0,7.8,4.2,15.1,11,19l2.6,1.5v21h26.8V221.5z M197,218.5h31.2v-4.3h-26.8V192l-1.1-0.7c-7.7-4.4-12.5-12.7-12.5-21.6
			c0-13.7,11.2-24.9,25-24.9c13.7,0,24.9,11.2,24.9,24.9c0,8.8-4.9,17-12.7,21.6l-1.1,0.7v7.9h4.1v-5.4l0.7-0.4
			c8.1-5.4,13-14.4,13-24.2c0-16-13-29-29-29c-16,0-29.1,13-29.1,29c0,9.9,4.9,18.9,13,24.2l0.7,0.4V218.5z"/>
	</g>
</g>
</svg>
