<?xml version="1.0" encoding="utf-8"?>
<!-- Generator: Adobe Illustrator 24.0.3, SVG Export Plug-In . SVG Version: 6.00 Build 0)  -->
<svg version="1.1" id="Layer_1" xmlns="http://www.w3.org/2000/svg" xmlns:xlink="http://www.w3.org/1999/xlink" x="0px" y="0px"
	 viewBox="0 0 19.5 10.3" style="enable-background:new 0 0 19.5 10.3;" xml:space="preserve">
<g id="_x30_C6tMa.tif">
	<g>
		<path d="M16.2,7.4c0-0.4,0-0.8,0-1.2c0.2,0,0.3,0,0.4,0c0.3,0,0.6,0,0.9-0.1c0.4-0.1,0.6-0.4,0.6-0.8c0.1-0.7,0-1.5,0-2.2
			c0-0.3,0-0.5-0.1-0.8c-0.1-0.4-0.4-0.7-0.9-0.7c-0.3,0-0.6,0-0.9,0c-0.1,0-0.1,0-0.1-0.1c0-0.3,0-0.7,0-1c0-0.1,0-0.1,0.1-0.1
			c0.5,0,1-0.1,1.5,0c0.9,0.2,1.4,0.7,1.6,1.6c0.1,0.6,0.2,1.2,0.2,1.8c0,0.6,0,1.1,0,1.7c0,0.4-0.1,0.8-0.3,1.2
			c-0.3,0.4-0.7,0.6-1.2,0.8c-0.4,0.1-0.8,0.1-1.2,0.1C16.4,7.5,16.3,7.4,16.2,7.4z"/>
		<path d="M12.1,7.6c-0.1,0-0.1,0-0.2,0c-0.1,0-0.2,0-0.2-0.1c-0.3-1.2-0.6-2.4-0.9-3.5c-0.3-1-0.5-2.1-0.8-3.1
			c-0.1-0.2,0-0.3,0.2-0.3c0.2,0,0.4,0,0.6,0c0.2,0,0.2,0,0.3,0.2c0.2,0.7,0.4,1.4,0.6,2.1c0.4,1.5,0.9,3,1.3,4.5c0,0.2,0,0.3,0,0.5
			c-0.1,0-0.2,0-0.3,0c-0.1,0-0.1,0-0.1,0.1c0,0.2,0,0.3-0.1,0.5c0.1,0,0.3,0,0.4,0.1c0,0.1,0,0.2,0,0.3c-0.2,0-0.3,0-0.4-0.1
			c0,0.3-0.1,0.6-0.1,0.9c0.1,0,0.3,0,0.4,0.1c0,0.1,0,0.2,0,0.3c-0.3,0-0.5-0.1-0.8-0.1C11.9,9,12,8.3,12.1,7.6z"/>
		<path d="M16.1,7.5c-0.4,0-0.8,0-1.1,0.1c-0.1,0-0.1-0.1-0.1-0.1c0-0.5,0-1.1-0.1-1.6c0-1-0.1-2-0.1-3.1c0-0.7-0.1-1.5-0.1-2.2
			c0-0.1,0-0.1,0.1-0.1c0.3,0,0.7,0,1,0c0.1,0,0.1,0,0.1,0.1c0,0.7,0.1,1.4,0.1,2.1C15.9,3.9,16,5.2,16,6.6c0,0.2,0,0.5,0,0.7
			C16.1,7.4,16.1,7.4,16.1,7.5z"/>
		<path d="M1.5,0.8c0.3,0,0.3-0.1,0.4,0.3c0.6,1.8,1.2,3.5,1.8,5.3c0,0,0,0.1,0,0.1c0.3,0.4,0.1,0.8,0,1.2c0,0-0.1,0.1-0.1,0.1
			c-0.2,0.1-0.3,0-0.4-0.2C2.9,6.8,2.6,5.9,2.2,5.1C1.9,4.2,1.6,3.3,1.3,2.5C1.2,2,1,1.6,0.9,1.2c0,0,0-0.1,0-0.1
			c0-0.1,0-0.2,0.1-0.2C1.1,0.8,1.3,0.8,1.5,0.8z"/>
		<path d="M1.1,8C1.1,8,1,8,0.9,8c-0.1,0-0.2,0-0.2-0.2c0-0.3,0-0.6,0-0.8c0-0.5,0-1.1-0.1-1.6c0-0.9-0.1-1.9-0.1-2.8
			c0-0.5,0-0.9-0.1-1.4c0-0.1,0-0.2,0.1-0.2c0,0,0.1,0.1,0.1,0.1C1,2,1.3,2.9,1.6,3.8c0,0.1,0,0.2,0,0.3c0,0.7,0.1,1.5,0.1,2.2
			c0,0.5,0,0.9,0.1,1.4c0,0.1,0,0.2-0.2,0.2C1.5,7.9,1.1,8,1.1,8z"/>
		<path d="M4.8,4C4.7,3.6,4.9,3.3,5,2.8c0.2-0.7,0.5-2,0.5-2.1c0-0.1,0.1-0.1,0.1-0.1c0.1,0,0.1,0.1,0.1,0.1c0,0.1,0,0.2,0,0.4
			c0,0.7,0.1,1.5,0.1,2.2C5.9,4.2,5.9,5,6,5.8C6,6.4,6,7,6,7.5c0,0.2,0,0.2-0.2,0.2c-0.2,0-0.5,0-0.7,0C5,7.8,5,7.8,5,7.6
			c0-1-0.1-2-0.1-3.1C4.8,4.4,4.8,4.2,4.8,4z"/>
		<path d="M8.3,7.7c-0.1,0-0.2,0-0.3,0c-0.1,0-0.2-0.1-0.2-0.2C8,6.8,8.2,6.1,8.3,5.4c0-0.2,0.1-0.2,0.2-0.2c0.6,0,1.2,0,1.8-0.1
			c0.1,0,0.3,0,0.4,0c0.1,0,0.2,0,0.2,0.1C11,5.5,11.1,5.8,11.1,6c0,0.1,0,0.2-0.2,0.2c-0.3,0-0.6,0-1,0c-0.2,0-0.3,0-0.5,0
			c-0.1,0-0.1,0-0.1,0.1c0,0.2-0.1,0.3-0.1,0.5c0,0.1,0,0.2,0,0.4c0,0.2,0,0.4-0.1,0.7C9.2,8.3,9.1,8.6,9.1,9c0,0.2-0.2,0.4-0.5,0.4
			C8.2,9.3,8.1,9.1,8.2,8.7c0,0,0,0,0-0.1C8.2,8.3,8.3,8,8.3,7.7z M8.9,7.8C8.9,7.8,8.9,7.7,8.9,7.8c-0.1-0.1-0.2-0.1-0.3,0
			c0,0.2-0.1,0.4-0.1,0.7c0,0.2-0.1,0.3-0.1,0.5c0,0.1,0,0.2,0.1,0.2C8.7,9.1,8.8,9,8.8,9C8.8,8.6,8.9,8.2,8.9,7.8z"/>
		<path d="M5.3,0.9c0,0.2-0.1,0.4-0.1,0.6C5,2.3,4.8,3.1,4.6,3.9C4.4,4.6,4.2,5.4,4,6.2c0,0,0,0.1,0,0.1c0,0-0.1,0.1-0.1,0.1
			c0,0-0.1-0.1-0.1-0.1C3.7,6.1,3.7,5.9,3.6,5.7c0-0.1,0-0.2-0.1-0.3c-0.1-0.3-0.1-0.5,0-0.8c0.3-1,0.5-2.1,0.8-3.1
			c0.1-0.2,0.1-0.4,0.1-0.6c0-0.1,0.1-0.2,0.2-0.2c0.2,0,0.4,0,0.6,0C5.3,0.7,5.3,0.7,5.3,0.9z"/>
		<path d="M9.5,0.6c0.1,0,0.2,0,0.2,0.2c0.1,0.5,0.2,0.9,0.4,1.4c0,0.1,0,0.3,0,0.4C9.9,3.3,9.8,4,9.7,4.8C9.6,5,9.6,5,9.4,5
			C9.2,5,8.9,5,8.6,5C8.4,5,8.4,5,8.4,4.8c0.2-1.1,0.5-2.2,0.7-3.4c0-0.2,0.1-0.4,0.1-0.7C9.3,0.6,9.3,0.6,9.5,0.6z"/>
		<path d="M7.3,9.1c-0.1,0-0.2,0-0.3,0C7.1,8.4,7.2,7.7,7.3,7c0,0,0,0,0,0c-0.2,0.7-0.3,1.3-0.5,2C6.7,9,6.5,9,6.4,9
			c0-0.7,0.1-1.4,0.1-2.1c0,0,0,0,0,0C6.4,7.6,6.3,8.3,6.2,9C6.1,9,6,9,5.9,8.9C6,8.1,6.1,7.3,6.3,6.5c0.2,0,0.3,0,0.5,0.1
			c0,0,0,0.1,0,0.1c0,0.6-0.1,1.1-0.1,1.7c0,0,0,0,0,0c0-0.2,0.1-0.3,0.1-0.4C6.9,7.6,7,7.1,7.1,6.7c0,0,0.1-0.1,0.1-0.1
			c0.1,0,0.3,0,0.5,0.1C7.5,7.5,7.4,8.3,7.3,9.1z"/>
		<path d="M10.4,7.4c-0.1,0.7-0.2,1.4-0.3,2.2c-0.1,0-0.2,0-0.3,0C10,8.7,10.1,7.9,10.2,7c0.2,0,0.4,0,0.5,0.1c0,0.7,0,1.5,0,2.2
			c0,0,0,0,0,0c0.1-0.7,0.2-1.4,0.3-2.2c0.1,0,0.2,0,0.3,0C11.2,8,11.1,8.8,11,9.7c-0.2,0-0.3,0-0.5-0.1c0,0-0.1-0.1-0.1-0.1
			c0-0.6,0-1.3,0-1.9C10.5,7.5,10.5,7.4,10.4,7.4C10.4,7.4,10.4,7.4,10.4,7.4z"/>
		<path d="M13.9,8.7c0.1-0.3,0.2-0.7,0.4-1c0.1,0,0.2,0,0.3,0.1c-0.1,0.2-0.2,0.4-0.2,0.6c-0.1,0.3-0.3,0.6-0.4,1
			c-0.1,0.3-0.1,0.5-0.1,0.8c0,0,0,0,0,0c-0.3,0-0.3,0-0.3-0.3c0-0.2,0.1-0.4,0.1-0.6c0-0.1,0-0.2,0-0.3c0-0.4-0.1-0.8-0.1-1.2
			c0,0,0,0,0-0.1c0.1,0,0.2,0,0.3,0c0,0,0.1,0.1,0.1,0.1C13.9,8,13.9,8.3,13.9,8.7C13.9,8.6,13.9,8.7,13.9,8.7z"/>
	</g>
</g>
</svg>
