<?xml version="1.0" encoding="utf-8"?>
<!-- Generator: Adobe Illustrator 25.3.1, SVG Export Plug-In . SVG Version: 6.00 Build 0)  -->
<svg version="1.1" id="Layer_1" xmlns="http://www.w3.org/2000/svg" xmlns:xlink="http://www.w3.org/1999/xlink" x="0px" y="0px"
	 viewBox="0 0 217 40" style="enable-background:new 0 0 217 40;" xml:space="preserve">
<style type="text/css">
	.st0{fill:#FFFFFF;}
</style>
<g id="fAAQ80.tif_1_">
	<g>
		<path class="st0" d="M95,1.8C95,1.8,95,2.3,95,1.8c0,12.1,0,23.8,0,35.5c0,0.5,0,0.5,0.5,0.5c2.3,0,5.1,0,7.5,0h0.5v-0.5
			c0-5.1,0-10.7,0-15.9c0,0,0-0.5,0.5-0.5c1.4-1.9,3.7-2.3,6.1-2.3c1.4,0,2.3,0.9,2.3,2.3c0,0.5,0,0.9,0,1.9c0,4.7,0,9.8,0,14.5
			c0,0.5,0,0.5,0.5,0.5c2.3,0,5.1,0,7.5,0h0.5v-0.5c0-6.1,0-12.1,0-18.2c0-0.5,0-1.4,0-1.9c-0.5-2.8-1.9-4.7-4.7-5.6
			c-1.9-0.5-3.3-0.5-5.1-0.5c-2.8,0.5-5.1,1.4-7,3.3c0,0,0,0-0.5,0c0-4.2,0-8.9,0-13.1C100.6,1.8,97.8,1.8,95,1.8z M69.8,34.5
			c0.9,0.5,1.4,1.4,2.3,1.9c3.3,1.4,6.5,2.3,9.8,2.3c2.3,0,4.2-0.5,6.5-1.4c2.8-1.4,5.6-3.7,5.1-7.9c0-1.4-0.5-3.3-1.9-4.2
			c-0.9-1.4-2.3-1.9-4.2-2.8c-1.9-0.9-4.2-0.9-6.1-1.4c-0.9,0-1.9-0.5-2.8-0.5c-0.9-0.5-0.9-1.4-0.5-1.9c0.5-0.5,0.9-0.5,1.4-0.5
			c0.9-0.5,2.3,0,3.3,0c2.3,0.5,4.2,1.4,6.1,2.8c0.9-1.9,2.3-3.7,3.3-6.1c0,0,0,0-0.5-0.5c-2.8-1.9-5.6-2.8-8.4-3.3
			c-2.3-0.5-4.7,0-7,0.9c-3.7,1.4-6.5,4.7-6.1,9.3c0.5,1.9,0.9,3.3,2.3,4.2c1.4,0.9,2.8,1.9,4.2,1.9c2.8,0.5,4.7,0.5,6.5,0.9
			c0.9,0,1.4,0.5,1.9,0.9c0.5,0,0.5,0.5,0.5,1.4c0,0.9-0.9,0.9-1.4,1.4c-0.9,0.5-1.9,0.5-3.3,0c-2.8-0.5-5.6-1.4-7.9-3.3l0,0
			C72.1,30.3,71.2,32.6,69.8,34.5z M178.5,1.8c0,12.1,0,23.8,0,35.9c2.8,0,5.6,0,8.4,0c0-12.1,0-23.8,0-35.9
			C184.1,1.8,181.3,1.8,178.5,1.8z"/>
		<path class="st0" d="M1.6,1.8c4.2,0,8.4,0,12.6,0c0.5,0,0.5,0,0.5,0.5c2.3,6.5,4.7,12.6,7,19.1v0.5c0.5-0.9,0.9-1.9,1.4-3.3
			C25,13,27.3,7.9,29.2,2.3c0,0,0-0.5,0.5-0.5c4.2,0,8.4,0,12.1,0c0,0,0,0,0.5,0v0.5c0,11.7,0,23.3,0,35c0,0.5,0,0.5-0.5,0.5
			c-2.8,0-5.6,0-8.4,0c-0.5,0-0.5,0-0.5-0.5c0-7.5,0-14.9,0-22.4c0-0.5,0-0.5,0-0.5l0,0l0,0c-2.8,7.9-6.1,15.4-8.9,22.9
			c0,0.5,0,0.5-0.5,0.5c-0.9,0-2.3,0-3.3,0c-0.5,0-0.5,0-0.5-0.5C17,29.8,13.8,22.4,11,14.4c0,0,0-0.5-0.5-0.5v0.5
			c0,7.5,0,14.9,0,22.4c0.5,0.9,0.5,0.9,0,0.9c-2.8,0-5.6,0-8.4,0H1.6C1.6,25.6,1.6,14,1.6,1.8z"/>
		<path class="st0" d="M165.9,38.2c-0.5,0-1.4,0-1.9-0.5c-1.9,0-3.7-0.9-5.1-2.8c0,0,0,0-0.5-0.5c0,0.9,0,1.9,0,2.8
			c-2.8,0-5.6,0-8.4,0c0-12.1,0-23.8,0-35.9c2.8,0,5.6,0,8.4,0c0,4.2,0,8.4,0,13.1c0.5,0,0.5,0,0.5,0c1.9-2.3,4.7-3.3,7.5-3.3
			c5.1,0,8.4,2.8,9.8,7.5c1.9,4.7,1.4,9.3-0.5,13.5c-1.4,3.3-4.2,5.6-7.5,6.1c-0.5,0-1.4,0-1.9,0.5
			C166.4,38.2,166.4,38.2,165.9,38.2z M158.4,24.7c0,1.4,0,2.3,0,3.7c0,0.5,0,0.5,0.5,0.5c0.9,0.9,1.9,1.4,2.8,1.9
			c2.8,0.9,5.6-0.5,7-2.8c0.5-1.4,0.9-2.8,0.5-4.2c0-1.4-0.9-2.8-1.9-4.2c-2.8-2.3-6.5-1.4-8.4,0.9V21
			C158.4,22.4,158.4,23.8,158.4,24.7z"/>
		<path class="st0" d="M52.5,38.2c-0.9,0-1.4,0-2.3-0.5c-2.8-0.9-5.1-2.3-6.1-5.1c-0.5-2.8-0.5-5.6,1.4-7.9c1.4-1.9,2.8-2.3,5.1-2.8
			c2.8-0.5,5.1-0.5,7.9,0.9c0.5,0,1.4,0.9,2.3,1.4l0,0v-0.5c0-0.9,0-1.4,0-2.3c0-1.4-0.5-2.3-1.9-3.3c-0.9-0.5-1.9-0.9-3.3-0.9
			c-2.8,0-5.1,0.9-7.5,2.3c0,0,0,0-0.5,0.5c-0.5-0.9-1.4-2.8-2.3-4.7c0,0,0,0,0.5-0.5c2.3-1.9,4.7-2.8,7.5-3.3
			c2.8-0.5,6.1-0.5,8.9,0.5c2.3,0.5,4.2,1.9,5.6,3.7c0.9,1.4,1.4,2.8,1.4,4.2c0,0.9,0,1.9,0,2.8c0,5.1,0,9.8,0,14.9
			c0,0.5,0,0.5-0.5,0.5c-2.3,0-4.7,0-7.5,0h-0.5c0-0.9,0-1.9,0-2.3l0,0c-1.4,1.9-3.7,2.3-6.1,2.8c-0.5,0-1.4,0-1.9,0
			C53,38.2,53,38.2,52.5,38.2z M60.9,29.8c0.5-1.4-0.5-1.9-1.4-2.3l0,0C58.6,27,57.6,27,56.2,27c-0.9,0-1.9,0-2.8,0.9
			c-0.9,0.5-1.4,1.4-0.9,2.8c0,1.4,0.9,1.9,1.9,2.3c0.9,0,1.9,0,3.3,0c0.9,0,1.9-0.5,2.8-1.4c0.5-0.5,0.5-0.5,0.5-1.4
			C60.9,30.3,60.9,30.3,60.9,29.8z"/>
		<path class="st0" d="M130.9,38.2c-0.9,0-1.4,0-2.3-0.5c-2.8-0.9-5.1-2.3-6.1-5.1c-0.9-2.8-0.9-5.6,1.4-8.4
			c1.4-1.4,2.8-2.3,4.7-2.8c2.8-0.5,5.6-0.5,7.9,0.9c0.9,0.5,1.9,0.9,2.3,1.9l0,0c0-0.9,0-1.9,0-3.3c0-1.4-0.9-1.9-1.9-2.3
			c-1.4-0.5-2.8-0.9-4.2-0.5c-2.3,0-4.7,0.9-6.1,2.8l0,0v-0.5c-0.9-1.9-1.9-3.3-2.8-5.1c0-0.5,0-0.5,0-0.5c2.3-1.9,4.7-2.8,7.5-3.3
			c2.8-0.5,6.1-0.5,8.9,0.5c2.3,0.5,4.2,1.9,5.6,3.7c0.9,1.4,1.4,2.8,1.4,4.7c0,0.5,0,1.4,0,1.9c0,5.1,0,10.3,0,15.4v0.5h-0.5
			c-2.3,0-5.1,0-7.5,0c-0.5,0-0.5,0-0.5-0.5c0-0.5,0-1.4,0-1.9l0,0c-1.4,0.9-3.3,1.9-5.6,2.3c-0.5,0-1.4,0-1.9,0
			C131.4,38.2,130.9,38.2,130.9,38.2z M139.3,29.8c0.5-1.4-0.5-1.9-1.4-2.3l0,0C137,27,136,27,134.6,27c-0.9,0-1.9,0.5-2.8,0.9
			c-0.9,0.9-1.4,1.9-0.9,2.8c0.5,0.9,0.9,1.9,1.9,1.9c0.5,0.5,1.9,0.5,2.8,0.5s1.9-0.5,2.8-1.4c0.5-0.5,0.5-0.5,0.5-0.9
			C138.8,30.3,139.3,30.3,139.3,29.8z"/>
		<path class="st0" d="M215.4,27.5c-0.5,0-0.9,0-1.4,0c-5.6,0-11.2,0-16.8,0h-0.5c0,0.5,0,0.5,0.5,0.9c0.9,1.9,2.3,2.8,4.2,3.3
			c2.8,0.5,5.6,0,8.4-1.9c1.4,1.9,2.3,3.7,3.7,5.6c-0.9,0.9-2.3,1.9-3.7,2.3c-4.2,1.4-8.4,1.9-12.6,0.5c-5.1-1.9-7.9-5.1-8.4-10.3
			c-0.5-3.7,0-7.5,2.3-10.7c2.3-2.8,5.1-4.7,8.9-5.1c2.8-0.5,5.6,0,8.4,0.9c3.3,1.9,5.6,4.7,6.5,8.4c0.5,1.4,0.5,2.3,0.5,3.7v0.5
			C215.4,25.6,215.4,26.6,215.4,27.5z M207.4,21.9C207.4,21.9,207.4,21.4,207.4,21.9c-0.5-1.9-1.4-3.3-2.8-3.7
			c-1.4-0.5-2.8-0.5-4.7,0c-1.4,0.5-2.8,1.4-3.3,3.3v0.5C200.4,21.9,203.7,21.9,207.4,21.9z"/>
		<path class="st0" d="M95,1.8c2.8,0,5.6,0,8.4,0c0,4.2,0,8.9,0,13.1c0,0,0,0,0.5,0c1.9-1.9,4.2-3.3,7-3.3c1.9,0,3.7,0,5.1,0.5
			c2.8,0.9,4.2,2.8,4.7,5.6c0,0.5,0,1.4,0,1.9c0,6.1,0,12.1,0,18.2v0.5h-0.5c-2.3,0-5.1,0-7.5,0c-0.5,0-0.5,0-0.5-0.5
			c0-4.7,0-9.8,0-14.5c0-0.5,0-0.9,0-1.9c-0.5-1.4-1.4-2.3-2.8-2.8c-2.3-0.5-4.7,0.5-6.1,2.3l-0.5,0.5c0,5.1,0,10.7,0,15.9v0.5l0,0
			c-2.3,0-5.1,0-7.5,0c-0.5,0-0.5,0-0.5-0.5C95,25.6,95,14,95,1.8C95,2.3,95,1.8,95,1.8z"/>
		<path class="st0" d="M69.8,34.5c0.9-1.9,2.3-3.7,3.3-6.1l0,0c2.3,1.9,5.1,2.8,7.9,3.3c0.9,0,2.3,0,3.3,0c0.5,0,1.4-0.5,1.4-1.4
			c0-0.5,0-0.9-0.5-1.4c-0.5,0-0.9,0-1.9-0.5c-1.9-0.5-3.7-0.5-5.6-0.9c-1.4-0.5-3.3-0.9-4.2-1.9c-1.4-0.9-2.3-2.8-2.3-4.2
			c-0.5-4.7,2.3-7.9,6.1-9.3c2.3-0.9,4.7-0.9,7-0.9c3.3,0.5,6.1,1.4,8.4,3.3c0,0,0,0,0.5,0.5c-0.9,1.9-2.3,3.7-3.3,6.1
			c-1.9-1.4-3.7-2.3-6.1-2.8c-0.9,0-2.3-0.5-3.3,0c-0.5,0-0.9,0.5-1.4,0.5c-0.5,0.5-0.5,1.4,0.5,1.4c0.9,0.5,1.9,0.5,2.8,0.5
			c1.9,0.5,4.2,0.5,6.1,1.4c1.4,0.5,2.8,1.4,4.2,2.8c0.9,1.4,1.4,2.8,1.9,4.2c0.5,4.2-2.3,6.5-5.1,7.9c-1.9,0.9-4.2,0.9-6.5,1.4
			c-3.3,0-7-0.5-9.8-2.3C71.6,35.4,70.7,35,69.8,34.5z"/>
		<path class="st0" d="M178.5,1.8c2.8,0,5.6,0,8.4,0c0,12.1,0,23.8,0,35.9c-2.8,0-5.6,0-8.4,0C178.5,25.6,178.5,14,178.5,1.8z"/>
	</g>
</g>
</svg>
