<?xml version="1.0" encoding="utf-8"?>
<!-- Generator: Adobe Illustrator 24.0.3, SVG Export Plug-In . SVG Version: 6.00 Build 0)  -->
<svg version="1.1" id="Layer_1" xmlns="http://www.w3.org/2000/svg" xmlns:xlink="http://www.w3.org/1999/xlink" x="0px" y="0px"
	 viewBox="0 0 67.9 14.8" style="enable-background:new 0 0 67.9 14.8;" xml:space="preserve">
<style type="text/css">
	.st0{fill-rule:evenodd;clip-rule:evenodd;}
</style>
<g>
	<path class="st0" d="M51.5,3.6l3.8,8.3L57,8.5l1.7,3.4l3.8-8.3h-1.9l-2,4.6l-0.7-1.5l1.4-3h-1.8l-0.5,1l-0.5-1.1h-1.7l1.4,3
		l-0.7,1.6l-2.1-4.5L51.5,3.6L51.5,3.6L51.5,3.6z M16.4,3.3l5,4.7V3.6H23v8.1l-5-4.8v4.5h-1.6V3.3L16.4,3.3z M23.9,3.6h3.4
		c0.5,0,2,0.4,2,2c0,1.2-0.9,1.7-0.9,1.7c0.6,0.3,1.4,0.9,1.4,2.1s-1.1,2.1-2,2.1h-3.9V3.6L23.9,3.6z M25.6,6.8h1.2
		c0.5-0.1,0.9-0.4,0.9-1s-0.5-0.9-0.9-0.9h-1.2V6.8z M25.6,10.3H27c0.4,0,1-0.3,1-1.1c0-0.7-0.6-1-0.9-1h-1.5V10.3L25.6,10.3
		L25.6,10.3z M35.9,5.3c-1.7-1.1-4,0-4.2,2.1c-0.1,2.5,2.5,3.6,4.2,2.5v1.6c-3,1.1-5.8-1-5.8-4.1c0-2.6,2.9-4.9,5.8-3.8V5.3
		L35.9,5.3z M65.4,8.6C63,7,63.2,7.2,63,6.9c-0.2-0.3-0.7-1.7,0.5-2.9C64.6,2.7,67,3.8,67,3.8v1.6c0,0-2-1.2-2.5-0.1
		C63.9,6.4,66,7,66,7s1.4,0.8,1.5,1.7c0.1,0.9,0,2.6-1.4,3c0,0-1.4,0.8-3.2-0.2V9.7c0,0,0.8,0.9,1.9,0.8
		C65.9,10.3,66.2,9.1,65.4,8.6L65.4,8.6L65.4,8.6z M46.7,3.5v8h4.4v-1.3h-2.7V8.3h2.7V6.8h-2.7V5h2.7V3.5H46.7L46.7,3.5z M39.3,3.3
		l5,4.7V3.6h1.6v8.2l-5-4.8v4.6h-1.6V3.3z"/>
	<path class="st0" d="M12.2,8.3l-4,2.7l1.4-3.2l0.5-1.6c0.3-0.5,0.8-0.8,1.3-0.8s1,0.2,1.3,0.7c0.3,0.4,0.3,1.2,0,1.6
		C12.6,7.9,12.4,8.1,12.2,8.3L12.2,8.3L12.2,8.3L12.2,8.3z"/>
	<path class="st0" d="M10.2,5.7l-2,4.7L8.1,9.9L7.5,6c0-0.2,0.1-0.4,0.3-0.6L8,5.3c0-0.1,0-0.1-0.1-0.1H7.4c0-0.6,0.2-1.1,0.7-1.4
		C8.4,3.6,9,3.5,9.4,3.7c0.5,0.2,0.9,0.8,0.9,1.4C10.3,5.3,10.2,5.5,10.2,5.7L10.2,5.7L10.2,5.7L10.2,5.7z"/>
	<path class="st0" d="M6.3,10.4l-2-4.7C4.1,5.2,4.2,4.5,4.6,4.1s0.9-0.6,1.5-0.4c0.5,0.1,0.9,0.5,1,1c0.1,0.2,0,0.4,0,0.6L6.3,10.4
		L6.3,10.4L6.3,10.4z"/>
	<path class="st0" d="M2.1,8.1C1.7,7.7,1.5,7.3,1.6,6.7c0.1-0.5,0.5-1.1,1-1.2c0.5-0.2,1.1,0,1.5,0.4C4.2,6,4.3,6.2,4.4,6.4L6.3,11
		L2.1,8.1L2.1,8.1L2.1,8.1z"/>
	<path class="st0" d="M1.7,11.4c-0.5,0-0.9-0.3-1.2-0.8C0.3,10.1,0.3,9.4,0.7,9C1,8.6,1.6,8.3,2.1,8.5c0.2,0,0.4,0.1,0.6,0.2
		l4.1,2.7H1.7z"/>
	<path class="st0" d="M12.8,11.4c0.5-0.1,0.9-0.3,1.2-0.8s0.2-1.2-0.2-1.6c-0.4-0.4-0.9-0.7-1.4-0.6c-0.2,0-0.4,0.1-0.6,0.2
		l-4.1,2.8H12.8L12.8,11.4L12.8,11.4z"/>
</g>
</svg>
