<?xml version="1.0" encoding="utf-8"?>
<!-- Generator: Adobe Illustrator 24.0.3, SVG Export Plug-In . SVG Version: 6.00 Build 0)  -->
<svg version="1.1" id="Layer_1" xmlns="http://www.w3.org/2000/svg" xmlns:xlink="http://www.w3.org/1999/xlink" x="0px" y="0px"
	 viewBox="0 0 358 71" style="enable-background:new 0 0 358 71;" xml:space="preserve">
<g id="PEpin0.tif_1_">
	<g>
		<path d="M353.4,3.7c0,21,0,41.9,0,62.9c-3.6,0-7.1,0-10.9,0c0-14.8,0-29.1,0-43.9c-2.4,15-4.7,29.4-7,43.8c-2.8,0-5-0.1-7.3,0
			c-2.3,0.2-3-0.7-3.3-3c-2-13-4.2-25.9-6.4-38.9c-0.2,0-0.3,0-0.5,0c0,13.9,0,27.8,0,41.6c-3.6,0-6.9,0-10.1,0
			c0-20.9,0-41.7,0-62.5c5.1,0,9.9,0,14.9,0c2.4,14,4.7,27.8,7.1,41.6c0.3,0,0.5-0.1,0.8-0.1c2.4-13.9,4.9-27.7,7.4-41.6
			C343.5,3.7,348.5,3.7,353.4,3.7z"/>
		<path d="M287.1,68c-1.8,0.3-6.9-0.2-7.2-0.2c-7.9-0.6-10.8-5.9-12.2-13c-2.4-12.1-2.4-24.4-0.5-36.6c0.9-5.6,2.6-11.1,8.4-13.8
			c1.9-0.9,4-1.3,6-1.9c1.8,0,3.6,0,5.4,0c7.8,1.3,12.2,6.1,13.7,13.8c2.5,12.7,2.7,25.5,0.1,38.2c-1,5-3.2,9.7-8.4,11.9
			C290.8,67,289,67.7,287.1,68z M277.8,34.6c0.4,6.6,0.7,13,1.2,19.4c0.3,2.9,1.3,5.6,4.9,5.8c3.1,0.2,5.2-1.3,5.7-5.4
			c1.5-13.2,1.8-26.4-0.3-39.6c-0.1-0.9-0.4-1.8-0.9-2.5c-1.8-3-6.3-3.1-8.1-0.1c-0.7,1.1-1.2,2.5-1.3,3.8
			C278.5,22.3,278.2,28.6,277.8,34.6z"/>
		<path d="M191.1,2.4c1,0.2,2,0.2,3,0.5c4.2,1.4,7.2,4.2,8.2,8.4c1.1,4.4,1.8,8.6,2,13.9c-4.2,0-7.6,0-11.7,0c0-2.3,0.1-4.6,0-6.9
			c-0.1-1.6-0.1-3.3-0.8-4.6c-0.9-1.4-2.4-3.1-3.9-3.4c-2.3-0.5-4.1,1.1-4.7,3.4c-0.6,2.4-1.2,4.9-1.2,7.3c0.1,11.3,0.4,22.7,0.8,34
			c0.1,2.9,1.7,4.9,4.9,4.9c3.3,0.1,5.6-1.4,6.1-4.7c0.6-4,0.8-8.2,1.2-12.5c-2.5-0.2-4.3-0.3-6.3-0.5c0-2.7,0-5.3,0-8.3
			c4.7,0,9.4-0.1,14.1,0.1c0.6,0,1.8,1.1,1.8,1.7c0.1,10.1,0.1,20.2,0.1,30.2c-4.5,2.2-5.5-1.6-6.7-3.3c-3.1,1.9-5.7,4.4-8.9,5.3
			c-1.5,0.4-3.2,0.2-4.7,0c-10.9-1-13.5-10.2-14-19.4c-0.5-8.7-0.5-17.5,0.1-26.2c0.6-9.5,3.2-19,14.6-20
			C187.1,2.2,189.1,2,191.1,2.4z"/>
		<path d="M62.5,2.7c10.2,2.9,15.4,12,12.7,22.3c-0.2,0.7-1.3,1.5-2,1.6c-2.8,0.2-5.6,0.1-8.9,0.1c0-2.3,0.1-4.5,0-6.7
			c-0.1-2-0.3-4-0.7-6c-0.5-2.3-1.9-3.9-4.4-3.9c-2.7,0-4.1,1.8-4.6,4.2c-0.5,2.5-1.1,5.1-1.1,7.7c0,10,0.1,20,0.3,30.1
			c0,1.3,0.4,2.7,0.7,4c0.6,2.4,2,3.9,4.7,4c2.8,0.1,4.7-1.3,5.1-3.9c0.6-3.9,0.7-7.8,1-11.7c0.1-1,0-2,0-3.1c3.3,0,6.5,0,10,0
			c1,5.8,0.6,11.3-0.8,16.8c-1.5,6.2-6.1,9.3-11.9,10c-2,0.2-6.9-0.2-7.3-0.2c-6.9-0.8-10.8-5.4-12.3-12c-0.8-3.4-1.4-6.8-1.6-10.3
			c-0.8-10.4-0.9-20.9,1.8-31.1c1.3-5,3.9-9.1,9.2-10.8c1.4-0.4,3.5-1.1,5-1.1C60.1,2.3,62.3,2.7,62.5,2.7z"/>
		<path d="M243.2,68c-0.1-0.1-0.2-0.2-0.3-0.2c-11.2-1.3-14.6-9.4-15-18.8c-0.5-10.3-0.1-20.6,0.7-30.9c0.4-5.8,2.7-11.2,8.6-14
			c1.7-0.8,3.5-1.5,5.4-1.8c1.8-0.3,3.6,0,5.4,0c5.1,0,9.3,3.3,10.9,6.4c2.9,5.6,2.8,11.6,2.1,17.8c-3.6,0-7,0-10.4,0
			c0-1,0-1.8,0-2.5c-0.2-3.3-0.3-6.5-0.8-9.7c-0.4-2.4-1.8-4.3-4.5-4.3c-2.5,0-3.9,1.5-4.5,3.8c-0.4,1.4-0.9,2.8-0.9,4.3
			c-0.1,11.5-0.1,23,0,34.4c0,1.3,0.4,2.7,0.9,3.9c0.8,2.3,2.3,3.5,4.8,3.4c2.5,0,4.2-1.2,4.8-3.5c0.6-2.4,0.9-4.9,1-7.3
			c0.2-2.6,0-5.3,0-8c3.1,0,5.8-0.2,8.5,0.1c0.8,0.1,2.1,1.5,2,2.2c-0.2,4.9-0.3,9.9-1.3,14.7s-4.4,8-9.4,9
			c-0.9,0.2-1.7,0.5-2.5,0.8C246.8,68,245,68,243.2,68z"/>
		<path d="M3.8,66.6c0-21,0-41.9,0-62.9c6,0,11.9-0.1,17.9,0c7.9,0.2,13.1,4.5,14.5,12.4c0.6,3.5,0.8,7.2,0.6,10.7
			c-0.8,10.7-6,15.3-16.6,15.3c-1.3,0-2.6,0-4.3,0c0,8.3,0,16.1,0,24.3C11.6,66.6,7.7,66.6,3.8,66.6z M16,33.4c4.6,1,7.2-0.1,8-4.3
			c0.7-3.9,0.8-8.1,0.2-12C23.5,12.4,21,11.2,16,12C16,19.2,16,26.3,16,33.4z"/>
		<path d="M126.4,66.4c-3.3,0-6.5,0-10.2,0c0-14.3,0-28.6,0-43c-0.1,0-0.2,0-0.3,0c-2.3,14.3-4.5,28.5-6.8,42.9c-3.5,0-6.6,0-10.1,0
			c-2.2-13.4-4.4-26.9-6.7-40.3c-0.1,0-0.3,0-0.4,0c0,13.4,0,26.7,0,40.3c-3.6,0-6.8,0-10.2,0c0-20.7,0-41.5,0-62.4
			c4.9,0,9.5,0,14.7,0c2.3,13.8,4.7,27.7,7.1,41.6c0.3,0,0.6,0,0.8,0c2.4-13.8,4.8-27.6,7.3-41.6c4.9,0,9.7,0,14.8,0
			C126.4,24.7,126.4,45.4,126.4,66.4z"/>
		<path d="M155.8,66.3c-0.6-3-1.2-5.9-1.7-8.9c-0.3-1.8-1-2.4-2.8-2.5c-7.1-0.3-7.1-0.4-8.4,6.6c-0.3,1.5-0.6,3.1-1,5.1
			c-1.7,0-3.5,0-5.2,0c-1.8,0-3.6,0-5.7,0c1.4-7.6,2.8-15,4.2-22.3c2.4-12.5,4.9-24.9,7.2-37.4c0.5-2.6,1.4-3.7,4.1-3.5
			c2.7,0.2,5.4,0,8.5,0c4.4,21,8.7,41.8,13.1,63C164.1,66.3,160.2,66.3,155.8,66.3z M152,46.4c-1-8.4-2-16.2-3-24.1
			c-0.2,0-0.4,0-0.6,0c-1,8-1.9,15.9-2.9,24.1C147.9,46.4,149.7,46.4,152,46.4z"/>
		<path d="M223.1,66.4c-4.1,0-8.1,0-12.4,0c0-4.4,0-8.6,0-13.1c4.1,0,8.1,0,12.4,0C223.1,57.5,223.1,61.7,223.1,66.4z"/>
	</g>
</g>
</svg>
