<?xml version="1.0" encoding="utf-8"?>
<!-- Generator: Adobe Illustrator 24.0.3, SVG Export Plug-In . SVG Version: 6.00 Build 0)  -->
<svg version="1.1" id="Layer_1" xmlns="http://www.w3.org/2000/svg" xmlns:xlink="http://www.w3.org/1999/xlink" x="0px" y="0px"
	 viewBox="0 0 57.3 14.4" style="enable-background:new 0 0 57.3 14.4;" xml:space="preserve">
<g>
	<path d="M56.2,5.2V3.1h-0.8c0,0,0,0.6-1,1.5C53.5,5.2,52,5.2,52,5.2v1.2h0.8v5h3.4v-5H57V5.2H56.2z"/>
	<path d="M47.9,5.2c-2.2,0-3.8,1.2-3.8,3.1c0,2.1,1.6,3.1,3.8,3.1s3.8-1,3.8-3.1C51.6,6.4,50,5.2,47.9,5.2 M48.3,10.2
		c0,0,0,0.2-0.4,0.2s-0.4-0.2-0.4-0.2V6.4c0,0,0-0.2,0.4-0.2s0.4,0.2,0.4,0.2V10.2z"/>
	<path d="M39.5,5.2c0,0-4.6-0.6-4.6,3.1c0,3.2,3.8,3.1,3.8,3.1h0.6h4V3.1h-3.8V5.2z M39.5,10.2h-0.4c-0.2,0-0.8-0.6-0.8-2.1
		c0-1.7,0.4-1.7,0.4-1.7h0.8V10.2z"/>
	<path d="M4.5,5c0-0.2,0.4-0.2,0.4-0.2h0.8V3.9c0,0-1.2-0.8-2.3-0.8c-3.1,0-3.1,1.4-3.1,2.1c0,0.6,0.4,1.1,0.8,2
		c0.5,1.1,1.1,1.9,0.7,2.4C1.6,9.8,1.1,9.8,1.1,9.8H0.3V11c0,0,0.3,0.1,0.6,0.2c1,0.2,1.9,0.2,2.3,0.2c1.2,0,2.9-0.4,2.9-2.1
		C6.1,8.3,4.5,5.9,4.5,5L4.5,5L4.5,5z"/>
	<rect x="7" y="3.1" width="3.8" height="8.3"/>
	<path d="M18.4,5.8c-0.7-0.5-1.9-0.6-2.5-0.6c-1.9,0-2.9,0.4-3.3,0.6c-0.1,0-0.1,0.3-0.1,0.5c0,0.2,0.1,0.4,0.1,0.4s0.6-0.2,2.5-0.2
		c0,0,0.2,0,0.2,0.4s-0.2,0.4-0.2,0.4h-0.6c-0.6,0-1.4,0.1-1.8,0.3C12,8,11.6,8.4,11.6,9.4c0,1.5,1.2,2.1,1.2,2.1h6.7V6.9
		C19.5,6.8,19.5,6.4,18.4,5.8 M15.3,10.6h-0.4c-0.2,0-0.4-0.4-0.4-1.2c0-1.2,0.4-1.2,0.4-1.2h0.4V10.6z"/>
	<path d="M24.1,6.6c0-0.2,0.3-0.2,0.3-0.2c0.3,0,0.5,0,0.5,0V5.6c0,0-1.2-0.4-2.1-0.4c-2.4,0-2.5,1-2.5,1.5s0.3,1,0.6,1.7
		c0.4,0.8,0.9,1.5,0.6,1.9c-0.2,0.1-0.5,0.1-0.5,0.1h-0.7v0.8c0,0,0.6,0.2,1.7,0.2h0.7c0.8,0,2.7-0.3,2.7-1.6c0-0.8-1.2-2.6-1.2-3.1
		L24.1,6.6L24.1,6.6z"/>
	<path d="M32,5c-1.2,0-2.1,0.4-2.1,0.4V3.1h-3.8v8.3h3.8v-5c0,0,0-0.2,0.4-0.2s0.4,0.2,0.4,0.2v5H34V6.2C34.1,6.2,34.1,5,32,5"/>
</g>
</svg>
