<?xml version="1.0" encoding="utf-8"?>
<!-- Generator: Adobe Illustrator 24.0.3, SVG Export Plug-In . SVG Version: 6.00 Build 0)  -->
<svg version="1.1" id="Layer_1" xmlns="http://www.w3.org/2000/svg" xmlns:xlink="http://www.w3.org/1999/xlink" x="0px" y="0px"
	 viewBox="0 0 57.3 10.3" style="enable-background:new 0 0 57.3 10.3;" xml:space="preserve">
<g>
	<polygon points="0.2,2.7 0.2,3.9 1.8,3.9 1.8,7.9 3.2,7.9 3.2,3.9 4.8,3.9 4.8,2.7 	"/>
	<polygon points="9.3,7.9 9.3,6.7 6.9,6.7 6.9,5.9 9.3,5.9 9.3,4.7 6.9,4.7 6.9,3.9 9.3,3.9 9.3,2.7 5.6,2.7 5.6,7.9 	"/>
	<g>
		<path d="M12.7,8c1.2,0,1.9-0.7,2.3-1.4l-1.1-0.5c-0.2,0.4-0.6,0.7-1.1,0.7c-0.8,0-1.4-0.7-1.4-1.5s0.6-1.5,1.4-1.5
			c0.5,0,0.9,0.3,1.1,0.7L15,4c-0.3-0.7-1-1.4-2.3-1.4c-1.6,0-2.8,1.1-2.8,2.7S11.2,8,12.7,8"/>
	</g>
	<polygon points="20.4,7.9 20.4,2.7 19.1,2.7 19.1,4.7 16.9,4.7 16.9,2.7 15.6,2.7 15.6,7.9 16.9,7.9 16.9,5.8 19.1,5.8 19.1,7.9 	
		"/>
	<g>
		<path d="M30.9,6.7h-0.8V3.9h0.8c0.9,0,1.4,0.6,1.4,1.4C32.4,6.1,31.8,6.7,30.9,6.7 M30.9,7.9c1.6,0,2.8-1,2.8-2.6
			s-1.2-2.6-2.8-2.6h-2.2v5.2H30.9L30.9,7.9z"/>
	</g>
	<rect x="39.7" y="2.7" width="1.3" height="5.2"/>
	<g>
		<path d="M44.1,8c1.4,0,2.2-0.7,2.2-1.7c0-1.9-2.9-1.4-2.9-2.1c0-0.2,0.2-0.4,0.6-0.4c0.5,0,1.1,0.2,1.5,0.5l0.7-1
			c-0.5-0.5-1.3-0.7-2.1-0.7c-1.3,0-2.1,0.8-2.1,1.6c0,2,2.9,1.4,2.9,2.1c0,0.2-0.3,0.4-0.7,0.4c-0.7,0-1.3-0.3-1.7-0.7l-0.7,1
			C42.3,7.7,43,8,44.1,8"/>
		<path d="M49.4,6.8c-0.9,0-1.4-0.7-1.4-1.5s0.5-1.5,1.4-1.5s1.4,0.7,1.4,1.5C50.8,6.2,50.3,6.8,49.4,6.8 M49.4,8
			c1.6,0,2.8-1.1,2.8-2.7S51,2.6,49.4,2.6s-2.8,1.1-2.8,2.7S47.9,8,49.4,8"/>
		<path d="M55.1,5H54V3.9h1.1c0.3,0,0.6,0.2,0.6,0.6C55.8,4.8,55.5,5,55.1,5 M57.2,7.9L56.1,6c0.5-0.2,1-0.7,1-1.5
			c0-1-0.7-1.7-1.8-1.7h-2.6V8H54V6.2h0.7l0.9,1.7H57.2z"/>
	</g>
	<polygon points="25.4,2.2 22.6,7.9 24.1,7.9 25.5,5.2 26.8,7.9 28.3,7.9 	"/>
	<polygon points="37.7,2.7 36.3,5.5 35,2.7 33.5,2.7 36.3,8.4 39.2,2.7 	"/>
</g>
</svg>
