<?xml version="1.0" encoding="utf-8"?>
<!-- Generator: Adobe Illustrator 24.0.3, SVG Export Plug-In . SVG Version: 6.00 Build 0)  -->
<svg version="1.1" id="Layer_1" xmlns="http://www.w3.org/2000/svg" xmlns:xlink="http://www.w3.org/1999/xlink" x="0px" y="0px"
	 viewBox="0 0 22.4 7.8" style="enable-background:new 0 0 22.4 7.8;" xml:space="preserve">
<g>
	<path d="M9.8,1.7C9.4,1.4,8.9,1.2,8.4,1.2H5.4v5.4h2V3.3h0.6c0.2,0,0.3,0.1,0.5,0.2l0.7,0.6c0.1,0.1,0.2,0.3,0.2,0.5v2h2V4.3
		c0-0.5-0.2-1-0.6-1.4L9.8,1.7z"/>
	<path d="M20.3,1.2v2c0,0.2-0.1,0.3-0.2,0.5l-0.7,0.7c-0.1,0.1-0.3,0.2-0.5,0.2h-1C18,4.4,18.1,4,18.1,3.6V1.2h-2v2
		c0,0.2-0.1,0.3-0.2,0.5l-0.7,0.7c-0.1,0.1-0.3,0.2-0.5,0.2h-0.6V1.2h-2v5.4H15c0.5,0,1-0.2,1.4-0.6l0.7-0.7v1.3h2
		c0.5,0,1-0.2,1.4-0.6l1.1-1.1c0.4-0.4,0.6-0.9,0.6-1.4V1.2H20.3z"/>
	<polygon points="0.1,3.3 1.4,3.3 1.4,6.6 3.4,6.6 3.4,3.3 4.7,3.3 4.7,1.2 0.1,1.2 	"/>
</g>
</svg>
