<?xml version="1.0" encoding="utf-8"?>
<!-- Generator: Adobe Illustrator 25.2.1, SVG Export Plug-In . SVG Version: 6.00 Build 0)  -->
<svg version="1.1" id="Layer_1" xmlns="http://www.w3.org/2000/svg" xmlns:xlink="http://www.w3.org/1999/xlink" x="0px" y="0px"
	 viewBox="0 0 301 105" style="enable-background:new 0 0 301 105;" xml:space="preserve">
<style type="text/css">
	.st0{clip-path:url(#SVGID_2_);}
	.st1{fill:#FFFFFF;}
</style>
<g>
	<g>
		<defs>
			<rect id="SVGID_1_" x="3.4" y="16.8" width="293.7" height="70.5"/>
		</defs>
		<clipPath id="SVGID_2_">
			<use xlink:href="#SVGID_1_"  style="overflow:visible;"/>
		</clipPath>
		<g class="st0">
			<rect x="-1.8" y="7.3" width="316.2" height="80"/>
			<rect x="-0.3" y="74.4" class="st1" width="316.2" height="3.2"/>
			<rect x="-1.8" y="77.6" width="316.2" height="37.2"/>
		</g>
	</g>
</g>
<path class="st1" d="M297.2,16.8v70.5H3.4V16.8H297.2 M300.1,13.9h-2.9H3.4H0.5v2.9v70.5v2.9h2.9h293.7h2.9v-2.9V16.8V13.9
	L300.1,13.9z"/>
<g>
	<path class="st1" d="M56.8,61.8c0-0.9,0-31,0-31h-9.7c0,0,0,28.8,0,29.6c0,4.6-3.9,7.4-9.5,7.4c-6.3,0-9.8-2.7-9.8-7.4
		c0-0.8,0-29.6,0-29.6h-9.7c0,0,0,29.4,0,30.4c0,10.4,8.3,14.6,19.3,14.6c7.6,0,13.8-2.1,17-6.3v5.7h8.7v-9h-6.9
		C56.6,64.9,56.8,63.4,56.8,61.8z"/>
	<path class="st1" d="M103.3,62.4c0-7.6-4.6-11.2-13.4-12.9c-1-0.2-3.9-0.8-6.2-1.2c-7.2-1.5-9.9-2.8-9.9-6c0-2.5,1.5-4.2,8.8-4.2
		c5.6,0,8,1.3,9.2,3.8c0.3,0.7,0.6,1.7,0.6,2.2h10c0-1.1-0.4-2.8-1-4.3c-2.2-5.6-7.5-9.5-18.6-9.5c-13,0-19.1,5.1-19.1,12.6
		c0,7.4,5.3,11.3,14,13c2,0.4,5.2,1,6.5,1.2c7.2,1.3,9,2.6,9,6.3c0,2.9-2.4,4.8-9.1,4.8c-5.9,0-8.8-1.1-10.1-3.7
		c-0.3-0.7-0.6-2-0.6-2.8h-10c0,0.9,0.2,3.1,0.6,4.5c1.8,5.6,6.6,9.7,20,9.7c8.4,0,14-2.4,16.9-6.3v5.7h8.7v-9h-7
		C103.1,65,103.3,63.8,103.3,62.4z"/>
	<polygon class="st1" points="141.1,59.4 124,30.8 112.7,30.8 112.7,75.2 122,75.2 122,45.2 139.8,75.2 150.3,75.2 150.3,30.8 
		141.1,30.8 	"/>
	<path class="st1" d="M171.8,41.7c-7.1,0-12.8,2.7-16,7.3c-1.8,2.6-2.9,5.9-2.9,9.7c0,4.1,0.9,7.4,2.5,9.9c3.2,5,9,7.1,16.3,7.1
		c5.3,0,9.3-1.1,12.1-3c3.3-2.1,5.2-5.1,5.9-8.2h-9.3c-0.2,0.7-1,1.8-2.7,2.6c-1.4,0.6-3.3,1.1-6,1.1c-3.6,0-6.2-0.9-7.6-2.4
		c-1.1-1.3-1.8-2.4-1.8-3.9h27.7c0.5-4.9-0.4-9.6-2.8-13.2C184.4,44.5,179.3,41.7,171.8,41.7z M162.3,55.6c0-1,0.9-2.9,2-3.9
		c1.6-1.4,4.1-2.3,7.5-2.3c3.6,0,5.8,1.1,7.2,2.5c1.2,1.3,1.6,2.8,1.6,3.8L162.3,55.6L162.3,55.6z"/>
	<path class="st1" d="M239.2,42.5l-7.7,24.3l-7.4-24.3h-10.6l-7.2,24.3l-7.9-24.3h-9.9l11.7,32.7h11.3c0,0,6.4-18.8,6.5-19.9
		c0.1-0.4,0.4-2.3,0.4-2.3s0.4,1.9,0.4,2.4c0.1,1.1,6.5,19.9,6.5,19.9h11.2l11.8-32.7C248.6,42.5,239.2,42.5,239.2,42.5z"/>
	<path class="st1" d="M271.2,55.3c-1.1-0.2-5.7-0.8-7.6-1.1c-4.6-0.7-5.7-1.3-5.7-2.7c0-1.5,1.6-2.4,6.8-2.4c4.5,0,6.2,0.8,6.9,1.7
		c0.3,0.4,0.4,1.4,0.4,1.8h9.2c0-0.7-0.2-2.7-0.6-3.9c-1.7-4.7-7.3-7-16.3-7c-10.5,0-15.8,3.8-15.8,9.6c0,6.3,3.5,9.4,10.7,10.4
		c2,0.3,5.9,0.9,7.1,1.1c4.8,0.7,6.8,1.1,6.8,3c0,1.9-1.7,2.9-7.1,2.9c-5.2,0-7.7-0.4-8.3-2c-0.2-0.7-0.3-1.3-0.3-1.7H248
		c0,1.1,0.1,2,0.4,3.3c1.4,5.4,6.6,7.6,17.7,7.6c11.3,0,16.4-3.5,16.4-10.2C282.5,59.5,279,56.5,271.2,55.3z"/>
	<path class="st1" d="M158.4,39.8c0.8,0,1.8-0.1,2.5-0.4c0.1,0.1,0.3,0.2,0.4,0.3h3.4c-0.6-0.5-1.3-1-1.9-1.5
		c0.7-0.7,1.2-1.6,1.2-2.8h-2.5c0,0.5-0.2,1-0.5,1.4c-0.5-0.4-1-0.9-1.4-1.2c0.9-0.6,1.8-1.3,1.8-2.5c0-0.1,0-0.3,0-0.4
		c-0.1-1.1-1.1-2.1-2.8-2.1c-1.9,0-2.9,1-3,2.1c0,0.1,0,0.4,0,0.5c0,0.5,0.2,1.2,0.7,1.9c-1.1,0.5-2,1.1-2,2.1c0,0.1,0,0.3,0,0.5
		C154.4,39.4,156.3,39.8,158.4,39.8z M158,33.2c0-0.3,0.2-0.6,0.6-0.6c0.4,0,0.6,0.3,0.6,0.6c0,0,0,0.1,0,0.2c0,0.3-0.3,0.6-0.8,0.9
		c-0.2-0.3-0.3-0.6-0.4-0.8C157.9,33.4,157.9,33.3,158,33.2z M157.6,36.7c0.4,0.4,0.9,0.8,1.4,1.2c-0.2,0.1-0.5,0.1-0.8,0.1
		c-0.9,0-1.3-0.2-1.3-0.6C156.9,37.2,157.2,36.9,157.6,36.7z"/>
	<path class="st1" d="M172.4,39.7c0,0,1.4-5.1,1.4-5.4c0,0.3,1.4,5.4,1.4,5.4h3l2.5-8.9h-2.6c0,0-1.3,5.5-1.3,5.8
		c0-0.3-1.4-5.8-1.4-5.8h-2.8c0,0-1.3,5.5-1.3,5.8c0-0.3-1.4-5.8-1.4-5.8h-2.9l2.6,8.9H172.4z"/>
	<path class="st1" d="M185.5,39.9c3.3,0,4.8-1.5,4.8-4.7c0-3-1.4-4.5-4.8-4.5c-3.3,0-4.8,1.7-4.8,4.6
		C180.7,38.3,182.2,39.9,185.5,39.9z M185.5,32.8c1.5,0,2,0.7,2,2.5c0,2-0.7,2.5-2,2.5c-1.3,0-2-0.6-2-2.5
		C183.5,33.5,184,32.8,185.5,32.8z"/>
	<path class="st1" d="M194.1,36.7h1.8l1.6,3h3.1l-2.1-3.6c0.4-0.1,0.8-0.4,1.1-0.8c0.2-0.4,0.4-1,0.4-1.7c0-0.8-0.2-1.4-0.5-1.9
		c-0.5-0.6-1.2-0.9-2.4-0.9h-5.6v8.9h2.7V36.7z M194.1,32.9h2.3c0.4,0,0.7,0.1,0.8,0.4c0.1,0.1,0.1,0.4,0.1,0.6c0,0.2,0,0.4-0.1,0.6
		c-0.1,0.2-0.4,0.3-0.7,0.3h-2.4V32.9z"/>
	<polygon class="st1" points="208.9,37.5 204.6,37.5 204.6,30.8 201.9,30.8 201.9,39.7 208.9,39.7 	"/>
	<path class="st1" d="M218.4,38.5c0.5-0.7,0.6-1.4,0.6-3.3c0-1.6-0.1-2.4-0.7-3.1c-0.6-0.8-1.6-1.2-3.2-1.2h-4.9v8.9h5
		C216.9,39.7,217.8,39.3,218.4,38.5z M213,37.6v-4.7h1.7c0.7,0,1,0.1,1.3,0.5c0.2,0.3,0.3,1.1,0.3,1.7c0,0.7,0,1.7-0.3,2
		c-0.3,0.4-0.7,0.5-1.4,0.5L213,37.6L213,37.6z"/>
	<path class="st1" d="M226.2,36.7h1.8l1.6,3h3.1l-2.1-3.6c0.4-0.1,0.8-0.4,1.1-0.8c0.2-0.4,0.4-1,0.4-1.7c0-0.8-0.2-1.4-0.5-1.9
		c-0.5-0.6-1.2-0.9-2.4-0.9h-5.6v8.9h2.7V36.7z M226.2,32.9h2.3c0.4,0,0.7,0.1,0.8,0.4c0.1,0.1,0.1,0.4,0.1,0.6c0,0.2,0,0.4-0.1,0.6
		c-0.1,0.2-0.4,0.3-0.7,0.3h-2.4V32.9z"/>
	<polygon class="st1" points="241.7,37.7 236.8,37.7 236.8,36.3 241.5,36.3 241.5,34.2 236.8,34.2 236.8,32.9 241.7,32.9 
		241.7,30.8 234.1,30.8 234.1,39.7 241.7,39.7 	"/>
	<path class="st1" d="M246.2,37c0,0,2.4,0,2.7,0c1.1,0,2-0.3,2.5-0.9c0.4-0.5,0.7-1.2,0.7-2.2c0-1.1-0.3-1.9-0.8-2.3
		c-0.5-0.5-1.3-0.7-2.3-0.7h-5.5v8.9h2.7L246.2,37L246.2,37z M246.2,32.9h2.2c0.5,0,0.7,0.1,0.9,0.4c0.1,0.1,0.1,0.4,0.1,0.6
		c0,0.3,0,0.4-0.1,0.6c-0.1,0.2-0.4,0.4-0.9,0.4c0,0-2.1,0-2.1,0L246.2,32.9L246.2,32.9z"/>
	<path class="st1" d="M257.8,39.9c3.3,0,4.8-1.5,4.8-4.7c0-3-1.4-4.5-4.8-4.5c-3.3,0-4.8,1.7-4.8,4.6
		C253.1,38.3,254.5,39.9,257.8,39.9z M257.8,32.8c1.5,0,2,0.7,2,2.5c0,2-0.7,2.5-2,2.5c-1.3,0-2-0.6-2-2.5
		C255.8,33.5,256.4,32.8,257.8,32.8z"/>
	<path class="st1" d="M266.5,36.7h1.8l1.6,3h3.1l-2.1-3.6c0.4-0.1,0.8-0.4,1.1-0.8c0.2-0.4,0.4-1,0.4-1.7c0-0.8-0.2-1.4-0.5-1.9
		c-0.5-0.6-1.2-0.9-2.4-0.9h-5.6v8.9h2.7V36.7z M266.5,32.9h2.3c0.4,0,0.7,0.1,0.8,0.4c0.1,0.1,0.1,0.4,0.1,0.6c0,0.2,0,0.4-0.1,0.6
		c-0.1,0.2-0.4,0.3-0.7,0.3h-2.4V32.9z"/>
	<polygon class="st1" points="276,39.7 278.8,39.7 278.8,33 281.6,33 281.6,30.8 273.2,30.8 273.2,33 276,33 	"/>
</g>
</svg>
