<?xml version="1.0" encoding="UTF-8"?>
<svg xmlns="http://www.w3.org/2000/svg" width="318" height="111" viewBox="0 0 318 111" fill="none">
  <g clip-path="url(#clip0_3760_1060)">
    <path d="M57.1273 14.9783C61.2635 14.9783 64.6165 11.6253 64.6165 7.48915C64.6165 3.35301 61.2635 0 57.1273 0C52.9912 0 49.6382 3.35301 49.6382 7.48915C49.6382 11.6253 52.9912 14.9783 57.1273 14.9783Z" fill="#BEBEBE"></path>
    <path d="M92.2793 33.2039C92.8503 32.2432 93.3132 31.2222 93.6594 30.1596C95.7803 24.4362 92.0865 19.6362 85.0337 19.6565L26.3078 19.8696C19.6 19.7986 15.5409 24.5579 17.5705 29.1448L19.7624 33.2039H92.2996" fill="#BEBEBE"></path>
    <path d="M29.1191 19.829H26.3081C25.9327 19.829 25.5775 19.829 25.2223 19.829H25.0295C24.6889 19.8465 24.3498 19.8872 24.0147 19.9508H23.8321H23.6088C22.3962 20.1887 21.2372 20.6461 20.189 21.3004C19.986 21.4527 19.8033 21.6252 19.5902 21.7571L19.3365 21.9296C18.898 22.2996 18.5031 22.7184 18.1594 23.1778C17.477 24.1304 17.0762 25.2557 17.0025 26.4251C16.9767 27.3115 17.1501 28.1923 17.5099 29.0027L19.5395 32.7574L19.7019 33.0619H35.9385L29.1191 19.829ZM85.0848 19.626H83.0552L76.4286 33.2039H92.2797L92.7566 32.3008C92.8479 32.1283 92.9291 31.9557 93.0103 31.7832C93.2031 31.357 93.4162 30.7684 93.6699 30.1291V30.0276C94.0994 28.8985 94.2651 27.686 94.1543 26.483C94.0435 25.28 93.6591 24.1182 93.0306 23.0865C91.5592 20.9757 88.7786 19.626 85.0543 19.626" fill="#BEBEBE"></path>
    <path fill-rule="evenodd" clip-rule="evenodd" d="M76.4282 33.1837H92.2792V33.2141L90.0263 37.5473L81.904 53.1H66.6475L76.4282 33.1837ZM64.1289 53.1V33.204H49.2115L49.227 53.1H64.1289ZM46.1383 53.1L35.9583 33.1837H19.7217L30.5328 53.1H46.1383ZM40.7922 72L49.2419 87.5663C49.3637 87.7388 50.7946 90.3975 50.9062 90.6106C52.5907 92.8635 54.5797 94 56.5586 94C59.0347 94 61.4904 92.2343 63.3272 88.7028L64.1492 87.14L64.6566 86.1253L72.0335 72H40.7922Z" fill="#BEBEBE"></path>
    <path fill-rule="evenodd" clip-rule="evenodd" d="M0.899902 50.1H109.2V75H0.899902V50.1ZM106.2 53.1V72H3.8999V53.1H106.2Z" fill="#BEBEBE"></path>
    <path d="M19.2997 67.6V62.7L16.9997 66.6H15.3997L12.9997 62.9V67.6H9.69971V56.9H12.6997L16.1997 62.6L19.5997 56.9H22.5997V67.6H19.2997Z" fill="#BEBEBE"></path>
    <path d="M36.7999 64.9V67.6H27.8999V56.9H36.5999V59.6H31.4999V60.9H35.9999V63.5H31.4999V64.9H36.7999Z" fill="#BEBEBE"></path>
    <path d="M51.3998 67.6V62.7L48.9998 66.7H47.3998L45.0998 63V67.7H41.7998V56.9H44.7998L48.2998 62.6L51.6998 56.9H54.6998V67.6H51.3998Z" fill="#BEBEBE"></path>
    <path d="M70.1 63.1C70.4 63.5 70.6 64.1 70.6 64.7C70.6 65.6 70.2 66.4 69.4 66.9C68.6 67.4 67.5 67.7 66 67.7H60V56.9H65.7C67.1 56.9 68.2 57.2 68.9 57.7C69.6 58.2 70 58.9 70 59.7C70 60.2 69.9 60.6 69.6 61C69.3 61.4 69 61.7 68.5 62C69.2 62.3 69.7 62.6 70.1 63.1ZM63.6 59.5V61H65.3C66.1 61 66.5 60.7 66.5 60.2C66.5 59.7 66.1 59.4 65.3 59.4H63.6V59.5ZM67 64.3C67 63.7 66.6 63.5 65.8 63.5H63.6V65.2H65.8C66.6 65.1 67 64.8 67 64.3Z" fill="#BEBEBE"></path>
    <path d="M84.4 64.9V67.6H75.5V56.9H84.2V59.6H79.1V60.9H83.6V63.5H79.1V64.9H84.4Z" fill="#BEBEBE"></path>
    <path d="M93.9999 64.9H92.9999V67.6H89.3999V56.9H94.4999C95.4999 56.9 96.2999 57.1 97.0999 57.4C97.7999 57.7 98.3999 58.2 98.7999 58.8C99.1999 59.4 99.3999 60.1 99.3999 60.9C99.3999 61.7 99.1999 62.3 98.8999 62.9C98.5999 63.5 98.0999 63.9 97.3999 64.3L99.5999 67.6H95.7999L93.9999 64.9ZM95.3999 60C95.1999 59.8 94.7999 59.7 94.2999 59.7H92.9999V62.2H94.2999C94.7999 62.2 95.1999 62.1 95.3999 61.9C95.5999 61.7 95.7999 61.4 95.7999 61C95.7999 60.6 95.6999 60.3 95.3999 60Z" fill="#BEBEBE"></path>
    <path fill-rule="evenodd" clip-rule="evenodd" d="M294.5 5.89995H14.2077C9.2609 5.84819 5.12424 7.59731 2.58878 10.3921C0.0249201 13.2182 -0.832941 17.0698 0.829008 20.8092L0.851432 20.8596L0.877505 20.9083L3.8775 26.5083L3.87748 26.5083L3.88187 26.5164L18.3333 53.0999H21.748L6.52194 25.0916L6.51758 25.0835L3.5492 19.5425C2.43925 16.9975 2.98606 14.419 4.81067 12.4078C6.67379 10.3542 9.93392 8.85367 14.1834 8.89986L14.1916 8.89995H14.1997H294.5C305.471 8.89995 314.4 17.8284 314.4 28.8V87.8C314.4 98.7715 305.471 107.7 294.5 107.7H55.8997H55.8991H55.8986H55.898H55.8974H55.8968H55.8963H55.8957H55.8951H55.8945H55.894H55.8934H55.8929H55.8923H55.8917H55.8912H55.8906H55.8901H55.8895H55.889H55.8885H55.8879H55.8874H55.8868H55.8863H55.8858H55.8852H55.8847H55.8842H55.8837H55.8831H55.8826H55.8821H55.8816H55.8811H55.8806H55.88H55.8795H55.879H55.8785H55.878H55.8775H55.877H55.8765H55.876H55.8755H55.875H55.8746H55.8741H55.8736H55.8731H55.8726H55.8721H55.8717H55.8712H55.8707H55.8702H55.8698H55.8693H55.8688H55.8684H55.8679H55.8674H55.867H55.8665H55.8661H55.8656H55.8652H55.8647H55.8643H55.8638H55.8634H55.8629H55.8625H55.862H55.8616H55.8612H55.8607H55.8603H55.8598H55.8594H55.859H55.8586H55.8581H55.8577H55.8573H55.8569H55.8564H55.856H55.8556H55.8552H55.8548H55.8543H55.8539H55.8535H55.8531H55.8527H55.8523H55.8519H55.8515H55.8511H55.8507H55.8503H55.8499H55.8495H55.8491H55.8487H55.8483H55.8479H55.8475H55.8471H55.8467H55.8464H55.846H55.8456H55.8452H55.8448H55.8445H55.8441H55.8437H55.8433H55.8429H55.8426H55.8422H55.8418H55.8415H55.8411H55.8407H55.8404H55.84H55.8396H55.8393H55.8389H55.8385H55.8382H55.8378H55.8375H55.8371H55.8367H55.8364H55.836H55.8357H55.8353H55.835H55.8346H55.8343H55.8339H55.8336H55.8332H55.8329H55.8326H55.8322H55.8319H55.8315H55.8312H55.8309H55.8305H55.8302H55.8298H55.8295H55.8292H55.8288H55.8285H55.8282H55.8278H55.8275H55.8272H55.8269H55.8265H55.8262H55.8259H55.8255H55.8252H55.8249H55.8246H55.8242H55.8239H55.8236H55.8233H55.823H55.8226H55.8223H55.822H55.8217H55.8214H55.8211H55.8207H55.8204H55.8201H55.8198H55.8195H55.8192H55.8189H55.8186H55.8182H55.8179H55.8176H55.8173H55.817H55.8167H55.8164H55.8161H55.8158H55.8155H55.8152H55.8149H55.8146H55.8143H55.814H55.8137H55.8133H55.813H55.8127H55.8124H55.8121H55.8118H55.8115H55.8112H55.8109H55.8106H55.8103H55.81H55.8097H55.8094H55.8092H55.8089H55.8086H55.8083H55.808H55.8077H55.8074H55.8071H55.8068H55.8065H55.8062H55.8059H55.8056H55.8053H55.805H55.8047H55.8044H55.8041H55.8038H55.8035H55.8032H55.803H55.8027H55.8024H55.8021H55.8018H55.8015H55.8012H55.8009H55.8006H55.8003H55.8H55.7997H55.7994H55.7991H55.7988H55.7986H55.7983H55.798H55.7977H55.7974H55.7971H55.7968H55.7965H55.7962H55.7959H55.7956H55.7953H55.795H55.7947H55.7944H55.7942H55.7939H55.7936H55.7933H55.793H55.7927H55.7924H55.7921H55.7918H55.7915H55.7912H55.7909H55.7906H55.7903H55.79H55.7897H55.7894H55.7891H55.7888H55.7885H55.7882H55.7879H55.7876H55.7873H55.787H55.7867H55.7864H55.7861H55.7858H55.7855H55.7852H55.7849H55.7846H55.7843H55.784H55.7837H55.7834H55.7831H55.7828H55.7824H55.7821H55.7818H55.7815H55.7812H55.7809H55.7806H55.7803H55.78H55.7796H55.7793H55.779H55.7787H55.7784H55.7781H55.7778H55.7774H55.7771H55.7768H55.7765H55.7762H55.7758H55.7755H55.7752H55.7749H55.7746H55.7742H55.7739H55.7736H55.7733H55.7729H55.7726H55.7723H55.7719H55.7716H55.7713H55.771H55.7706H55.7703H55.7699H55.7696H55.7693H55.7689H55.7686H55.7683H55.7679H55.7676H55.7672H55.7669H55.7666H55.7662H55.7659H55.7655H55.7652H55.7648H55.7645H55.7641H55.7638H55.7634H55.7631H55.7627H55.7624H55.762H55.7616H55.7613H55.7609H55.7606H55.7602H55.7598H55.7595H55.7591H55.7587H55.7584H55.758H55.7576H55.7573H55.7569H55.7565H55.7561H55.7558H55.7554H55.755H55.7546H55.7542H55.7539H55.7535H55.7531H55.7527H55.7523H55.7519H55.7515H55.7511H55.7508H55.7504H55.75H55.7496H55.7492H55.7488H55.7484H55.748H55.7476H55.7472H55.7467H55.7463H55.7459H55.7455H55.7451H55.7447H55.7443H55.7439H55.7434H55.743H55.7426H55.7422H55.7418H55.7413H55.7409H55.7405H55.74H55.7396H55.7392H55.7387H55.7383H55.7379H55.7374H55.737H55.7365H55.7361H55.7356H55.7352H55.7347H55.7343H55.7338H55.7334H55.7329H55.7325H55.732H55.7315H55.7311H55.7306H55.7302H55.7297H55.7292H55.7287H55.7283H55.7278H55.7273H55.7268H55.7263H55.7259H55.7254H55.7249H55.7244H55.7239H55.7234H55.7229H55.7224H55.7219H55.7214H55.7209H55.7204H55.7199H55.7194H55.7189H55.7184H55.7179H55.7174H55.7168H55.7163H55.7158H55.7153H55.7147H55.7142H55.7137H55.7132H55.7126H55.7121H55.7115H55.711H55.7105H55.7099H55.7094H55.7088H55.7083H55.7077H55.7072H55.7066H55.706H55.7055H55.7049H55.7043H55.7038H55.7032H55.7026H55.7021H55.7015H55.7009H55.7003H55.6997H55.6991H55.6986H55.698H55.6974H55.6968H55.6962H55.6956H55.695H55.6944H55.6938H55.6931H55.6925H55.6919H55.6913H55.6907H55.6901H55.6894H55.6888H55.6882H55.6876H55.6869H55.6863H55.6857H55.685H55.6844H55.6837H55.6831H55.6825H55.6818H55.6812H55.6805H55.6799H55.6792H55.6785H55.6779H55.6772H55.6766H55.6759H55.6752H55.6746H55.6739H55.6732H55.6725H55.6719H55.6712H55.6705H55.6698H55.6691H55.6684H55.6678H55.6671H55.6664H55.6657H55.665H55.6643H55.6636H55.6629H55.6622H55.6615H55.6608H55.6601H55.6594H55.6586H55.6579H55.6572H55.6565H55.6558H55.6551H55.6543H55.6536H55.6529H55.6522H55.6514H55.6507H55.65H55.6492H55.6485H55.6478H55.647H55.6463H55.6455H55.6448H55.6441H55.6433H55.6426H55.6418H55.6411H55.6403H55.6396H55.6388H55.6381H55.6373H55.6365H55.6358H55.635H55.6342H55.6335H55.6327H55.6319H55.6312H55.6304H55.6296H55.6289H55.6281H55.6273H55.6265H55.6258H55.625H55.6242H55.6234H55.6226H55.6218H55.6211H55.6203H55.6195H55.6187H55.6179H55.6171H55.6163H55.6155H55.6147H55.6139H55.6131H55.6123H55.6115H55.6107H55.6099H55.6091H55.6083H55.6075H55.6067H55.6059H55.6051H55.6042H55.6034H55.6026H55.6018H55.601H55.6002H55.5994H55.5985H55.5977H55.5969H55.5961H55.5952H55.5944H55.5936H55.5928H55.5919H55.5911H55.5903H55.5895H55.5886H55.5878H55.587H55.5861H55.5853H55.5845H55.5836H55.5828H55.5819H55.5811H55.5803H55.5794H55.5786H55.5777H55.5769H55.5761H55.5752H55.5744H55.5735H55.5727H55.5718H55.571H55.5701H55.5693H55.5684H55.5676H55.5667H55.5659H55.565H55.5642H55.5633H55.5625H55.5616H55.5607H55.5599H55.559H55.5582H55.5573H55.5564H55.5556H55.5547H55.5539H55.553H55.5521H55.5513H55.5504H55.5495H55.5487H55.5478H55.547H55.5461H55.5452H55.5444H55.5435H55.5426H55.5417H55.5409H55.54H55.5391H55.5383H55.5374H55.5365H55.5357H55.5348H55.5339H55.533H55.5322H55.5313H55.5304H55.5295H55.5287H55.5278H55.5269H55.5261H55.5252H55.5243H55.5234H55.5226H55.5217H55.5208H55.5199H55.519H55.5182H55.5173H55.5164H55.5155H55.5147H55.5138H55.5129H55.512H55.5111H55.5103H55.5094H55.5085H55.5076H55.5068H55.5059H55.505H55.5041H55.5032H55.5024H55.5015H55.5006H55.4997H55.4988H55.498H55.4971H55.4962H55.4953H55.4945H55.4936H55.4927H55.4918H55.4909H55.4901H55.4892H55.4883H55.4874H55.4865H55.4857H55.4848H55.4839H55.483H55.4822H55.4813H55.4804H55.4795H55.4787H55.4778H55.4769H55.476H55.4751H55.4743H55.4734H55.4725H55.4716H55.4708H55.4699H55.469H55.4682H55.4673H55.4664H55.4655H55.4647H55.4638H55.4629H55.4621H55.4612H55.4603H55.4594H55.4586H55.4577H55.4568H55.456H55.4551H55.4542H55.4534H55.4525H55.4516H55.4508H55.4499H55.449H55.4482H55.4473H55.4464H55.4456H55.4447H55.4439H55.443H55.4421H55.4413H55.4404H55.4396H55.4387H55.4379H55.437H55.4361H55.4353H55.4344H55.4336H55.4327H55.4319H55.431H55.4302H55.4293H55.4285H55.4276H55.4268H55.4259H55.4251H55.4242H55.4234H55.4226H55.4217H55.4209H55.42H55.4192H55.4183H55.4175H55.4167H55.4158H55.415H55.4142H55.4133H55.4125H55.4117H55.4108H55.41H55.4092H55.4083H55.4075H55.4067H55.4059H55.405H55.4042H55.4034H55.4026H55.4017H55.4009H55.4001H55.3993H55.3985H55.3976H55.3968H55.396H55.3952H55.3944H55.3936H55.3928H55.392H55.3912H55.3904H55.3895H55.3887H55.3879H55.3871H55.3863H55.3855H55.3847H55.3839H55.3831H55.3824H55.3816H55.3808H55.38H55.3792H55.3784H55.3776H55.3768H55.376H55.3753H55.3745H55.3737H55.3729H55.3721H55.3714H55.3706H55.3698H55.369H55.3683H55.3678C55.1746 107.66 55.0066 107.636 54.878 107.617L54.8777 107.617L54.8619 107.615C54.683 107.589 54.5791 107.574 54.4635 107.545L54.2844 107.5H54.1849C54.0017 107.454 53.8372 107.412 53.6932 107.372L53.61 107.289L53.2741 107.177C53.1438 107.133 52.9288 107.032 52.7427 106.922L52.6554 106.834L52.5318 106.752C52.429 106.683 52.3241 106.619 52.2413 106.568L52.2169 106.554C52.138 106.505 52.0742 106.466 52.0109 106.426C51.8704 106.335 51.799 106.278 51.7604 106.239L51.6604 106.139L50.5997 107.2L51.6604 106.139C51.469 105.948 51.2564 105.766 51.0935 105.626L51.0759 105.611C50.8909 105.452 50.7621 105.341 50.6604 105.239L50.5604 105.139L49.4997 106.2L50.5604 105.139C50.1443 104.723 49.7124 104.211 49.2671 103.593L47.0127 99.5745L32.0225 71.9999H28.6078L44.3819 101.016L44.3866 101.025L44.3915 101.034L46.6915 105.134L46.7316 105.205L46.7791 105.272C47.3173 106.025 47.8697 106.691 48.4391 107.261L48.539 107.361L49.5997 106.3L48.5391 107.361C48.7304 107.552 48.943 107.734 49.1059 107.874L49.1235 107.889C49.3086 108.047 49.4374 108.159 49.5391 108.261L49.639 108.361L50.6997 107.3L49.6391 108.361C49.9005 108.622 50.1791 108.815 50.3886 108.949C50.4828 109.01 50.5766 109.067 50.6515 109.113L50.6769 109.128L50.7543 109.176L50.8441 109.266L50.9677 109.348C51.2589 109.542 51.6171 109.736 51.9625 109.884L52.0895 110.011L52.4254 110.123C52.7808 110.241 53.2271 110.353 53.6001 110.446L53.6003 110.446L53.6359 110.455L53.8151 110.5H53.9316C54.1248 110.54 54.2929 110.564 54.4214 110.583L54.4217 110.583L54.4376 110.585C54.6165 110.61 54.7203 110.626 54.8359 110.655L55.0151 110.7H55.1997H55.2997H55.3003H55.3009H55.3015H55.3021H55.3027H55.3033H55.3039H55.3045H55.3051H55.3057H55.3063H55.3069H55.3075H55.3081H55.3088H55.3094H55.31H55.3106H55.3113H55.3119H55.3125H55.3132H55.3138H55.3144H55.3151H55.3157H55.3163H55.317H55.3176H55.3183H55.3189H55.3196H55.3203H55.3209H55.3216H55.3222H55.3229H55.3236H55.3242H55.3249H55.3256H55.3262H55.3269H55.3276H55.3283H55.329H55.3296H55.3303H55.331H55.3317H55.3324H55.3331H55.3338H55.3345H55.3352H55.3359H55.3366H55.3373H55.338H55.3387H55.3394H55.3401H55.3408H55.3415H55.3422H55.343H55.3437H55.3444H55.3451H55.3458H55.3466H55.3473H55.348H55.3487H55.3495H55.3502H55.3509H55.3517H55.3524H55.3532H55.3539H55.3546H55.3554H55.3561H55.3569H55.3576H55.3584H55.3591H55.3599H55.3606H55.3614H55.3622H55.3629H55.3637H55.3644H55.3652H55.366H55.3667H55.3675H55.3683H55.369H55.3698H55.3706H55.3714H55.3721H55.3729H55.3737H55.3745H55.3753H55.376H55.3768H55.3776H55.3784H55.3792H55.38H55.3808H55.3816H55.3824H55.3831H55.3839H55.3847H55.3855H55.3863H55.3871H55.3879H55.3887H55.3895H55.3904H55.3912H55.392H55.3928H55.3936H55.3944H55.3952H55.396H55.3968H55.3976H55.3985H55.3993H55.4001H55.4009H55.4017H55.4026H55.4034H55.4042H55.405H55.4059H55.4067H55.4075H55.4083H55.4092H55.41H55.4108H55.4117H55.4125H55.4133H55.4142H55.415H55.4158H55.4167H55.4175H55.4183H55.4192H55.42H55.4209H55.4217H55.4226H55.4234H55.4242H55.4251H55.4259H55.4268H55.4276H55.4285H55.4293H55.4302H55.431H55.4319H55.4327H55.4336H55.4344H55.4353H55.4361H55.437H55.4379H55.4387H55.4396H55.4404H55.4413H55.4421H55.443H55.4439H55.4447H55.4456H55.4464H55.4473H55.4482H55.449H55.4499H55.4508H55.4516H55.4525H55.4534H55.4542H55.4551H55.456H55.4568H55.4577H55.4586H55.4594H55.4603H55.4612H55.4621H55.4629H55.4638H55.4647H55.4655H55.4664H55.4673H55.4682H55.469H55.4699H55.4708H55.4716H55.4725H55.4734H55.4743H55.4751H55.476H55.4769H55.4778H55.4787H55.4795H55.4804H55.4813H55.4822H55.483H55.4839H55.4848H55.4857H55.4865H55.4874H55.4883H55.4892H55.4901H55.4909H55.4918H55.4927H55.4936H55.4945H55.4953H55.4962H55.4971H55.498H55.4988H55.4997H55.5006H55.5015H55.5024H55.5032H55.5041H55.505H55.5059H55.5068H55.5076H55.5085H55.5094H55.5103H55.5111H55.512H55.5129H55.5138H55.5147H55.5155H55.5164H55.5173H55.5182H55.519H55.5199H55.5208H55.5217H55.5226H55.5234H55.5243H55.5252H55.5261H55.5269H55.5278H55.5287H55.5295H55.5304H55.5313H55.5322H55.533H55.5339H55.5348H55.5357H55.5365H55.5374H55.5383H55.5391H55.54H55.5409H55.5417H55.5426H55.5435H55.5444H55.5452H55.5461H55.547H55.5478H55.5487H55.5495H55.5504H55.5513H55.5521H55.553H55.5539H55.5547H55.5556H55.5564H55.5573H55.5582H55.559H55.5599H55.5607H55.5616H55.5625H55.5633H55.5642H55.565H55.5659H55.5667H55.5676H55.5684H55.5693H55.5701H55.571H55.5718H55.5727H55.5735H55.5744H55.5752H55.5761H55.5769H55.5777H55.5786H55.5794H55.5803H55.5811H55.5819H55.5828H55.5836H55.5845H55.5853H55.5861H55.587H55.5878H55.5886H55.5895H55.5903H55.5911H55.5919H55.5928H55.5936H55.5944H55.5952H55.5961H55.5969H55.5977H55.5985H55.5994H55.6002H55.601H55.6018H55.6026H55.6034H55.6042H55.6051H55.6059H55.6067H55.6075H55.6083H55.6091H55.6099H55.6107H55.6115H55.6123H55.6131H55.6139H55.6147H55.6155H55.6163H55.6171H55.6179H55.6187H55.6195H55.6203H55.6211H55.6218H55.6226H55.6234H55.6242H55.625H55.6258H55.6265H55.6273H55.6281H55.6289H55.6296H55.6304H55.6312H55.6319H55.6327H55.6335H55.6342H55.635H55.6358H55.6365H55.6373H55.6381H55.6388H55.6396H55.6403H55.6411H55.6418H55.6426H55.6433H55.6441H55.6448H55.6455H55.6463H55.647H55.6478H55.6485H55.6492H55.65H55.6507H55.6514H55.6522H55.6529H55.6536H55.6543H55.6551H55.6558H55.6565H55.6572H55.6579H55.6586H55.6594H55.6601H55.6608H55.6615H55.6622H55.6629H55.6636H55.6643H55.665H55.6657H55.6664H55.6671H55.6678H55.6684H55.6691H55.6698H55.6705H55.6712H55.6719H55.6725H55.6732H55.6739H55.6746H55.6752H55.6759H55.6766H55.6772H55.6779H55.6785H55.6792H55.6799H55.6805H55.6812H55.6818H55.6825H55.6831H55.6837H55.6844H55.685H55.6857H55.6863H55.6869H55.6876H55.6882H55.6888H55.6894H55.6901H55.6907H55.6913H55.6919H55.6925H55.6931H55.6938H55.6944H55.695H55.6956H55.6962H55.6968H55.6974H55.698H55.6986H55.6991H55.6997H55.7003H55.7009H55.7015H55.7021H55.7026H55.7032H55.7038H55.7043H55.7049H55.7055H55.706H55.7066H55.7072H55.7077H55.7083H55.7088H55.7094H55.7099H55.7105H55.711H55.7115H55.7121H55.7126H55.7132H55.7137H55.7142H55.7147H55.7153H55.7158H55.7163H55.7168H55.7174H55.7179H55.7184H55.7189H55.7194H55.7199H55.7204H55.7209H55.7214H55.7219H55.7224H55.7229H55.7234H55.7239H55.7244H55.7249H55.7254H55.7259H55.7263H55.7268H55.7273H55.7278H55.7283H55.7287H55.7292H55.7297H55.7302H55.7306H55.7311H55.7315H55.732H55.7325H55.7329H55.7334H55.7338H55.7343H55.7347H55.7352H55.7356H55.7361H55.7365H55.737H55.7374H55.7379H55.7383H55.7387H55.7392H55.7396H55.74H55.7405H55.7409H55.7413H55.7418H55.7422H55.7426H55.743H55.7434H55.7439H55.7443H55.7447H55.7451H55.7455H55.7459H55.7463H55.7467H55.7472H55.7476H55.748H55.7484H55.7488H55.7492H55.7496H55.75H55.7504H55.7508H55.7511H55.7515H55.7519H55.7523H55.7527H55.7531H55.7535H55.7539H55.7542H55.7546H55.755H55.7554H55.7558H55.7561H55.7565H55.7569H55.7573H55.7576H55.758H55.7584H55.7587H55.7591H55.7595H55.7598H55.7602H55.7606H55.7609H55.7613H55.7616H55.762H55.7624H55.7627H55.7631H55.7634H55.7638H55.7641H55.7645H55.7648H55.7652H55.7655H55.7659H55.7662H55.7666H55.7669H55.7672H55.7676H55.7679H55.7683H55.7686H55.7689H55.7693H55.7696H55.7699H55.7703H55.7706H55.771H55.7713H55.7716H55.7719H55.7723H55.7726H55.7729H55.7733H55.7736H55.7739H55.7742H55.7746H55.7749H55.7752H55.7755H55.7758H55.7762H55.7765H55.7768H55.7771H55.7774H55.7778H55.7781H55.7784H55.7787H55.779H55.7793H55.7796H55.78H55.7803H55.7806H55.7809H55.7812H55.7815H55.7818H55.7821H55.7824H55.7828H55.7831H55.7834H55.7837H55.784H55.7843H55.7846H55.7849H55.7852H55.7855H55.7858H55.7861H55.7864H55.7867H55.787H55.7873H55.7876H55.7879H55.7882H55.7885H55.7888H55.7891H55.7894H55.7897H55.79H55.7903H55.7906H55.7909H55.7912H55.7915H55.7918H55.7921H55.7924H55.7927H55.793H55.7933H55.7936H55.7939H55.7942H55.7944H55.7947H55.795H55.7953H55.7956H55.7959H55.7962H55.7965H55.7968H55.7971H55.7974H55.7977H55.798H55.7983H55.7986H55.7988H55.7991H55.7994H55.7997H55.8H55.8003H55.8006H55.8009H55.8012H55.8015H55.8018H55.8021H55.8024H55.8027H55.803H55.8032H55.8035H55.8038H55.8041H55.8044H55.8047H55.805H55.8053H55.8056H55.8059H55.8062H55.8065H55.8068H55.8071H55.8074H55.8077H55.808H55.8083H55.8086H55.8089H55.8092H55.8094H55.8097H55.81H55.8103H55.8106H55.8109H55.8112H55.8115H55.8118H55.8121H55.8124H55.8127H55.813H55.8133H55.8137H55.814H55.8143H55.8146H55.8149H55.8152H55.8155H55.8158H55.8161H55.8164H55.8167H55.817H55.8173H55.8176H55.8179H55.8182H55.8186H55.8189H55.8192H55.8195H55.8198H55.8201H55.8204H55.8207H55.8211H55.8214H55.8217H55.822H55.8223H55.8226H55.823H55.8233H55.8236H55.8239H55.8242H55.8246H55.8249H55.8252H55.8255H55.8259H55.8262H55.8265H55.8269H55.8272H55.8275H55.8278H55.8282H55.8285H55.8288H55.8292H55.8295H55.8298H55.8302H55.8305H55.8309H55.8312H55.8315H55.8319H55.8322H55.8326H55.8329H55.8332H55.8336H55.8339H55.8343H55.8346H55.835H55.8353H55.8357H55.836H55.8364H55.8367H55.8371H55.8375H55.8378H55.8382H55.8385H55.8389H55.8393H55.8396H55.84H55.8404H55.8407H55.8411H55.8415H55.8418H55.8422H55.8426H55.8429H55.8433H55.8437H55.8441H55.8445H55.8448H55.8452H55.8456H55.846H55.8464H55.8467H55.8471H55.8475H55.8479H55.8483H55.8487H55.8491H55.8495H55.8499H55.8503H55.8507H55.8511H55.8515H55.8519H55.8523H55.8527H55.8531H55.8535H55.8539H55.8543H55.8548H55.8552H55.8556H55.856H55.8564H55.8569H55.8573H55.8577H55.8581H55.8586H55.859H55.8594H55.8598H55.8603H55.8607H55.8612H55.8616H55.862H55.8625H55.8629H55.8634H55.8638H55.8643H55.8647H55.8652H55.8656H55.8661H55.8665H55.867H55.8674H55.8679H55.8684H55.8688H55.8693H55.8698H55.8702H55.8707H55.8712H55.8717H55.8721H55.8726H55.8731H55.8736H55.8741H55.8746H55.875H55.8755H55.876H55.8765H55.877H55.8775H55.878H55.8785H55.879H55.8795H55.88H55.8806H55.8811H55.8816H55.8821H55.8826H55.8831H55.8837H55.8842H55.8847H55.8852H55.8858H55.8863H55.8868H55.8874H55.8879H55.8885H55.889H55.8895H55.8901H55.8906H55.8912H55.8917H55.8923H55.8929H55.8934H55.894H55.8945H55.8951H55.8957H55.8963H55.8968H55.8974H55.898H55.8986H55.8991H55.8997H294.5C307.128 110.7 317.4 100.428 317.4 87.8V28.8C317.4 16.1715 307.128 5.89995 294.5 5.89995Z" fill="#BEBEBE"></path>
    <path d="M129.8 38.3C129.4 39.4 128.6 39.7 127.4 39.7C126.2 39.7 125.4 39.5 125 38.3L120.2 24.8C120 24.3 120 24 120 23.7C120 22.4 121 22 122 22C123 22 123.6 22.5 124 23.7L127.5 35.3L131.2 23.7C131.6 22.5 132.1 22 133 22C134 22 135 22.4 135 23.7C135 24 134.9 24.4 134.8 24.8L129.8 38.3Z" fill="#BEBEBE"></path>
    <path d="M141.3 24.6C141.3 22.9 142 22.3 143.4 22.3H149.4C152.7 22.3 155.3 23.9 155.3 27.7C155.3 30.8 153.1 33.1 149.4 33.1H145.1V37.7C145.1 38.9 144.3 39.6 143.2 39.6C142.1 39.6 141.3 38.8 141.3 37.7V24.6ZM145 30.1H148.6C150.2 30.1 151.3 29.2 151.3 27.7C151.3 26 150.1 25.3 148.2 25.3H145V30.1Z" fill="#BEBEBE"></path>
    <path d="M162.4 24.3C162.4 22.7 163.2 22 164.8 22C165.6 22 166.3 22.3 166.7 23L173.5 34V23.9C173.5 22.6 174.2 22 175.4 22C176.6 22 177.3 22.6 177.3 23.9V37.3C177.3 38.8 176.6 39.7 175 39.7C173.8 39.7 173.4 39.4 172.9 38.7L166.2 28V37.8C166.2 39.1 165.5 39.7 164.3 39.7C163.1 39.7 162.4 39.1 162.4 37.8V24.3Z" fill="#BEBEBE"></path>
    <path d="M125.8 49.3H122.1C121 49.3 120.1 48.7 120.1 47.7C120.1 46.6 121 46.1 122.1 46.1H133.3C134.4 46.1 135.3 46.7 135.3 47.7C135.3 48.8 134.4 49.3 133.3 49.3H129.7V61.5C129.7 62.7 128.9 63.4 127.8 63.4C126.6 63.4 125.9 62.6 125.9 61.5V49.3H125.8Z" fill="#BEBEBE"></path>
    <path d="M141.1 48.3C141.1 46.6 141.8 46 143.2 46H149.7C154.3 46 155.6 48.5 155.6 50.7C155.6 52.5 154.5 54.4 152.7 54.8C154.7 55.1 155 56.5 155 58.3C155 60.3 155.5 61 155.5 61.8C155.5 62.7 154.6 63.3 153.7 63.3C151.6 63.3 151.4 61.2 151.4 60.5C151.4 57.5 150.9 56.3 148.7 56.3H144.9V61.3C144.9 62.5 144.1 63.2 143 63.2C141.8 63.2 141.1 62.4 141.1 61.3L141.1 48.3ZM144.8 53.6H148.7C150.2 53.6 151.6 53.2 151.6 51.3C151.6 49.5 150.5 49 148.8 49H144.8V53.6Z" fill="#BEBEBE"></path>
    <path d="M163.2 47.6C163.2 46.4 164 45.7 165.1 45.7C166.2 45.7 167 46.5 167 47.6V57C167 59.3 168.3 60.4 170.5 60.4C172.7 60.4 174 59.4 174 57V47.7C174 46.5 174.8 45.8 175.9 45.8C177.1 45.8 177.8 46.6 177.8 47.7V56.7C177.8 61.4 174.9 63.5 170.4 63.5C165.9 63.5 163 61.4 163 56.7L163.2 47.6Z" fill="#BEBEBE"></path>
    <path d="M195.3 53.2C198.9 54 199.8 56.1 199.8 58.1C199.8 61.2 197.5 63.5 192.8 63.5C187.9 63.5 185.7 61 185.7 59.2C185.7 58.3 186.4 57.6 187.3 57.6C189.4 57.6 188.9 60.7 192.8 60.7C194.8 60.7 195.9 59.6 195.9 58.4C195.9 57.7 195.6 57 194.2 56.6L189.8 55.5C186.3 54.6 185.6 52.7 185.6 50.8C185.6 47 189.1 45.6 192.4 45.6C195.4 45.6 199 47.3 199 49.6C199 50.6 198.2 51.1 197.2 51.1C195.4 51.1 195.7 48.6 192.1 48.6C190.3 48.6 189.3 49.4 189.3 50.6C189.3 51.8 190.7 52.2 192 52.4L195.3 53.2Z" fill="#BEBEBE"></path>
    <path d="M211.5 49.3H207.8C206.7 49.3 205.8 48.7 205.8 47.7C205.8 46.6 206.7 46.1 207.8 46.1H219C220.1 46.1 221 46.7 221 47.7C221 48.8 220.1 49.3 219 49.3H215.3V61.5C215.3 62.7 214.5 63.4 213.4 63.4C212.2 63.4 211.5 62.6 211.5 61.5V49.3Z" fill="#BEBEBE"></path>
    <path d="M125.9 71.1C125.9 69.9 126.7 69.2 127.8 69.2C129 69.2 129.7 70 129.7 71.1V84.9C129.7 86.1 128.9 86.8 127.8 86.8C126.6 86.8 125.9 86 125.9 84.9V71.1Z" fill="#BEBEBE"></path>
    <path d="M141 71.5C141 69.9 141.8 69.2 143.4 69.2C144.2 69.2 144.9 69.5 145.3 70.2L152.1 81.2V71.1C152.1 69.8 152.8 69.2 154 69.2C155.2 69.2 155.9 69.8 155.9 71.1V84.5C155.9 86 155.2 86.9 153.6 86.9C152.4 86.9 152 86.6 151.5 85.9L144.7 75.2V85C144.7 86.3 144 86.9 142.8 86.9C141.6 86.9 140.9 86.3 140.9 85L141 71.5Z" fill="#BEBEBE"></path>
    <path d="M164.3 71.1C164.3 69.9 165.1 69.2 166.2 69.2C167.4 69.2 168.1 70 168.1 71.1V84.9C168.1 86.1 167.3 86.8 166.2 86.8C165 86.8 164.3 86 164.3 84.9V71.1Z" fill="#BEBEBE"></path>
    <path d="M180.7 72.8H177C175.9 72.8 175 72.2 175 71.2C175 70.1 175.9 69.6 177 69.6H188.2C189.3 69.6 190.2 70.2 190.2 71.2C190.2 72.3 189.3 72.8 188.2 72.8H184.5V85C184.5 86.2 183.7 86.9 182.6 86.9C181.5 86.9 180.7 86.1 180.7 85V72.8Z" fill="#BEBEBE"></path>
    <path d="M197.1 71.1C197.1 69.9 197.9 69.2 199 69.2C200.2 69.2 200.9 70 200.9 71.1V84.9C200.9 86.1 200.1 86.8 199 86.8C197.8 86.8 197.1 86 197.1 84.9V71.1Z" fill="#BEBEBE"></path>
    <path d="M213.1 70.4C213.4 69.5 214 69.2 215 69.2H215.9C216.8 69.2 217.6 69.4 218 70.6L222.7 83.7C222.8 84.1 223.1 84.8 223.1 85.2C223.1 86.1 222.3 86.9 221.3 86.9C220.4 86.9 219.8 86.6 219.5 85.8L218.5 83H212.2L211.2 85.8C210.9 86.6 210.4 86.9 209.5 86.9C208.4 86.9 207.7 86.2 207.7 85.2C207.7 84.8 207.9 84.1 208.1 83.7L213.1 70.4ZM215.5 73.4L213.2 80.3H217.8L215.5 73.4Z" fill="#BEBEBE"></path>
    <path d="M232.3 72.8H228.6C227.5 72.8 226.6 72.2 226.6 71.2C226.6 70.1 227.5 69.6 228.6 69.6H239.8C240.9 69.6 241.8 70.2 241.8 71.2C241.8 72.3 240.9 72.8 239.8 72.8H236.1V85C236.1 86.2 235.3 86.9 234.2 86.9C233.1 86.9 232.3 86.1 232.3 85V72.8Z" fill="#BEBEBE"></path>
    <path d="M248.7 71.1C248.7 69.9 249.5 69.2 250.6 69.2C251.8 69.2 252.5 70 252.5 71.1V84.9C252.5 86.1 251.7 86.8 250.6 86.8C249.4 86.8 248.7 86 248.7 84.9V71.1Z" fill="#BEBEBE"></path>
    <path d="M269.1 85.5C268.7 86.6 267.9 86.9 266.7 86.9C265.5 86.9 264.7 86.7 264.3 85.5L259.5 72C259.3 71.5 259.3 71.2 259.3 70.9C259.3 69.6 260.3 69.2 261.3 69.2C262.3 69.2 262.9 69.7 263.3 70.9L266.8 82.5L270.5 70.9C270.9 69.7 271.4 69.2 272.3 69.2C273.3 69.2 274.3 69.6 274.3 70.9C274.3 71.2 274.2 71.6 274.1 72L269.1 85.5Z" fill="#BEBEBE"></path>
    <path d="M281.1 71.8C281.1 70.1 282 69.5 283.4 69.5H292.5C293.6 69.5 294.5 69.8 294.5 71.1C294.5 72.3 293.7 72.7 292.5 72.7H285V76.4H291.6C292.6 76.4 293.4 76.7 293.4 77.9C293.4 79.1 292.6 79.4 291.6 79.4H285V83.5H292.7C293.8 83.5 294.7 83.8 294.7 85.1C294.7 86.3 293.9 86.7 292.7 86.7H283.4C282 86.7 281.1 86.2 281.1 84.4V71.8Z" fill="#BEBEBE"></path>
    <path d="M286.7 13.7L292.7 25.9L306.2 27.9L296.5 37.4L298.8 50.9L286.7 44.5L274.6 50.9L276.9 37.4L267.1 27.9L280.6 25.9L286.7 13.7Z" fill="#BEBEBE"></path>
  </g>
  <defs>
    <clipPath id="clip0_3760_1060">
      <rect width="317.4" height="110.6" fill="white"></rect>
    </clipPath>
  </defs>
</svg>
